<?xml version="1.0" encoding="us-ascii" standalone="no"?><svg xmlns="http://www.w3.org/2000/svg" xmlns:xlink="http://www.w3.org/1999/xlink" contentStyleType="text/css" height="1307px" preserveAspectRatio="none" style="width:280px;height:1307px;background:#FFFFFF;" version="1.1" viewBox="0 0 280 1307" width="280px" zoomAndPan="magnify"><defs/><g><ellipse cx="140" cy="20" fill="#222222" rx="10" ry="10" style="stroke:#222222;stroke-width:1.0;"/><rect fill="#F1F1F1" height="33.9688" rx="12.5" ry="12.5" style="stroke:#181818;stroke-width:0.5;" width="77" x="101.5" y="50"/><text fill="#000000" font-family="sans-serif" font-size="12" lengthAdjust="spacing" textLength="57" x="111.5" y="71.1387">Grab cap</text><rect fill="#F1F1F1" height="33.9688" rx="12.5" ry="12.5" style="stroke:#181818;stroke-width:0.5;" width="205" x="37.5" y="103.9688"/><text fill="#000000" font-family="sans-serif" font-size="12" lengthAdjust="spacing" textLength="185" x="47.5" y="125.1074">Place cap in the cap fastener</text><rect fill="#FFC0CB" height="33.9688" rx="12.5" ry="12.5" style="stroke:#181818;stroke-width:0.5;" width="55" x="112.5" y="206.3398"/><text fill="#000000" font-family="sans-serif" font-size="12" lengthAdjust="spacing" textLength="31" x="126.5" y="227.4785">error</text><polygon fill="#F1F1F1" points="96,157.9375,184,157.9375,196,169.9375,184,181.9375,96,181.9375,84,169.9375,96,157.9375" style="stroke:#181818;stroke-width:0.5;"/><text fill="#000000" font-family="sans-serif" font-size="11" lengthAdjust="spacing" textLength="20" x="144" y="192.1479">yes</text><text fill="#000000" font-family="sans-serif" font-size="11" lengthAdjust="spacing" textLength="88" x="96" y="173.7456">cap misplaced?</text><rect fill="#F1F1F1" height="33.9688" rx="12.5" ry="12.5" style="stroke:#181818;stroke-width:0.5;" width="181" x="49.5" y="303.7075"/><text fill="#000000" font-family="sans-serif" font-size="12" lengthAdjust="spacing" textLength="161" x="59.5" y="324.8462">Go back to home position</text><rect fill="#F1F1F1" height="33.9688" rx="12.5" ry="12.5" style="stroke:#181818;stroke-width:0.5;" width="78" x="101" y="357.6763"/><text fill="#000000" font-family="sans-serif" font-size="12" lengthAdjust="spacing" textLength="58" x="111" y="378.8149">Grab bolt</text><rect fill="#F1F1F1" height="33.9688" rx="12.5" ry="12.5" style="stroke:#181818;stroke-width:0.5;" width="207" x="36.5" y="411.645"/><text fill="#000000" font-family="sans-serif" font-size="12" lengthAdjust="spacing" textLength="187" x="46.5" y="432.7837">Place bolt in the bolt fastener</text><rect fill="#FFC0CB" height="33.9688" rx="12.5" ry="12.5" style="stroke:#181818;stroke-width:0.5;" width="55" x="112.5" y="514.0161"/><text fill="#000000" font-family="sans-serif" font-size="12" lengthAdjust="spacing" textLength="31" x="126.5" y="535.1548">error</text><polygon fill="#F1F1F1" points="95.5,465.6138,184.5,465.6138,196.5,477.6138,184.5,489.6138,95.5,489.6138,83.5,477.6138,95.5,465.6138" style="stroke:#181818;stroke-width:0.5;"/><text fill="#000000" font-family="sans-serif" font-size="11" lengthAdjust="spacing" textLength="20" x="144" y="499.8242">yes</text><text fill="#000000" font-family="sans-serif" font-size="11" lengthAdjust="spacing" textLength="89" x="95.5" y="481.4219">bolt misplaced?</text><rect fill="#F1F1F1" height="33.9688" rx="12.5" ry="12.5" style="stroke:#181818;stroke-width:0.5;" width="181" x="49.5" y="611.3838"/><text fill="#000000" font-family="sans-serif" font-size="12" lengthAdjust="spacing" textLength="161" x="59.5" y="632.5225">Go back to home position</text><rect fill="#F1F1F1" height="33.9688" rx="12.5" ry="12.5" style="stroke:#181818;stroke-width:0.5;" width="78" x="101" y="665.3525"/><text fill="#000000" font-family="sans-serif" font-size="12" lengthAdjust="spacing" textLength="58" x="111" y="686.4912">Grab ring</text><rect fill="#F1F1F1" height="33.9688" rx="12.5" ry="12.5" style="stroke:#181818;stroke-width:0.5;" width="196" x="42" y="719.3213"/><text fill="#000000" font-family="sans-serif" font-size="12" lengthAdjust="spacing" textLength="176" x="52" y="740.46">place ring on top of the bolt</text><rect fill="#FFC0CB" height="33.9688" rx="12.5" ry="12.5" style="stroke:#181818;stroke-width:0.5;" width="55" x="112.5" y="821.6924"/><text fill="#000000" font-family="sans-serif" font-size="12" lengthAdjust="spacing" textLength="31" x="126.5" y="842.8311">error</text><polygon fill="#F1F1F1" points="95,773.29,185,773.29,197,785.29,185,797.29,95,797.29,83,785.29,95,773.29" style="stroke:#181818;stroke-width:0.5;"/><text fill="#000000" font-family="sans-serif" font-size="11" lengthAdjust="spacing" textLength="20" x="144" y="807.5005">yes</text><text fill="#000000" font-family="sans-serif" font-size="11" lengthAdjust="spacing" textLength="90" x="95" y="789.0981">ring misplaced?</text><rect fill="#F1F1F1" height="33.9688" rx="12.5" ry="12.5" style="stroke:#181818;stroke-width:0.5;" width="181" x="49.5" y="919.0601"/><text fill="#000000" font-family="sans-serif" font-size="12" lengthAdjust="spacing" textLength="161" x="59.5" y="940.1987">Go back to home position</text><rect fill="#F1F1F1" height="33.9688" rx="12.5" ry="12.5" style="stroke:#181818;stroke-width:0.5;" width="251" x="14.5" y="973.0288"/><text fill="#000000" font-family="sans-serif" font-size="12" lengthAdjust="spacing" textLength="231" x="24.5" y="994.1675">Grab the middle part by the hexagon</text><rect fill="#F1F1F1" height="33.9688" rx="12.5" ry="12.5" style="stroke:#181818;stroke-width:0.5;" width="242" x="19" y="1026.9976"/><text fill="#000000" font-family="sans-serif" font-size="12" lengthAdjust="spacing" textLength="222" x="29" y="1048.1362">Place middle part on top of the cap</text><rect fill="#F1F1F1" height="33.9688" rx="12.5" ry="12.5" style="stroke:#181818;stroke-width:0.5;" width="166" x="57" y="1080.9663"/><text fill="#000000" font-family="sans-serif" font-size="12" lengthAdjust="spacing" textLength="146" x="67" y="1102.105">rotate fastener 2 times</text><polygon fill="#F1F1F1" points="93,1154.9351,187,1154.9351,199,1166.9351,187,1178.9351,93,1178.9351,81,1166.9351,93,1154.9351" style="stroke:#181818;stroke-width:0.5;"/><text fill="#000000" font-family="sans-serif" font-size="11" lengthAdjust="spacing" textLength="94" x="93" y="1170.7432">rotated 2 times?</text><text fill="#000000" font-family="sans-serif" font-size="11" lengthAdjust="spacing" textLength="14" x="199" y="1164.3408">no</text><rect fill="#F1F1F1" height="33.9688" rx="12.5" ry="12.5" style="stroke:#181818;stroke-width:0.5;" width="258" x="11" y="1220.334"/><text fill="#000000" font-family="sans-serif" font-size="12" lengthAdjust="spacing" textLength="238" x="21" y="1241.4727">lift the middle part out of the fastener</text><ellipse cx="140" cy="1285.3027" fill="none" rx="11" ry="11" style="stroke:#222222;stroke-width:1.0;"/><ellipse cx="140" cy="1285.3027" fill="#222222" rx="6" ry="6" style="stroke:#111111;stroke-width:1.0;"/><line style="stroke:#181818;stroke-width:1.0;" x1="140" x2="140" y1="30" y2="50"/><polygon fill="#181818" points="136,40,140,50,144,40,140,44" style="stroke:#181818;stroke-width:1.0;"/><line style="stroke:#181818;stroke-width:1.0;" x1="140" x2="140" y1="83.9688" y2="103.9688"/><polygon fill="#181818" points="136,93.9688,140,103.9688,144,93.9688,140,97.9688" style="stroke:#181818;stroke-width:1.0;"/><line style="stroke:#181818;stroke-width:1.0;" x1="140" x2="140" y1="181.9375" y2="206.3398"/><polygon fill="#181818" points="136,196.3398,140,206.3398,144,196.3398,140,200.3398" style="stroke:#181818;stroke-width:1.0;"/><line style="stroke:#181818;stroke-width:1.0;" x1="196" x2="208" y1="169.9375" y2="169.9375"/><polygon fill="#181818" points="204,210.3242,208,220.3242,212,210.3242,208,214.3242" style="stroke:#181818;stroke-width:1.0;"/><line style="stroke:#181818;stroke-width:1.0;" x1="208" x2="208" y1="169.9375" y2="262.3086"/><line style="stroke:#181818;stroke-width:1.0;" x1="208" x2="140" y1="262.3086" y2="262.3086"/><line style="stroke:#181818;stroke-width:1.0;" x1="140" x2="140" y1="137.9375" y2="157.9375"/><polygon fill="#181818" points="136,147.9375,140,157.9375,144,147.9375,140,151.9375" style="stroke:#181818;stroke-width:1.0;"/><line style="stroke:#181818;stroke-width:1.0;" x1="140" x2="140" y1="262.3086" y2="303.7075"/><polygon fill="#181818" points="136,293.7075,140,303.7075,144,293.7075,140,297.7075" style="stroke:#181818;stroke-width:1.0;"/><text fill="#000000" font-family="sans-serif" font-size="11" lengthAdjust="spacing" textLength="14" x="144" y="283.6133">no</text><line style="stroke:#181818;stroke-width:1.0;" x1="140" x2="140" y1="337.6763" y2="357.6763"/><polygon fill="#181818" points="136,347.6763,140,357.6763,144,347.6763,140,351.6763" style="stroke:#181818;stroke-width:1.0;"/><line style="stroke:#181818;stroke-width:1.0;" x1="140" x2="140" y1="391.645" y2="411.645"/><polygon fill="#181818" points="136,401.645,140,411.645,144,401.645,140,405.645" style="stroke:#181818;stroke-width:1.0;"/><line style="stroke:#181818;stroke-width:1.0;" x1="140" x2="140" y1="489.6138" y2="514.0161"/><polygon fill="#181818" points="136,504.0161,140,514.0161,144,504.0161,140,508.0161" style="stroke:#181818;stroke-width:1.0;"/><line style="stroke:#181818;stroke-width:1.0;" x1="196.5" x2="208.5" y1="477.6138" y2="477.6138"/><polygon fill="#181818" points="204.5,518.0005,208.5,528.0005,212.5,518.0005,208.5,522.0005" style="stroke:#181818;stroke-width:1.0;"/><line style="stroke:#181818;stroke-width:1.0;" x1="208.5" x2="208.5" y1="477.6138" y2="569.9849"/><line style="stroke:#181818;stroke-width:1.0;" x1="208.5" x2="140" y1="569.9849" y2="569.9849"/><line style="stroke:#181818;stroke-width:1.0;" x1="140" x2="140" y1="445.6138" y2="465.6138"/><polygon fill="#181818" points="136,455.6138,140,465.6138,144,455.6138,140,459.6138" style="stroke:#181818;stroke-width:1.0;"/><line style="stroke:#181818;stroke-width:1.0;" x1="140" x2="140" y1="569.9849" y2="611.3838"/><polygon fill="#181818" points="136,601.3838,140,611.3838,144,601.3838,140,605.3838" style="stroke:#181818;stroke-width:1.0;"/><text fill="#000000" font-family="sans-serif" font-size="11" lengthAdjust="spacing" textLength="14" x="144" y="591.2896">no</text><line style="stroke:#181818;stroke-width:1.0;" x1="140" x2="140" y1="645.3525" y2="665.3525"/><polygon fill="#181818" points="136,655.3525,140,665.3525,144,655.3525,140,659.3525" style="stroke:#181818;stroke-width:1.0;"/><line style="stroke:#181818;stroke-width:1.0;" x1="140" x2="140" y1="699.3213" y2="719.3213"/><polygon fill="#181818" points="136,709.3213,140,719.3213,144,709.3213,140,713.3213" style="stroke:#181818;stroke-width:1.0;"/><line style="stroke:#181818;stroke-width:1.0;" x1="140" x2="140" y1="797.29" y2="821.6924"/><polygon fill="#181818" points="136,811.6924,140,821.6924,144,811.6924,140,815.6924" style="stroke:#181818;stroke-width:1.0;"/><line style="stroke:#181818;stroke-width:1.0;" x1="197" x2="209" y1="785.29" y2="785.29"/><polygon fill="#181818" points="205,825.6768,209,835.6768,213,825.6768,209,829.6768" style="stroke:#181818;stroke-width:1.0;"/><line style="stroke:#181818;stroke-width:1.0;" x1="209" x2="209" y1="785.29" y2="877.6611"/><line style="stroke:#181818;stroke-width:1.0;" x1="209" x2="140" y1="877.6611" y2="877.6611"/><line style="stroke:#181818;stroke-width:1.0;" x1="140" x2="140" y1="753.29" y2="773.29"/><polygon fill="#181818" points="136,763.29,140,773.29,144,763.29,140,767.29" style="stroke:#181818;stroke-width:1.0;"/><line style="stroke:#181818;stroke-width:1.0;" x1="140" x2="140" y1="877.6611" y2="919.0601"/><polygon fill="#181818" points="136,909.0601,140,919.0601,144,909.0601,140,913.0601" style="stroke:#181818;stroke-width:1.0;"/><text fill="#000000" font-family="sans-serif" font-size="11" lengthAdjust="spacing" textLength="14" x="144" y="898.9658">no</text><line style="stroke:#181818;stroke-width:1.0;" x1="140" x2="140" y1="953.0288" y2="973.0288"/><polygon fill="#181818" points="136,963.0288,140,973.0288,144,963.0288,140,967.0288" style="stroke:#181818;stroke-width:1.0;"/><line style="stroke:#181818;stroke-width:1.0;" x1="140" x2="140" y1="1006.9976" y2="1026.9976"/><polygon fill="#181818" points="136,1016.9976,140,1026.9976,144,1016.9976,140,1020.9976" style="stroke:#181818;stroke-width:1.0;"/><line style="stroke:#181818;stroke-width:1.0;" x1="140" x2="140" y1="1114.9351" y2="1154.9351"/><polygon fill="#181818" points="136,1144.9351,140,1154.9351,144,1144.9351,140,1148.9351" style="stroke:#181818;stroke-width:1.0;"/><line style="stroke:#181818;stroke-width:1.0;" x1="199" x2="235" y1="1166.9351" y2="1166.9351"/><polygon fill="#181818" points="231,1134.9351,235,1124.9351,239,1134.9351,235,1130.9351" style="stroke:#181818;stroke-width:1.0;"/><line style="stroke:#181818;stroke-width:1.0;" x1="235" x2="235" y1="1097.9507" y2="1166.9351"/><line style="stroke:#181818;stroke-width:1.0;" x1="235" x2="223" y1="1097.9507" y2="1097.9507"/><polygon fill="#181818" points="233,1093.9507,223,1097.9507,233,1101.9507,229,1097.9507" style="stroke:#181818;stroke-width:1.0;"/><line style="stroke:#181818;stroke-width:1.0;" x1="140" x2="140" y1="1060.9663" y2="1080.9663"/><polygon fill="#181818" points="136,1070.9663,140,1080.9663,144,1070.9663,140,1074.9663" style="stroke:#181818;stroke-width:1.0;"/><line style="stroke:#181818;stroke-width:1.0;" x1="140" x2="140" y1="1178.9351" y2="1220.334"/><polygon fill="#181818" points="136,1210.334,140,1220.334,144,1210.334,140,1214.334" style="stroke:#181818;stroke-width:1.0;"/><text fill="#000000" font-family="sans-serif" font-size="11" lengthAdjust="spacing" textLength="20" x="144" y="1200.2397">yes</text><line style="stroke:#181818;stroke-width:1.0;" x1="140" x2="140" y1="1254.3027" y2="1274.3027"/><polygon fill="#181818" points="136,1264.3027,140,1274.3027,144,1264.3027,140,1268.3027" style="stroke:#181818;stroke-width:1.0;"/><!--SRC=[lPAzReKm38Ltdi9I5nYwT0If7U_QLmZ4kLY4E4fSjRnzytEXeCujKtnyvFCv8OeAqa3w-bjG8qpA3xLyjsh2N0CvaBaUZOg23iFGa84sAoj5dvtwhSik1-s6iIiZdZovfGSCWKCTkf2r3JfDfdb-TVn8kZ6CQbf066PU4Jn74c8tdBX6jd81oy9ELivNj2Bz4riWTt_K9Qu8m8cDFR0v42jPQVubMUwUw7BwIbhRP4bl3UDMf1c_rFtOezxfsNR5Bxz5G8zAe0yiIl2uS7W1eHNZOVYSAKrfgqtlxRGfHMWTTscBBTjBiYKZlnZvG_RadsUDYUSR]--></g></svg>