<?xml version="1.0" encoding="us-ascii" standalone="no"?><svg xmlns="http://www.w3.org/2000/svg" xmlns:xlink="http://www.w3.org/1999/xlink" contentStyleType="text/css" height="254px" preserveAspectRatio="none" style="width:203px;height:254px;background:#FFFFFF;" version="1.1" viewBox="0 0 203 254" width="203px" zoomAndPan="magnify"><defs/><g><ellipse cx="87.75" cy="20" fill="#222222" rx="10" ry="10" style="stroke:#222222;stroke-width:1.0;"/><rect fill="#F1F1F1" height="33.9688" rx="12.5" ry="12.5" style="stroke:#181818;stroke-width:0.5;" width="108" x="33.75" y="50"/><text fill="#000000" font-family="sans-serif" font-size="12" lengthAdjust="spacing" textLength="88" x="43.75" y="71.1387">start up robot</text><polygon fill="#F1F1F1" points="68.75,103.9688,106.75,103.9688,118.75,115.9688,106.75,127.9688,68.75,127.9688,56.75,115.9688,68.75,103.9688" style="stroke:#181818;stroke-width:0.5;"/><text fill="#000000" font-family="sans-serif" font-size="11" lengthAdjust="spacing" textLength="38" x="68.75" y="119.7769">ready?</text><text fill="#000000" font-family="sans-serif" font-size="11" lengthAdjust="spacing" textLength="20" x="36.75" y="113.3745">yes</text><text fill="#000000" font-family="sans-serif" font-size="11" lengthAdjust="spacing" textLength="14" x="118.75" y="113.3745">no</text><rect fill="#F1F1F1" height="33.9688" rx="12.5" ry="12.5" style="stroke:#181818;stroke-width:0.5;" width="53" x="11" y="137.9688"/><text fill="#000000" font-family="sans-serif" font-size="12" lengthAdjust="spacing" textLength="33" x="21" y="159.1074">move</text><rect fill="#F1F1F1" height="33.9688" rx="12.5" ry="12.5" style="stroke:#181818;stroke-width:0.5;" width="108" x="84" y="137.9688"/><text fill="#000000" font-family="sans-serif" font-size="12" lengthAdjust="spacing" textLength="88" x="94" y="159.1074">start up robot</text><polygon fill="#F1F1F1" points="87.75,177.9375,99.75,189.9375,87.75,201.9375,75.75,189.9375,87.75,177.9375" style="stroke:#181818;stroke-width:0.5;"/><ellipse cx="87.75" cy="232.9375" fill="none" rx="11" ry="11" style="stroke:#222222;stroke-width:1.0;"/><ellipse cx="87.75" cy="232.9375" fill="#222222" rx="6" ry="6" style="stroke:#111111;stroke-width:1.0;"/><line style="stroke:#181818;stroke-width:1.0;" x1="87.75" x2="87.75" y1="30" y2="50"/><polygon fill="#181818" points="83.75,40,87.75,50,91.75,40,87.75,44" style="stroke:#181818;stroke-width:1.0;"/><line style="stroke:#181818;stroke-width:1.0;" x1="56.75" x2="37.5" y1="115.9688" y2="115.9688"/><line style="stroke:#181818;stroke-width:1.0;" x1="37.5" x2="37.5" y1="115.9688" y2="137.9688"/><polygon fill="#181818" points="33.5,127.9688,37.5,137.9688,41.5,127.9688,37.5,131.9688" style="stroke:#181818;stroke-width:1.0;"/><line style="stroke:#181818;stroke-width:1.0;" x1="118.75" x2="138" y1="115.9688" y2="115.9688"/><line style="stroke:#181818;stroke-width:1.0;" x1="138" x2="138" y1="115.9688" y2="137.9688"/><polygon fill="#181818" points="134,127.9688,138,137.9688,142,127.9688,138,131.9688" style="stroke:#181818;stroke-width:1.0;"/><line style="stroke:#181818;stroke-width:1.0;" x1="37.5" x2="37.5" y1="171.9375" y2="189.9375"/><line style="stroke:#181818;stroke-width:1.0;" x1="37.5" x2="75.75" y1="189.9375" y2="189.9375"/><polygon fill="#181818" points="65.75,185.9375,75.75,189.9375,65.75,193.9375,69.75,189.9375" style="stroke:#181818;stroke-width:1.0;"/><line style="stroke:#181818;stroke-width:1.0;" x1="138" x2="138" y1="171.9375" y2="189.9375"/><line style="stroke:#181818;stroke-width:1.0;" x1="138" x2="99.75" y1="189.9375" y2="189.9375"/><polygon fill="#181818" points="109.75,185.9375,99.75,189.9375,109.75,193.9375,105.75,189.9375" style="stroke:#181818;stroke-width:1.0;"/><line style="stroke:#181818;stroke-width:1.0;" x1="87.75" x2="87.75" y1="83.9688" y2="103.9688"/><polygon fill="#181818" points="83.75,93.9688,87.75,103.9688,91.75,93.9688,87.75,97.9688" style="stroke:#181818;stroke-width:1.0;"/><line style="stroke:#181818;stroke-width:1.0;" x1="87.75" x2="87.75" y1="201.9375" y2="221.9375"/><polygon fill="#181818" points="83.75,211.9375,87.75,221.9375,91.75,211.9375,87.75,215.9375" style="stroke:#181818;stroke-width:1.0;"/><!--SRC=[Aov9B2hXiYe6KGgb1Gf5-Kdv9TPScMaA6aMfYIcLzfeA9HcfUGeQbQd5cbmA2bQv-MMfrbofESMf2Xfv-M0XTCsfUIcPQLnSnINv1G00]--></g></svg>