<?xml version="1.0" encoding="us-ascii" standalone="no"?><svg xmlns="http://www.w3.org/2000/svg" xmlns:xlink="http://www.w3.org/1999/xlink" contentStyleType="text/css" height="369px" preserveAspectRatio="none" style="width:227px;height:369px;background:#FFFFFF;" version="1.1" viewBox="0 0 227 369" width="227px" zoomAndPan="magnify"><defs/><g><ellipse cx="113.5" cy="20" fill="#222222" rx="10" ry="10" style="stroke:#222222;stroke-width:1.0;"/><rect fill="#F1F1F1" height="33.9688" rx="12.5" ry="12.5" style="stroke:#181818;stroke-width:0.5;" width="77" x="75" y="50"/><text fill="#000000" font-family="sans-serif" font-size="12" lengthAdjust="spacing" textLength="57" x="85" y="71.1387">Grab cap</text><rect fill="#F1F1F1" height="33.9688" rx="12.5" ry="12.5" style="stroke:#181818;stroke-width:0.5;" width="205" x="11" y="103.9688"/><text fill="#000000" font-family="sans-serif" font-size="12" lengthAdjust="spacing" textLength="185" x="21" y="125.1074">Place cap in the cap fastener</text><rect fill="#FFC0CB" height="33.9688" rx="12.5" ry="12.5" style="stroke:#181818;stroke-width:0.5;" width="55" x="86" y="206.3398"/><text fill="#000000" font-family="sans-serif" font-size="12" lengthAdjust="spacing" textLength="31" x="100" y="227.4785">error</text><polygon fill="#F1F1F1" points="69.5,157.9375,157.5,157.9375,169.5,169.9375,157.5,181.9375,69.5,181.9375,57.5,169.9375,69.5,157.9375" style="stroke:#181818;stroke-width:0.5;"/><text fill="#000000" font-family="sans-serif" font-size="11" lengthAdjust="spacing" textLength="20" x="117.5" y="192.1479">yes</text><text fill="#000000" font-family="sans-serif" font-size="11" lengthAdjust="spacing" textLength="88" x="69.5" y="173.7456">cap misplaced?</text><rect fill="#F1F1F1" height="33.9688" rx="12.5" ry="12.5" style="stroke:#181818;stroke-width:0.5;" width="50" x="88.5" y="282.3086"/><text fill="#000000" font-family="sans-serif" font-size="12" lengthAdjust="spacing" textLength="30" x="98.5" y="303.4473">&gt; no</text><ellipse cx="113.5" cy="347.2773" fill="none" rx="11" ry="11" style="stroke:#222222;stroke-width:1.0;"/><ellipse cx="113.5" cy="347.2773" fill="#222222" rx="6" ry="6" style="stroke:#111111;stroke-width:1.0;"/><line style="stroke:#181818;stroke-width:1.0;" x1="113.5" x2="113.5" y1="30" y2="50"/><polygon fill="#181818" points="109.5,40,113.5,50,117.5,40,113.5,44" style="stroke:#181818;stroke-width:1.0;"/><line style="stroke:#181818;stroke-width:1.0;" x1="113.5" x2="113.5" y1="83.9688" y2="103.9688"/><polygon fill="#181818" points="109.5,93.9688,113.5,103.9688,117.5,93.9688,113.5,97.9688" style="stroke:#181818;stroke-width:1.0;"/><line style="stroke:#181818;stroke-width:1.0;" x1="113.5" x2="113.5" y1="181.9375" y2="206.3398"/><polygon fill="#181818" points="109.5,196.3398,113.5,206.3398,117.5,196.3398,113.5,200.3398" style="stroke:#181818;stroke-width:1.0;"/><line style="stroke:#181818;stroke-width:1.0;" x1="169.5" x2="181.5" y1="169.9375" y2="169.9375"/><polygon fill="#181818" points="177.5,210.3242,181.5,220.3242,185.5,210.3242,181.5,214.3242" style="stroke:#181818;stroke-width:1.0;"/><line style="stroke:#181818;stroke-width:1.0;" x1="181.5" x2="181.5" y1="169.9375" y2="262.3086"/><line style="stroke:#181818;stroke-width:1.0;" x1="181.5" x2="113.5" y1="262.3086" y2="262.3086"/><line style="stroke:#181818;stroke-width:1.0;" x1="113.5" x2="113.5" y1="262.3086" y2="282.3086"/><polygon fill="#181818" points="109.5,272.3086,113.5,282.3086,117.5,272.3086,113.5,276.3086" style="stroke:#181818;stroke-width:1.0;"/><line style="stroke:#181818;stroke-width:1.0;" x1="113.5" x2="113.5" y1="137.9375" y2="157.9375"/><polygon fill="#181818" points="109.5,147.9375,113.5,157.9375,117.5,147.9375,113.5,151.9375" style="stroke:#181818;stroke-width:1.0;"/><line style="stroke:#181818;stroke-width:1.0;" x1="113.5" x2="113.5" y1="316.2773" y2="336.2773"/><polygon fill="#181818" points="109.5,326.2773,113.5,336.2773,117.5,326.2773,113.5,330.2773" style="stroke:#181818;stroke-width:1.0;"/><!--SRC=[9Omn3eD030Hxly9I6YZu04X9cPOlEE0J5XVVoNQJtuVZjjfTZSQ3B02lp6-Z3svKbpxNJ1ktZQ8OHw-9F5ZP5f24Gtk-uhMH-sjibEBmOnzlnQEAdZEoMR4kFILdODqbmVH4BG0UfVu1]--></g></svg>