<?xml version="1.0" encoding="us-ascii" standalone="no"?><svg xmlns="http://www.w3.org/2000/svg" xmlns:xlink="http://www.w3.org/1999/xlink" contentStyleType="text/css" height="2665px" preserveAspectRatio="none" style="width:322px;height:2665px;background:#FFFFFF;" version="1.1" viewBox="0 0 322 2665" width="322px" zoomAndPan="magnify"><defs/><g><ellipse cx="161" cy="20" fill="#222222" rx="10" ry="10" style="stroke:#222222;stroke-width:1.0;"/><rect fill="#F1F1F1" height="33.9688" rx="12.5" ry="12.5" style="stroke:#181818;stroke-width:0.5;" width="147" x="87.5" y="50"/><text fill="#000000" font-family="sans-serif" font-size="12" lengthAdjust="spacing" textLength="127" x="97.5" y="71.1387">Go to home position</text><rect fill="#F1F1F1" height="33.9688" rx="12.5" ry="12.5" style="stroke:#181818;stroke-width:0.5;" width="77" x="122.5" y="103.9688"/><text fill="#000000" font-family="sans-serif" font-size="12" lengthAdjust="spacing" textLength="57" x="132.5" y="125.1074">Grab cap</text><rect fill="#F1F1F1" height="33.9688" rx="12.5" ry="12.5" style="stroke:#181818;stroke-width:0.5;" width="205" x="58.5" y="157.9375"/><text fill="#000000" font-family="sans-serif" font-size="12" lengthAdjust="spacing" textLength="185" x="68.5" y="179.0762">Place cap in the cap fastener</text><rect fill="#FFC0CB" height="33.9688" rx="12.5" ry="12.5" style="stroke:#181818;stroke-width:0.5;" width="55" x="133.5" y="260.3086"/><text fill="#000000" font-family="sans-serif" font-size="12" lengthAdjust="spacing" textLength="31" x="147.5" y="281.4473">error</text><polygon fill="#F1F1F1" points="117,211.9063,205,211.9063,217,223.9063,205,235.9063,117,235.9063,105,223.9063,117,211.9063" style="stroke:#181818;stroke-width:0.5;"/><text fill="#000000" font-family="sans-serif" font-size="11" lengthAdjust="spacing" textLength="20" x="165" y="246.1167">yes</text><text fill="#000000" font-family="sans-serif" font-size="11" lengthAdjust="spacing" textLength="88" x="117" y="227.7144">cap misplaced?</text><rect fill="#F1F1F1" height="33.9688" rx="12.5" ry="12.5" style="stroke:#181818;stroke-width:0.5;" width="147" x="87.5" y="357.6763"/><text fill="#000000" font-family="sans-serif" font-size="12" lengthAdjust="spacing" textLength="127" x="97.5" y="378.8149">Go to home position</text><rect fill="#F1F1F1" height="33.9688" rx="12.5" ry="12.5" style="stroke:#181818;stroke-width:0.5;" width="78" x="122" y="411.645"/><text fill="#000000" font-family="sans-serif" font-size="12" lengthAdjust="spacing" textLength="58" x="132" y="432.7837">Grab bolt</text><rect fill="#F1F1F1" height="33.9688" rx="12.5" ry="12.5" style="stroke:#181818;stroke-width:0.5;" width="207" x="57.5" y="465.6138"/><text fill="#000000" font-family="sans-serif" font-size="12" lengthAdjust="spacing" textLength="187" x="67.5" y="486.7524">Place bolt in the bolt fastener</text><rect fill="#FFC0CB" height="33.9688" rx="12.5" ry="12.5" style="stroke:#181818;stroke-width:0.5;" width="55" x="133.5" y="567.9849"/><text fill="#000000" font-family="sans-serif" font-size="12" lengthAdjust="spacing" textLength="31" x="147.5" y="589.1235">error</text><polygon fill="#F1F1F1" points="116.5,519.5825,205.5,519.5825,217.5,531.5825,205.5,543.5825,116.5,543.5825,104.5,531.5825,116.5,519.5825" style="stroke:#181818;stroke-width:0.5;"/><text fill="#000000" font-family="sans-serif" font-size="11" lengthAdjust="spacing" textLength="20" x="165" y="553.793">yes</text><text fill="#000000" font-family="sans-serif" font-size="11" lengthAdjust="spacing" textLength="89" x="116.5" y="535.3906">bolt misplaced?</text><rect fill="#F1F1F1" height="33.9688" rx="12.5" ry="12.5" style="stroke:#181818;stroke-width:0.5;" width="147" x="87.5" y="665.3525"/><text fill="#000000" font-family="sans-serif" font-size="12" lengthAdjust="spacing" textLength="127" x="97.5" y="686.4912">Go to home position</text><rect fill="#F1F1F1" height="33.9688" rx="12.5" ry="12.5" style="stroke:#181818;stroke-width:0.5;" width="78" x="122" y="719.3213"/><text fill="#000000" font-family="sans-serif" font-size="12" lengthAdjust="spacing" textLength="58" x="132" y="740.46">Grab ring</text><rect fill="#F1F1F1" height="33.9688" rx="12.5" ry="12.5" style="stroke:#181818;stroke-width:0.5;" width="196" x="63" y="773.29"/><text fill="#000000" font-family="sans-serif" font-size="12" lengthAdjust="spacing" textLength="176" x="73" y="794.4287">Place ring on top of the bolt</text><rect fill="#FFC0CB" height="33.9688" rx="12.5" ry="12.5" style="stroke:#181818;stroke-width:0.5;" width="55" x="133.5" y="875.6611"/><text fill="#000000" font-family="sans-serif" font-size="12" lengthAdjust="spacing" textLength="31" x="147.5" y="896.7998">error</text><polygon fill="#F1F1F1" points="116,827.2588,206,827.2588,218,839.2588,206,851.2588,116,851.2588,104,839.2588,116,827.2588" style="stroke:#181818;stroke-width:0.5;"/><text fill="#000000" font-family="sans-serif" font-size="11" lengthAdjust="spacing" textLength="20" x="165" y="861.4692">yes</text><text fill="#000000" font-family="sans-serif" font-size="11" lengthAdjust="spacing" textLength="90" x="116" y="843.0669">ring misplaced?</text><rect fill="#F1F1F1" height="33.9688" rx="12.5" ry="12.5" style="stroke:#181818;stroke-width:0.5;" width="147" x="87.5" y="973.0288"/><text fill="#000000" font-family="sans-serif" font-size="12" lengthAdjust="spacing" textLength="127" x="97.5" y="994.1675">Go to home position</text><rect fill="#F1F1F1" height="33.9688" rx="12.5" ry="12.5" style="stroke:#181818;stroke-width:0.5;" width="75" x="123.5" y="1026.9976"/><text fill="#000000" font-family="sans-serif" font-size="12" lengthAdjust="spacing" textLength="55" x="133.5" y="1048.1362">Grab nut</text><rect fill="#F1F1F1" height="33.9688" rx="12.5" ry="12.5" style="stroke:#181818;stroke-width:0.5;" width="201" x="60.5" y="1080.9663"/><text fill="#000000" font-family="sans-serif" font-size="12" lengthAdjust="spacing" textLength="181" x="70.5" y="1102.105">Place nut in the nut fastener</text><rect fill="#FFC0CB" height="33.9688" rx="12.5" ry="12.5" style="stroke:#181818;stroke-width:0.5;" width="55" x="133.5" y="1183.3374"/><text fill="#000000" font-family="sans-serif" font-size="12" lengthAdjust="spacing" textLength="31" x="147.5" y="1204.4761">error</text><polygon fill="#F1F1F1" points="121.5,1134.9351,200.5,1134.9351,212.5,1146.9351,200.5,1158.9351,121.5,1158.9351,109.5,1146.9351,121.5,1134.9351" style="stroke:#181818;stroke-width:0.5;"/><text fill="#000000" font-family="sans-serif" font-size="11" lengthAdjust="spacing" textLength="20" x="165" y="1169.1455">yes</text><text fill="#000000" font-family="sans-serif" font-size="11" lengthAdjust="spacing" textLength="79" x="121.5" y="1150.7432">nut misplace?</text><rect fill="#F1F1F1" height="33.9688" rx="12.5" ry="12.5" style="stroke:#181818;stroke-width:0.5;" width="147" x="87.5" y="1280.7051"/><text fill="#000000" font-family="sans-serif" font-size="12" lengthAdjust="spacing" textLength="127" x="97.5" y="1301.8438">Go to home position</text><rect fill="#F1F1F1" height="33.9688" rx="12.5" ry="12.5" style="stroke:#181818;stroke-width:0.5;" width="102" x="110" y="1334.6738"/><text fill="#000000" font-family="sans-serif" font-size="12" lengthAdjust="spacing" textLength="82" x="120" y="1355.8125">Grab plunger</text><rect fill="#F1F1F1" height="33.9688" rx="12.5" ry="12.5" style="stroke:#181818;stroke-width:0.5;" width="210" x="56" y="1388.6426"/><text fill="#000000" font-family="sans-serif" font-size="12" lengthAdjust="spacing" textLength="190" x="66" y="1409.7813">Place plunger through the nut</text><rect fill="#FFC0CB" height="33.9688" rx="12.5" ry="12.5" style="stroke:#181818;stroke-width:0.5;" width="55" x="133.5" y="1491.0137"/><text fill="#000000" font-family="sans-serif" font-size="12" lengthAdjust="spacing" textLength="31" x="147.5" y="1512.1523">error</text><polygon fill="#F1F1F1" points="105.5,1442.6113,216.5,1442.6113,228.5,1454.6113,216.5,1466.6113,105.5,1466.6113,93.5,1454.6113,105.5,1442.6113" style="stroke:#181818;stroke-width:0.5;"/><text fill="#000000" font-family="sans-serif" font-size="11" lengthAdjust="spacing" textLength="20" x="165" y="1476.8218">yes</text><text fill="#000000" font-family="sans-serif" font-size="11" lengthAdjust="spacing" textLength="111" x="105.5" y="1458.4194">plunger misplaced?</text><rect fill="#F1F1F1" height="33.9688" rx="12.5" ry="12.5" style="stroke:#181818;stroke-width:0.5;" width="147" x="87.5" y="1566.9824"/><text fill="#000000" font-family="sans-serif" font-size="12" lengthAdjust="spacing" textLength="127" x="97.5" y="1588.1211">Go to home position</text><rect fill="#F1F1F1" height="33.9688" rx="12.5" ry="12.5" style="stroke:#181818;stroke-width:0.5;" width="251" x="35.5" y="1620.9512"/><text fill="#000000" font-family="sans-serif" font-size="12" lengthAdjust="spacing" textLength="231" x="45.5" y="1642.0898">Grab the middle part by the hexagon</text><rect fill="#F1F1F1" height="33.9688" rx="12.5" ry="12.5" style="stroke:#181818;stroke-width:0.5;" width="242" x="40" y="1674.9199"/><text fill="#000000" font-family="sans-serif" font-size="12" lengthAdjust="spacing" textLength="222" x="50" y="1696.0586">Place middle part on top of the cap</text><rect fill="#F1F1F1" height="33.9688" rx="12.5" ry="12.5" style="stroke:#181818;stroke-width:0.5;" width="200" x="61" y="1728.8887"/><text fill="#000000" font-family="sans-serif" font-size="12" lengthAdjust="spacing" textLength="180" x="71" y="1750.0273">rotate fastener 360 degrees</text><polygon fill="#F1F1F1" points="114,1802.8574,208,1802.8574,220,1814.8574,208,1826.8574,114,1826.8574,102,1814.8574,114,1802.8574" style="stroke:#181818;stroke-width:0.5;"/><text fill="#000000" font-family="sans-serif" font-size="11" lengthAdjust="spacing" textLength="94" x="114" y="1818.6655">rotated 2 times?</text><text fill="#000000" font-family="sans-serif" font-size="11" lengthAdjust="spacing" textLength="14" x="220" y="1812.2632">no</text><rect fill="#F1F1F1" height="33.9688" rx="12.5" ry="12.5" style="stroke:#181818;stroke-width:0.5;" width="285" x="18.5" y="1868.2563"/><text fill="#000000" font-family="sans-serif" font-size="12" lengthAdjust="spacing" textLength="265" x="28.5" y="1889.395">lift the middle part out of the cap fastener</text><rect fill="#F1F1F1" height="33.9688" rx="12.5" ry="12.5" style="stroke:#181818;stroke-width:0.5;" width="142" x="90" y="1922.2251"/><text fill="#000000" font-family="sans-serif" font-size="12" lengthAdjust="spacing" textLength="122" x="100" y="1943.3638">Go o home position</text><rect fill="#F1F1F1" height="33.9688" rx="12.5" ry="12.5" style="stroke:#181818;stroke-width:0.5;" width="299" x="11.5" y="1976.1938"/><text fill="#000000" font-family="sans-serif" font-size="12" lengthAdjust="spacing" textLength="279" x="21.5" y="1997.3325">Rotate middle part 180 degrees in the x-axis</text><rect fill="#F1F1F1" height="33.9688" rx="12.5" ry="12.5" style="stroke:#181818;stroke-width:0.5;" width="300" x="11" y="2030.1626"/><text fill="#000000" font-family="sans-serif" font-size="12" lengthAdjust="spacing" textLength="280" x="21" y="2051.3013">Place middle part on top of the bolt fastener</text><rect fill="#F1F1F1" height="33.9688" rx="12.5" ry="12.5" style="stroke:#181818;stroke-width:0.5;" width="200" x="61" y="2084.1313"/><text fill="#000000" font-family="sans-serif" font-size="12" lengthAdjust="spacing" textLength="180" x="71" y="2105.27">rotate fastener 360 degrees</text><polygon fill="#F1F1F1" points="114,2158.1001,208,2158.1001,220,2170.1001,208,2182.1001,114,2182.1001,102,2170.1001,114,2158.1001" style="stroke:#181818;stroke-width:0.5;"/><text fill="#000000" font-family="sans-serif" font-size="11" lengthAdjust="spacing" textLength="94" x="114" y="2173.9082">rotated 5 times?</text><text fill="#000000" font-family="sans-serif" font-size="11" lengthAdjust="spacing" textLength="14" x="220" y="2167.5059">no</text><rect fill="#F1F1F1" height="33.9688" rx="12.5" ry="12.5" style="stroke:#181818;stroke-width:0.5;" width="286" x="18" y="2223.499"/><text fill="#000000" font-family="sans-serif" font-size="12" lengthAdjust="spacing" textLength="266" x="28" y="2244.6377">lift the middle part out of the bolt fastener</text><rect fill="#F1F1F1" height="33.9688" rx="12.5" ry="12.5" style="stroke:#181818;stroke-width:0.5;" width="147" x="87.5" y="2277.4678"/><text fill="#000000" font-family="sans-serif" font-size="12" lengthAdjust="spacing" textLength="127" x="97.5" y="2298.6064">Go to home position</text><rect fill="#F1F1F1" height="33.9688" rx="12.5" ry="12.5" style="stroke:#181818;stroke-width:0.5;" width="295" x="13.5" y="2331.4365"/><text fill="#000000" font-family="sans-serif" font-size="12" lengthAdjust="spacing" textLength="275" x="23.5" y="2352.5752">Rotate middle part -90 degrees in the x-axis</text><rect fill="#F1F1F1" height="33.9688" rx="12.5" ry="12.5" style="stroke:#181818;stroke-width:0.5;" width="240" x="41" y="2385.4053"/><text fill="#000000" font-family="sans-serif" font-size="12" lengthAdjust="spacing" textLength="220" x="51" y="2406.5439">Place middle part on top of the nut</text><rect fill="#F1F1F1" height="33.9688" rx="12.5" ry="12.5" style="stroke:#181818;stroke-width:0.5;" width="200" x="61" y="2439.374"/><text fill="#000000" font-family="sans-serif" font-size="12" lengthAdjust="spacing" textLength="180" x="71" y="2460.5127">rotate fastener 360 degrees</text><polygon fill="#F1F1F1" points="114,2513.3428,208,2513.3428,220,2525.3428,208,2537.3428,114,2537.3428,102,2525.3428,114,2513.3428" style="stroke:#181818;stroke-width:0.5;"/><text fill="#000000" font-family="sans-serif" font-size="11" lengthAdjust="spacing" textLength="94" x="114" y="2529.1509">rotated 2 times?</text><text fill="#000000" font-family="sans-serif" font-size="11" lengthAdjust="spacing" textLength="14" x="220" y="2522.7485">no</text><rect fill="#F1F1F1" height="33.9688" rx="12.5" ry="12.5" style="stroke:#181818;stroke-width:0.5;" width="147" x="87.5" y="2578.7417"/><text fill="#000000" font-family="sans-serif" font-size="12" lengthAdjust="spacing" textLength="127" x="97.5" y="2599.8804">Go to home position</text><ellipse cx="161" cy="2643.7104" fill="none" rx="11" ry="11" style="stroke:#222222;stroke-width:1.0;"/><ellipse cx="161" cy="2643.7104" fill="#222222" rx="6" ry="6" style="stroke:#111111;stroke-width:1.0;"/><line style="stroke:#181818;stroke-width:1.0;" x1="161" x2="161" y1="30" y2="50"/><polygon fill="#181818" points="157,40,161,50,165,40,161,44" style="stroke:#181818;stroke-width:1.0;"/><line style="stroke:#181818;stroke-width:1.0;" x1="161" x2="161" y1="83.9688" y2="103.9688"/><polygon fill="#181818" points="157,93.9688,161,103.9688,165,93.9688,161,97.9688" style="stroke:#181818;stroke-width:1.0;"/><line style="stroke:#181818;stroke-width:1.0;" x1="161" x2="161" y1="137.9375" y2="157.9375"/><polygon fill="#181818" points="157,147.9375,161,157.9375,165,147.9375,161,151.9375" style="stroke:#181818;stroke-width:1.0;"/><line style="stroke:#181818;stroke-width:1.0;" x1="161" x2="161" y1="235.9063" y2="260.3086"/><polygon fill="#181818" points="157,250.3086,161,260.3086,165,250.3086,161,254.3086" style="stroke:#181818;stroke-width:1.0;"/><line style="stroke:#181818;stroke-width:1.0;" x1="217" x2="229" y1="223.9063" y2="223.9063"/><polygon fill="#181818" points="225,264.293,229,274.293,233,264.293,229,268.293" style="stroke:#181818;stroke-width:1.0;"/><line style="stroke:#181818;stroke-width:1.0;" x1="229" x2="229" y1="223.9063" y2="316.2773"/><line style="stroke:#181818;stroke-width:1.0;" x1="229" x2="161" y1="316.2773" y2="316.2773"/><line style="stroke:#181818;stroke-width:1.0;" x1="161" x2="161" y1="191.9063" y2="211.9063"/><polygon fill="#181818" points="157,201.9063,161,211.9063,165,201.9063,161,205.9063" style="stroke:#181818;stroke-width:1.0;"/><line style="stroke:#181818;stroke-width:1.0;" x1="161" x2="161" y1="316.2773" y2="357.6763"/><polygon fill="#181818" points="157,347.6763,161,357.6763,165,347.6763,161,351.6763" style="stroke:#181818;stroke-width:1.0;"/><text fill="#000000" font-family="sans-serif" font-size="11" lengthAdjust="spacing" textLength="14" x="165" y="337.582">no</text><line style="stroke:#181818;stroke-width:1.0;" x1="161" x2="161" y1="391.645" y2="411.645"/><polygon fill="#181818" points="157,401.645,161,411.645,165,401.645,161,405.645" style="stroke:#181818;stroke-width:1.0;"/><line style="stroke:#181818;stroke-width:1.0;" x1="161" x2="161" y1="445.6138" y2="465.6138"/><polygon fill="#181818" points="157,455.6138,161,465.6138,165,455.6138,161,459.6138" style="stroke:#181818;stroke-width:1.0;"/><line style="stroke:#181818;stroke-width:1.0;" x1="161" x2="161" y1="543.5825" y2="567.9849"/><polygon fill="#181818" points="157,557.9849,161,567.9849,165,557.9849,161,561.9849" style="stroke:#181818;stroke-width:1.0;"/><line style="stroke:#181818;stroke-width:1.0;" x1="217.5" x2="229.5" y1="531.5825" y2="531.5825"/><polygon fill="#181818" points="225.5,571.9692,229.5,581.9692,233.5,571.9692,229.5,575.9692" style="stroke:#181818;stroke-width:1.0;"/><line style="stroke:#181818;stroke-width:1.0;" x1="229.5" x2="229.5" y1="531.5825" y2="623.9536"/><line style="stroke:#181818;stroke-width:1.0;" x1="229.5" x2="161" y1="623.9536" y2="623.9536"/><line style="stroke:#181818;stroke-width:1.0;" x1="161" x2="161" y1="499.5825" y2="519.5825"/><polygon fill="#181818" points="157,509.5825,161,519.5825,165,509.5825,161,513.5825" style="stroke:#181818;stroke-width:1.0;"/><line style="stroke:#181818;stroke-width:1.0;" x1="161" x2="161" y1="623.9536" y2="665.3525"/><polygon fill="#181818" points="157,655.3525,161,665.3525,165,655.3525,161,659.3525" style="stroke:#181818;stroke-width:1.0;"/><text fill="#000000" font-family="sans-serif" font-size="11" lengthAdjust="spacing" textLength="14" x="165" y="645.2583">no</text><line style="stroke:#181818;stroke-width:1.0;" x1="161" x2="161" y1="699.3213" y2="719.3213"/><polygon fill="#181818" points="157,709.3213,161,719.3213,165,709.3213,161,713.3213" style="stroke:#181818;stroke-width:1.0;"/><line style="stroke:#181818;stroke-width:1.0;" x1="161" x2="161" y1="753.29" y2="773.29"/><polygon fill="#181818" points="157,763.29,161,773.29,165,763.29,161,767.29" style="stroke:#181818;stroke-width:1.0;"/><line style="stroke:#181818;stroke-width:1.0;" x1="161" x2="161" y1="851.2588" y2="875.6611"/><polygon fill="#181818" points="157,865.6611,161,875.6611,165,865.6611,161,869.6611" style="stroke:#181818;stroke-width:1.0;"/><line style="stroke:#181818;stroke-width:1.0;" x1="218" x2="230" y1="839.2588" y2="839.2588"/><polygon fill="#181818" points="226,879.6455,230,889.6455,234,879.6455,230,883.6455" style="stroke:#181818;stroke-width:1.0;"/><line style="stroke:#181818;stroke-width:1.0;" x1="230" x2="230" y1="839.2588" y2="931.6299"/><line style="stroke:#181818;stroke-width:1.0;" x1="230" x2="161" y1="931.6299" y2="931.6299"/><line style="stroke:#181818;stroke-width:1.0;" x1="161" x2="161" y1="807.2588" y2="827.2588"/><polygon fill="#181818" points="157,817.2588,161,827.2588,165,817.2588,161,821.2588" style="stroke:#181818;stroke-width:1.0;"/><line style="stroke:#181818;stroke-width:1.0;" x1="161" x2="161" y1="931.6299" y2="973.0288"/><polygon fill="#181818" points="157,963.0288,161,973.0288,165,963.0288,161,967.0288" style="stroke:#181818;stroke-width:1.0;"/><text fill="#000000" font-family="sans-serif" font-size="11" lengthAdjust="spacing" textLength="14" x="165" y="952.9346">no</text><line style="stroke:#181818;stroke-width:1.0;" x1="161" x2="161" y1="1006.9976" y2="1026.9976"/><polygon fill="#181818" points="157,1016.9976,161,1026.9976,165,1016.9976,161,1020.9976" style="stroke:#181818;stroke-width:1.0;"/><line style="stroke:#181818;stroke-width:1.0;" x1="161" x2="161" y1="1060.9663" y2="1080.9663"/><polygon fill="#181818" points="157,1070.9663,161,1080.9663,165,1070.9663,161,1074.9663" style="stroke:#181818;stroke-width:1.0;"/><line style="stroke:#181818;stroke-width:1.0;" x1="161" x2="161" y1="1158.9351" y2="1183.3374"/><polygon fill="#181818" points="157,1173.3374,161,1183.3374,165,1173.3374,161,1177.3374" style="stroke:#181818;stroke-width:1.0;"/><line style="stroke:#181818;stroke-width:1.0;" x1="212.5" x2="224.5" y1="1146.9351" y2="1146.9351"/><polygon fill="#181818" points="220.5,1187.3218,224.5,1197.3218,228.5,1187.3218,224.5,1191.3218" style="stroke:#181818;stroke-width:1.0;"/><line style="stroke:#181818;stroke-width:1.0;" x1="224.5" x2="224.5" y1="1146.9351" y2="1239.3062"/><line style="stroke:#181818;stroke-width:1.0;" x1="224.5" x2="161" y1="1239.3062" y2="1239.3062"/><line style="stroke:#181818;stroke-width:1.0;" x1="161" x2="161" y1="1114.9351" y2="1134.9351"/><polygon fill="#181818" points="157,1124.9351,161,1134.9351,165,1124.9351,161,1128.9351" style="stroke:#181818;stroke-width:1.0;"/><line style="stroke:#181818;stroke-width:1.0;" x1="161" x2="161" y1="1239.3062" y2="1280.7051"/><polygon fill="#181818" points="157,1270.7051,161,1280.7051,165,1270.7051,161,1274.7051" style="stroke:#181818;stroke-width:1.0;"/><text fill="#000000" font-family="sans-serif" font-size="11" lengthAdjust="spacing" textLength="14" x="165" y="1260.6108">no</text><line style="stroke:#181818;stroke-width:1.0;" x1="161" x2="161" y1="1314.6738" y2="1334.6738"/><polygon fill="#181818" points="157,1324.6738,161,1334.6738,165,1324.6738,161,1328.6738" style="stroke:#181818;stroke-width:1.0;"/><line style="stroke:#181818;stroke-width:1.0;" x1="161" x2="161" y1="1368.6426" y2="1388.6426"/><polygon fill="#181818" points="157,1378.6426,161,1388.6426,165,1378.6426,161,1382.6426" style="stroke:#181818;stroke-width:1.0;"/><line style="stroke:#181818;stroke-width:1.0;" x1="161" x2="161" y1="1466.6113" y2="1491.0137"/><polygon fill="#181818" points="157,1481.0137,161,1491.0137,165,1481.0137,161,1485.0137" style="stroke:#181818;stroke-width:1.0;"/><line style="stroke:#181818;stroke-width:1.0;" x1="228.5" x2="240.5" y1="1454.6113" y2="1454.6113"/><polygon fill="#181818" points="236.5,1494.998,240.5,1504.998,244.5,1494.998,240.5,1498.998" style="stroke:#181818;stroke-width:1.0;"/><line style="stroke:#181818;stroke-width:1.0;" x1="240.5" x2="240.5" y1="1454.6113" y2="1546.9824"/><line style="stroke:#181818;stroke-width:1.0;" x1="240.5" x2="161" y1="1546.9824" y2="1546.9824"/><line style="stroke:#181818;stroke-width:1.0;" x1="161" x2="161" y1="1546.9824" y2="1566.9824"/><polygon fill="#181818" points="157,1556.9824,161,1566.9824,165,1556.9824,161,1560.9824" style="stroke:#181818;stroke-width:1.0;"/><line style="stroke:#181818;stroke-width:1.0;" x1="161" x2="161" y1="1422.6113" y2="1442.6113"/><polygon fill="#181818" points="157,1432.6113,161,1442.6113,165,1432.6113,161,1436.6113" style="stroke:#181818;stroke-width:1.0;"/><line style="stroke:#181818;stroke-width:1.0;" x1="161" x2="161" y1="1600.9512" y2="1620.9512"/><polygon fill="#181818" points="157,1610.9512,161,1620.9512,165,1610.9512,161,1614.9512" style="stroke:#181818;stroke-width:1.0;"/><line style="stroke:#181818;stroke-width:1.0;" x1="161" x2="161" y1="1654.9199" y2="1674.9199"/><polygon fill="#181818" points="157,1664.9199,161,1674.9199,165,1664.9199,161,1668.9199" style="stroke:#181818;stroke-width:1.0;"/><line style="stroke:#181818;stroke-width:1.0;" x1="161" x2="161" y1="1762.8574" y2="1802.8574"/><polygon fill="#181818" points="157,1792.8574,161,1802.8574,165,1792.8574,161,1796.8574" style="stroke:#181818;stroke-width:1.0;"/><line style="stroke:#181818;stroke-width:1.0;" x1="220" x2="273" y1="1814.8574" y2="1814.8574"/><polygon fill="#181818" points="269,1782.8574,273,1772.8574,277,1782.8574,273,1778.8574" style="stroke:#181818;stroke-width:1.0;"/><line style="stroke:#181818;stroke-width:1.0;" x1="273" x2="273" y1="1745.873" y2="1814.8574"/><line style="stroke:#181818;stroke-width:1.0;" x1="273" x2="261" y1="1745.873" y2="1745.873"/><polygon fill="#181818" points="271,1741.873,261,1745.873,271,1749.873,267,1745.873" style="stroke:#181818;stroke-width:1.0;"/><line style="stroke:#181818;stroke-width:1.0;" x1="161" x2="161" y1="1708.8887" y2="1728.8887"/><polygon fill="#181818" points="157,1718.8887,161,1728.8887,165,1718.8887,161,1722.8887" style="stroke:#181818;stroke-width:1.0;"/><line style="stroke:#181818;stroke-width:1.0;" x1="161" x2="161" y1="1826.8574" y2="1868.2563"/><polygon fill="#181818" points="157,1858.2563,161,1868.2563,165,1858.2563,161,1862.2563" style="stroke:#181818;stroke-width:1.0;"/><text fill="#000000" font-family="sans-serif" font-size="11" lengthAdjust="spacing" textLength="20" x="165" y="1848.1621">yes</text><line style="stroke:#181818;stroke-width:1.0;" x1="161" x2="161" y1="1902.2251" y2="1922.2251"/><polygon fill="#181818" points="157,1912.2251,161,1922.2251,165,1912.2251,161,1916.2251" style="stroke:#181818;stroke-width:1.0;"/><line style="stroke:#181818;stroke-width:1.0;" x1="161" x2="161" y1="1956.1938" y2="1976.1938"/><polygon fill="#181818" points="157,1966.1938,161,1976.1938,165,1966.1938,161,1970.1938" style="stroke:#181818;stroke-width:1.0;"/><line style="stroke:#181818;stroke-width:1.0;" x1="161" x2="161" y1="2010.1626" y2="2030.1626"/><polygon fill="#181818" points="157,2020.1626,161,2030.1626,165,2020.1626,161,2024.1626" style="stroke:#181818;stroke-width:1.0;"/><line style="stroke:#181818;stroke-width:1.0;" x1="161" x2="161" y1="2118.1001" y2="2158.1001"/><polygon fill="#181818" points="157,2148.1001,161,2158.1001,165,2148.1001,161,2152.1001" style="stroke:#181818;stroke-width:1.0;"/><line style="stroke:#181818;stroke-width:1.0;" x1="220" x2="273" y1="2170.1001" y2="2170.1001"/><polygon fill="#181818" points="269,2138.1001,273,2128.1001,277,2138.1001,273,2134.1001" style="stroke:#181818;stroke-width:1.0;"/><line style="stroke:#181818;stroke-width:1.0;" x1="273" x2="273" y1="2101.1157" y2="2170.1001"/><line style="stroke:#181818;stroke-width:1.0;" x1="273" x2="261" y1="2101.1157" y2="2101.1157"/><polygon fill="#181818" points="271,2097.1157,261,2101.1157,271,2105.1157,267,2101.1157" style="stroke:#181818;stroke-width:1.0;"/><line style="stroke:#181818;stroke-width:1.0;" x1="161" x2="161" y1="2064.1313" y2="2084.1313"/><polygon fill="#181818" points="157,2074.1313,161,2084.1313,165,2074.1313,161,2078.1313" style="stroke:#181818;stroke-width:1.0;"/><line style="stroke:#181818;stroke-width:1.0;" x1="161" x2="161" y1="2182.1001" y2="2223.499"/><polygon fill="#181818" points="157,2213.499,161,2223.499,165,2213.499,161,2217.499" style="stroke:#181818;stroke-width:1.0;"/><text fill="#000000" font-family="sans-serif" font-size="11" lengthAdjust="spacing" textLength="20" x="165" y="2203.4048">yes</text><line style="stroke:#181818;stroke-width:1.0;" x1="161" x2="161" y1="2257.4678" y2="2277.4678"/><polygon fill="#181818" points="157,2267.4678,161,2277.4678,165,2267.4678,161,2271.4678" style="stroke:#181818;stroke-width:1.0;"/><line style="stroke:#181818;stroke-width:1.0;" x1="161" x2="161" y1="2311.4365" y2="2331.4365"/><polygon fill="#181818" points="157,2321.4365,161,2331.4365,165,2321.4365,161,2325.4365" style="stroke:#181818;stroke-width:1.0;"/><line style="stroke:#181818;stroke-width:1.0;" x1="161" x2="161" y1="2365.4053" y2="2385.4053"/><polygon fill="#181818" points="157,2375.4053,161,2385.4053,165,2375.4053,161,2379.4053" style="stroke:#181818;stroke-width:1.0;"/><line style="stroke:#181818;stroke-width:1.0;" x1="161" x2="161" y1="2473.3428" y2="2513.3428"/><polygon fill="#181818" points="157,2503.3428,161,2513.3428,165,2503.3428,161,2507.3428" style="stroke:#181818;stroke-width:1.0;"/><line style="stroke:#181818;stroke-width:1.0;" x1="220" x2="273" y1="2525.3428" y2="2525.3428"/><polygon fill="#181818" points="269,2493.3428,273,2483.3428,277,2493.3428,273,2489.3428" style="stroke:#181818;stroke-width:1.0;"/><line style="stroke:#181818;stroke-width:1.0;" x1="273" x2="273" y1="2456.3584" y2="2525.3428"/><line style="stroke:#181818;stroke-width:1.0;" x1="273" x2="261" y1="2456.3584" y2="2456.3584"/><polygon fill="#181818" points="271,2452.3584,261,2456.3584,271,2460.3584,267,2456.3584" style="stroke:#181818;stroke-width:1.0;"/><line style="stroke:#181818;stroke-width:1.0;" x1="161" x2="161" y1="2419.374" y2="2439.374"/><polygon fill="#181818" points="157,2429.374,161,2439.374,165,2429.374,161,2433.374" style="stroke:#181818;stroke-width:1.0;"/><line style="stroke:#181818;stroke-width:1.0;" x1="161" x2="161" y1="2537.3428" y2="2578.7417"/><polygon fill="#181818" points="157,2568.7417,161,2578.7417,165,2568.7417,161,2572.7417" style="stroke:#181818;stroke-width:1.0;"/><text fill="#000000" font-family="sans-serif" font-size="11" lengthAdjust="spacing" textLength="20" x="165" y="2558.6475">yes</text><line style="stroke:#181818;stroke-width:1.0;" x1="161" x2="161" y1="2612.7104" y2="2632.7104"/><polygon fill="#181818" points="157,2622.7104,161,2632.7104,165,2622.7104,161,2626.7104" style="stroke:#181818;stroke-width:1.0;"/><!--SRC=[jPFDJiCm3CVlVGfBNBR393u4WaqQHww8DyXMjxMMnb6IYUtjoKTRcZ74nDIS4jkoV_xRiKuOLu0_opS6nz1mYw3PaYDMgyvZn0QsGdVFTocs6Dv02boJhfMm3XMQLK4Lp8Ab9Qj3PFaw3r4APaUqyvZYHfFQBG6DOPEIxaZA0bL9LR5OArvTXBHXwJAcOEYXuZsdYgRfiGofEiCA1c2FnHgu6kWIL7HE3wNskLJ-tIiLhhbGmT8ZJKQavLxLQ3AgpkOh6jxNJO-Ng7hdVyNw5IeuHc2XQ4jbANs8_nsmEKPJWmTH3oqatd5OFk3uNGng50wMXfrmE8WC3q-tK69j4EqGzDcGppHBeINSWwCMhM-Hh1y8pxsonn0Ugqkgt0zEzbFxhZuQQT_u-M5y9BXnfhldWQzVaiD27CXUsFp9txj2XiUhP3ZX-6ChpmYnUBbEYBYxNMSJhC7PNgol_mK0]--></g></svg>