<?xml version="1.0" encoding="us-ascii" standalone="no"?><svg xmlns="http://www.w3.org/2000/svg" xmlns:xlink="http://www.w3.org/1999/xlink" contentStyleType="text/css" height="182px" preserveAspectRatio="none" style="width:132px;height:182px;background:#FFFFFF;" version="1.1" viewBox="0 0 132 182" width="132px" zoomAndPan="magnify"><defs/><g><!--entity BECKHOFF--><g id="elem_BECKHOFF"><rect fill="#F1F1F1" height="46.2969" rx="2.5" ry="2.5" style="stroke:#181818;stroke-width:0.5;" width="115" x="7" y="7"/><rect fill="#F1F1F1" height="10" style="stroke:#181818;stroke-width:0.5;" width="15" x="102" y="12"/><rect fill="#F1F1F1" height="2" style="stroke:#181818;stroke-width:0.5;" width="4" x="100" y="14"/><rect fill="#F1F1F1" height="2" style="stroke:#181818;stroke-width:0.5;" width="4" x="100" y="18"/><text fill="#000000" font-family="sans-serif" font-size="14" lengthAdjust="spacing" textLength="75" x="22" y="39.9951">BECKHOFF</text></g><!--entity PLC--><g id="elem_PLC"><rect fill="#F1F1F1" height="46.2969" rx="2.5" ry="2.5" style="stroke:#181818;stroke-width:0.5;" width="66" x="31.5" y="130.29"/><rect fill="#F1F1F1" height="10" style="stroke:#181818;stroke-width:0.5;" width="15" x="77.5" y="135.29"/><rect fill="#F1F1F1" height="2" style="stroke:#181818;stroke-width:0.5;" width="4" x="75.5" y="137.29"/><rect fill="#F1F1F1" height="2" style="stroke:#181818;stroke-width:0.5;" width="4" x="75.5" y="141.29"/><text fill="#000000" font-family="sans-serif" font-size="14" lengthAdjust="spacing" textLength="26" x="46.5" y="163.2851">PLC</text></g><!--link BECKHOFF to PLC--><g id="link_BECKHOFF_PLC"><path d="M64.5,53.68 C64.5,73.59 64.5,102.73 64.5,124.19 " fill="none" id="BECKHOFF-to-PLC" style="stroke:#181818;stroke-width:1.0;"/><polygon fill="#181818" points="64.5,129.03,68.5,120.03,64.5,124.03,60.5,120.03,64.5,129.03" style="stroke:#181818;stroke-width:1.0;"/><text fill="#000000" font-family="sans-serif" font-size="13" lengthAdjust="spacing" textLength="59" x="65.5" y="96.3569">EtherCAT</text></g><!--SRC=[YtPoTVRsy7TpYrNGrRLJY0xmSOvLi59mBSb8BN9s3040]--></g></svg>