<?xml version="1.0" encoding="us-ascii" standalone="no"?><svg xmlns="http://www.w3.org/2000/svg" xmlns:xlink="http://www.w3.org/1999/xlink" contentStyleType="text/css" height="78px" preserveAspectRatio="none" style="width:487px;height:78px;background:#FFFFFF;" version="1.1" viewBox="0 0 487 78" width="487px" zoomAndPan="magnify"><defs/><g><g id="elem_m1"><rect fill="#F1F1F1" height="44.5938" style="stroke:#181818;stroke-width:0.5;" width="139" x="7" y="16.85"/><text fill="#000000" font-family="sans-serif" font-size="14" lengthAdjust="spacing" textLength="125" x="14" y="31.8451">inbound message</text><line style="stroke:#181818;stroke-width:0.5;" x1="8" x2="145" y1="37.1469" y2="37.1469"/><text fill="#000000" font-family="monospace" font-size="14" lengthAdjust="spacing" textLength="120" x="13" y="54.142">(Cannot&#160;decode)</text></g><g id="elem_s1"><rect fill="#F1F1F1" height="44.5938" style="stroke:#181818;stroke-width:0.5;" width="132" x="181.5" y="16.85"/><text fill="#000000" font-family="sans-serif" font-size="14" lengthAdjust="spacing" textLength="80" x="207.5" y="31.8451">XML Splitter</text><line style="stroke:#181818;stroke-width:0.5;" x1="182.5" x2="312.5" y1="37.1469" y2="37.1469"/><text fill="#000000" font-family="monospace" font-size="14" lengthAdjust="spacing" textLength="120" x="187.5" y="54.142">(Cannot&#160;decode)</text></g><!--class m2--><g id="elem_m2"><rect fill="#F1F1F1" height="64.2969" id="m2" rx="2.5" ry="2.5" style="stroke:#181818;stroke-width:0.5;" width="132" x="348.5" y="7"/><ellipse cx="399.25" cy="23" fill="#ADD1B2" rx="11" ry="11" style="stroke:#181818;stroke-width:1.0;"/><path d="M402.2188,28.6406 Q401.6406,28.9375 401,29.0781 Q400.3594,29.2344 399.6563,29.2344 Q397.1563,29.2344 395.8281,27.5938 Q394.5156,25.9375 394.5156,22.8125 Q394.5156,19.6875 395.8281,18.0313 Q397.1563,16.375 399.6563,16.375 Q400.3594,16.375 401,16.5313 Q401.6563,16.6875 402.2188,16.9844 L402.2188,19.7031 Q401.5938,19.125 401,18.8594 Q400.4063,18.5781 399.7813,18.5781 Q398.4375,18.5781 397.75,19.6563 Q397.0625,20.7188 397.0625,22.8125 Q397.0625,24.9063 397.75,25.9844 Q398.4375,27.0469 399.7813,27.0469 Q400.4063,27.0469 401,26.7813 Q401.5938,26.5 402.2188,25.9219 L402.2188,28.6406 Z " fill="#000000"/><text fill="#000000" font-family="sans-serif" font-size="14" lengthAdjust="spacing" textLength="22" x="419.75" y="27.8467">m2</text><line style="stroke:#181818;stroke-width:0.5;" x1="349.5" x2="479.5" y1="39" y2="39"/><text fill="#000000" font-family="monospace" font-size="14" lengthAdjust="spacing" textLength="120" x="354.5" y="55.9951">(Cannot&#160;decode)</text><line style="stroke:#181818;stroke-width:0.5;" x1="349.5" x2="479.5" y1="63.2969" y2="63.2969"/></g><!--link m1 to s1--><g id="link_m1_s1"><path codeLine="8" d="M146.3,39.15 C155.91,39.15 165.51,39.15 175.11,39.15 " fill="none" id="m1-to-s1" style="stroke:#181818;stroke-width:1.0;"/><polygon fill="#181818" points="180.09,39.15,171.09,35.15,175.09,39.15,171.09,43.15,180.09,39.15" style="stroke:#181818;stroke-width:1.0;"/></g><!--link s1 to m2--><g id="link_s1_m2"><path codeLine="9" d="M313.71,39.15 C323.28,39.15 332.84,39.15 342.4,39.15 " fill="none" id="s1-to-m2" style="stroke:#181818;stroke-width:1.0;"/><polygon fill="#181818" points="347.36,39.15,338.36,35.15,342.36,39.15,338.36,43.15,347.36,39.15" style="stroke:#181818;stroke-width:1.0;"/></g><!--SRC=[oq_AIaqkKL3Ap4lAByrBKSXDBIvEJ4zLKaWiLiWrvCg7IaVu-YW45-HabfIa5e7bYWsvk78D5QmKR39pqwry8Reya_FpzD8pq-ouYk5IC5q8kLmZdDf0HkhQWGml1ZDoZG00]--></g></svg>