<?xml version="1.0" encoding="us-ascii" standalone="no"?><svg xmlns="http://www.w3.org/2000/svg" xmlns:xlink="http://www.w3.org/1999/xlink" contentStyleType="text/css" height="344px" preserveAspectRatio="none" style="width:1142px;height:344px;background:#FFFFFF;" version="1.1" viewBox="0 0 1142 344" width="1142px" zoomAndPan="magnify"><defs/><g><g id="elem_Projecttasks"><rect fill="#F1F1F1" height="167.6719" style="stroke:#181818;stroke-width:0.5;" width="358" x="27" y="7"/><text fill="#000000" font-family="sans-serif" font-size="14" lengthAdjust="spacing" textLength="85" x="163.5" y="21.9951">Projecttasks</text><line style="stroke:#181818;stroke-width:0.5;" x1="28" x2="384" y1="27.2969" y2="27.2969"/><rect fill="#ADD8E6" height="16.2969" style="stroke:none;stroke-width:1.0;" width="338" x="37" y="37.2969"/><text fill="#000000" font-family="sans-serif" font-size="14" font-weight="bold" lengthAdjust="spacing" textLength="98" x="47" y="50.292">Tasks to do:</text><text fill="#000000" font-family="sans-serif" font-size="14" font-weight="bold" lengthAdjust="spacing" textLength="56" x="309" y="50.292">Ready?</text><rect fill="#FFFFFF" height="16.2969" style="stroke:none;stroke-width:1.0;" width="338" x="37" y="53.5938"/><text fill="#000000" font-family="sans-serif" font-size="14" lengthAdjust="spacing" textLength="204" x="45" y="66.5889">Investigate part specifications</text><text fill="#000000" font-family="sans-serif" font-size="14" lengthAdjust="spacing" textLength="19" x="303" y="66.5889">No</text><rect fill="#FFFFFF" height="16.2969" style="stroke:none;stroke-width:1.0;" width="338" x="37" y="69.8906"/><text fill="#000000" font-family="sans-serif" font-size="14" lengthAdjust="spacing" textLength="197" x="45" y="82.8857">Investigate plc specifications</text><text fill="#000000" font-family="sans-serif" font-size="14" lengthAdjust="spacing" textLength="19" x="303" y="82.8857">No</text><rect fill="#FFFFFF" height="16.2969" style="stroke:none;stroke-width:1.0;" width="338" x="37" y="86.1875"/><text fill="#000000" font-family="sans-serif" font-size="14" lengthAdjust="spacing" textLength="222" x="45" y="99.1826">Investigate how plc can be used</text><text fill="#000000" font-family="sans-serif" font-size="14" lengthAdjust="spacing" textLength="19" x="303" y="99.1826">No</text><rect fill="#FFFFFF" height="16.2969" style="stroke:none;stroke-width:1.0;" width="338" x="37" y="102.4844"/><text fill="#000000" font-family="sans-serif" font-size="14" lengthAdjust="spacing" textLength="173" x="45" y="115.4795">Drawing parts Solidworks</text><text fill="#000000" font-family="sans-serif" font-size="14" lengthAdjust="spacing" textLength="19" x="303" y="115.4795">No</text><rect fill="#FFFFFF" height="16.2969" style="stroke:none;stroke-width:1.0;" width="338" x="37" y="118.7813"/><text fill="#000000" font-family="sans-serif" font-size="14" lengthAdjust="spacing" textLength="250" x="45" y="131.7764">Figuring out which sensors we need</text><text fill="#000000" font-family="sans-serif" font-size="14" lengthAdjust="spacing" textLength="19" x="303" y="131.7764">No</text><rect fill="#FFFFFF" height="16.2969" style="stroke:none;stroke-width:1.0;" width="338" x="37" y="135.0781"/><text fill="#000000" font-family="sans-serif" font-size="14" lengthAdjust="spacing" textLength="229" x="45" y="148.0732">Drawing electrical drawings Eplan</text><text fill="#000000" font-family="sans-serif" font-size="14" lengthAdjust="spacing" textLength="19" x="303" y="148.0732">No</text><rect fill="#FFFFFF" height="16.2969" style="stroke:none;stroke-width:1.0;" width="338" x="37" y="151.375"/><text fill="#000000" font-family="sans-serif" font-size="14" lengthAdjust="spacing" textLength="149" x="45" y="164.3701">Do a risk assessment</text><text fill="#000000" font-family="sans-serif" font-size="14" lengthAdjust="spacing" textLength="19" x="303" y="164.3701">No</text><line style="stroke:#000000;stroke-width:1.0;" x1="37" x2="375" y1="37.2969" y2="37.2969"/><line style="stroke:#000000;stroke-width:1.0;" x1="37" x2="375" y1="53.5938" y2="53.5938"/><line style="stroke:#000000;stroke-width:1.0;" x1="37" x2="375" y1="69.8906" y2="69.8906"/><line style="stroke:#000000;stroke-width:1.0;" x1="37" x2="375" y1="86.1875" y2="86.1875"/><line style="stroke:#000000;stroke-width:1.0;" x1="37" x2="375" y1="102.4844" y2="102.4844"/><line style="stroke:#000000;stroke-width:1.0;" x1="37" x2="375" y1="118.7813" y2="118.7813"/><line style="stroke:#000000;stroke-width:1.0;" x1="37" x2="375" y1="135.0781" y2="135.0781"/><line style="stroke:#000000;stroke-width:1.0;" x1="37" x2="375" y1="151.375" y2="151.375"/><line style="stroke:#000000;stroke-width:1.0;" x1="37" x2="375" y1="167.6719" y2="167.6719"/><line style="stroke:#000000;stroke-width:1.0;" x1="37" x2="37" y1="37.2969" y2="167.6719"/><line style="stroke:#000000;stroke-width:1.0;" x1="299" x2="299" y1="37.2969" y2="167.6719"/><line style="stroke:#000000;stroke-width:1.0;" x1="375" x2="375" y1="37.2969" y2="167.6719"/></g><g id="elem_Week1"><rect fill="#F1F1F1" height="69.8906" style="stroke:#181818;stroke-width:0.5;" width="279" x="419.5" y="55.89"/><text fill="#000000" font-family="sans-serif" font-size="14" lengthAdjust="spacing" textLength="48" x="535" y="70.8851">Week1</text><line style="stroke:#181818;stroke-width:0.5;" x1="420.5" x2="697.5" y1="76.1869" y2="76.1869"/><rect fill="#ADD8E6" height="16.2969" style="stroke:none;stroke-width:1.0;" width="259" x="429.5" y="86.1869"/><text fill="#000000" font-family="sans-serif" font-size="14" font-weight="bold" lengthAdjust="spacing" textLength="52" x="439.5" y="99.182">Tasks:</text><text fill="#000000" font-family="sans-serif" font-size="14" font-weight="bold" lengthAdjust="spacing" textLength="43" x="530.5" y="99.182">Who?</text><rect fill="#FFFFFF" height="16.2969" style="stroke:none;stroke-width:1.0;" width="259" x="429.5" y="102.4838"/><text fill="#000000" font-family="sans-serif" font-size="14" lengthAdjust="spacing" textLength="83" x="433.5" y="115.4789">Introduction</text><text fill="#000000" font-family="sans-serif" font-size="14" lengthAdjust="spacing" textLength="164" x="524.5" y="115.4789">Timon,Tim,Matthijs,Mika</text><line style="stroke:#000000;stroke-width:1.0;" x1="429.5" x2="688.5" y1="86.1869" y2="86.1869"/><line style="stroke:#000000;stroke-width:1.0;" x1="429.5" x2="688.5" y1="102.4838" y2="102.4838"/><line style="stroke:#000000;stroke-width:1.0;" x1="429.5" x2="688.5" y1="118.7806" y2="118.7806"/><line style="stroke:#000000;stroke-width:1.0;" x1="429.5" x2="429.5" y1="86.1869" y2="118.7806"/><line style="stroke:#000000;stroke-width:1.0;" x1="520.5" x2="520.5" y1="86.1869" y2="118.7806"/><line style="stroke:#000000;stroke-width:1.0;" x1="688.5" x2="688.5" y1="86.1869" y2="118.7806"/></g><g id="elem_Week2"><rect fill="#F1F1F1" height="69.8906" style="stroke:#181818;stroke-width:0.5;" width="279" x="733.5" y="55.89"/><text fill="#000000" font-family="sans-serif" font-size="14" lengthAdjust="spacing" textLength="48" x="849" y="70.8851">Week2</text><line style="stroke:#181818;stroke-width:0.5;" x1="734.5" x2="1011.5" y1="76.1869" y2="76.1869"/><rect fill="#ADD8E6" height="16.2969" style="stroke:none;stroke-width:1.0;" width="259" x="743.5" y="86.1869"/><text fill="#000000" font-family="sans-serif" font-size="14" font-weight="bold" lengthAdjust="spacing" textLength="52" x="753.5" y="99.182">Tasks:</text><text fill="#000000" font-family="sans-serif" font-size="14" font-weight="bold" lengthAdjust="spacing" textLength="43" x="844.5" y="99.182">Who?</text><rect fill="#FFFFFF" height="16.2969" style="stroke:none;stroke-width:1.0;" width="259" x="743.5" y="102.4838"/><text fill="#000000" font-family="sans-serif" font-size="14" lengthAdjust="spacing" textLength="83" x="747.5" y="115.4789">Introduction</text><text fill="#000000" font-family="sans-serif" font-size="14" lengthAdjust="spacing" textLength="164" x="838.5" y="115.4789">Timon,Tim,Matthijs,Mika</text><line style="stroke:#000000;stroke-width:1.0;" x1="743.5" x2="1002.5" y1="86.1869" y2="86.1869"/><line style="stroke:#000000;stroke-width:1.0;" x1="743.5" x2="1002.5" y1="102.4838" y2="102.4838"/><line style="stroke:#000000;stroke-width:1.0;" x1="743.5" x2="1002.5" y1="118.7806" y2="118.7806"/><line style="stroke:#000000;stroke-width:1.0;" x1="743.5" x2="743.5" y1="86.1869" y2="118.7806"/><line style="stroke:#000000;stroke-width:1.0;" x1="834.5" x2="834.5" y1="86.1869" y2="118.7806"/><line style="stroke:#000000;stroke-width:1.0;" x1="1002.5" x2="1002.5" y1="86.1869" y2="118.7806"/></g><g id="elem_Week3"><rect fill="#F1F1F1" height="86.1875" style="stroke:#181818;stroke-width:0.5;" width="398" x="7" y="242.82"/><text fill="#000000" font-family="sans-serif" font-size="14" lengthAdjust="spacing" textLength="48" x="182" y="257.8151">Week3</text><line style="stroke:#181818;stroke-width:0.5;" x1="8" x2="404" y1="263.1169" y2="263.1169"/><rect fill="#ADD8E6" height="16.2969" style="stroke:none;stroke-width:1.0;" width="378" x="17" y="273.1169"/><text fill="#000000" font-family="sans-serif" font-size="14" font-weight="bold" lengthAdjust="spacing" textLength="52" x="27" y="286.112">Tasks:</text><text fill="#000000" font-family="sans-serif" font-size="14" font-weight="bold" lengthAdjust="spacing" textLength="43" x="276" y="286.112">Who?</text><rect fill="#FFFFFF" height="16.2969" style="stroke:none;stroke-width:1.0;" width="378" x="17" y="289.4138"/><text fill="#000000" font-family="sans-serif" font-size="14" lengthAdjust="spacing" textLength="159" x="21" y="302.4089">Starting a git repository</text><text fill="#000000" font-family="sans-serif" font-size="14" lengthAdjust="spacing" textLength="43" x="270" y="302.4089">Timon</text><rect fill="#FFFFFF" height="16.2969" style="stroke:none;stroke-width:1.0;" width="378" x="17" y="305.7106"/><text fill="#000000" font-family="sans-serif" font-size="14" lengthAdjust="spacing" textLength="241" x="21" y="318.7057">Getting information on the process</text><text fill="#000000" font-family="sans-serif" font-size="14" lengthAdjust="spacing" textLength="125" x="270" y="318.7057">Tim, Matthijs, Mika</text><line style="stroke:#000000;stroke-width:1.0;" x1="17" x2="395" y1="273.1169" y2="273.1169"/><line style="stroke:#000000;stroke-width:1.0;" x1="17" x2="395" y1="289.4138" y2="289.4138"/><line style="stroke:#000000;stroke-width:1.0;" x1="17" x2="395" y1="305.7106" y2="305.7106"/><line style="stroke:#000000;stroke-width:1.0;" x1="17" x2="395" y1="322.0075" y2="322.0075"/><line style="stroke:#000000;stroke-width:1.0;" x1="17" x2="17" y1="273.1169" y2="322.0075"/><line style="stroke:#000000;stroke-width:1.0;" x1="266" x2="266" y1="273.1169" y2="322.0075"/><line style="stroke:#000000;stroke-width:1.0;" x1="395" x2="395" y1="273.1169" y2="322.0075"/></g><g id="elem_Week4"><rect fill="#F1F1F1" height="102.4844" style="stroke:#181818;stroke-width:0.5;" width="320" x="440" y="234.68"/><text fill="#000000" font-family="sans-serif" font-size="14" lengthAdjust="spacing" textLength="48" x="576" y="249.6751">Week4</text><line style="stroke:#181818;stroke-width:0.5;" x1="441" x2="759" y1="254.9769" y2="254.9769"/><rect fill="#ADD8E6" height="16.2969" style="stroke:none;stroke-width:1.0;" width="300" x="450" y="264.9769"/><text fill="#000000" font-family="sans-serif" font-size="14" font-weight="bold" lengthAdjust="spacing" textLength="52" x="460" y="277.972">Tasks:</text><text fill="#000000" font-family="sans-serif" font-size="14" font-weight="bold" lengthAdjust="spacing" textLength="43" x="670" y="277.972">Who?</text><rect fill="#FFFFFF" height="16.2969" style="stroke:none;stroke-width:1.0;" width="300" x="450" y="281.2738"/><text fill="#000000" font-family="sans-serif" font-size="14" lengthAdjust="spacing" textLength="206" x="454" y="294.2689">Class diagram valve_assembly</text><text fill="#000000" font-family="sans-serif" font-size="14" lengthAdjust="spacing" textLength="43" x="664" y="294.2689">Timon</text><rect fill="#FFFFFF" height="16.2969" style="stroke:none;stroke-width:1.0;" width="300" x="450" y="297.5706"/><text fill="#000000" font-family="sans-serif" font-size="14" lengthAdjust="spacing" textLength="129" x="454" y="310.5657">Solidworks models</text><text fill="#000000" font-family="sans-serif" font-size="14" lengthAdjust="spacing" textLength="86" x="664" y="310.5657">Tim, Matthijs</text><rect fill="#FFFFFF" height="16.2969" style="stroke:none;stroke-width:1.0;" width="300" x="450" y="313.8675"/><text fill="#000000" font-family="sans-serif" font-size="14" lengthAdjust="spacing" textLength="66" x="454" y="326.8626">Flowchart</text><text fill="#000000" font-family="sans-serif" font-size="14" lengthAdjust="spacing" textLength="31" x="664" y="326.8626">Mika</text><line style="stroke:#000000;stroke-width:1.0;" x1="450" x2="750" y1="264.9769" y2="264.9769"/><line style="stroke:#000000;stroke-width:1.0;" x1="450" x2="750" y1="281.2738" y2="281.2738"/><line style="stroke:#000000;stroke-width:1.0;" x1="450" x2="750" y1="297.5706" y2="297.5706"/><line style="stroke:#000000;stroke-width:1.0;" x1="450" x2="750" y1="313.8675" y2="313.8675"/><line style="stroke:#000000;stroke-width:1.0;" x1="450" x2="750" y1="330.1644" y2="330.1644"/><line style="stroke:#000000;stroke-width:1.0;" x1="450" x2="450" y1="264.9769" y2="330.1644"/><line style="stroke:#000000;stroke-width:1.0;" x1="660" x2="660" y1="264.9769" y2="330.1644"/><line style="stroke:#000000;stroke-width:1.0;" x1="750" x2="750" y1="264.9769" y2="330.1644"/></g><g id="elem_Week5"><rect fill="#F1F1F1" height="102.4844" style="stroke:#181818;stroke-width:0.5;" width="340" x="795" y="234.68"/><text fill="#000000" font-family="sans-serif" font-size="14" lengthAdjust="spacing" textLength="48" x="941" y="249.6751">Week5</text><line style="stroke:#181818;stroke-width:0.5;" x1="796" x2="1134" y1="254.9769" y2="254.9769"/><rect fill="#ADD8E6" height="16.2969" style="stroke:none;stroke-width:1.0;" width="320" x="805" y="264.9769"/><text fill="#000000" font-family="sans-serif" font-size="14" font-weight="bold" lengthAdjust="spacing" textLength="52" x="815" y="277.972">Tasks:</text><text fill="#000000" font-family="sans-serif" font-size="14" font-weight="bold" lengthAdjust="spacing" textLength="43" x="1045" y="277.972">Who?</text><rect fill="#FFFFFF" height="16.2969" style="stroke:none;stroke-width:1.0;" width="320" x="805" y="281.2738"/><text fill="#000000" font-family="sans-serif" font-size="14" lengthAdjust="spacing" textLength="222" x="809" y="294.2689">class diagram structure_of_valve</text><text fill="#000000" font-family="sans-serif" font-size="14" lengthAdjust="spacing" textLength="43" x="1039" y="294.2689">Timon</text><rect fill="#FFFFFF" height="16.2969" style="stroke:none;stroke-width:1.0;" width="320" x="805" y="297.5706"/><text fill="#000000" font-family="sans-serif" font-size="14" lengthAdjust="spacing" textLength="129" x="809" y="310.5657">Solidworks models</text><text fill="#000000" font-family="sans-serif" font-size="14" lengthAdjust="spacing" textLength="86" x="1039" y="310.5657">Tim, Matthijs</text><rect fill="#FFFFFF" height="16.2969" style="stroke:none;stroke-width:1.0;" width="320" x="805" y="313.8675"/><text fill="#000000" font-family="sans-serif" font-size="14" lengthAdjust="spacing" textLength="62" x="809" y="326.8626">flowchart</text><text fill="#000000" font-family="sans-serif" font-size="14" lengthAdjust="spacing" textLength="31" x="1039" y="326.8626">Mika</text><line style="stroke:#000000;stroke-width:1.0;" x1="805" x2="1125" y1="264.9769" y2="264.9769"/><line style="stroke:#000000;stroke-width:1.0;" x1="805" x2="1125" y1="281.2738" y2="281.2738"/><line style="stroke:#000000;stroke-width:1.0;" x1="805" x2="1125" y1="297.5706" y2="297.5706"/><line style="stroke:#000000;stroke-width:1.0;" x1="805" x2="1125" y1="313.8675" y2="313.8675"/><line style="stroke:#000000;stroke-width:1.0;" x1="805" x2="1125" y1="330.1644" y2="330.1644"/><line style="stroke:#000000;stroke-width:1.0;" x1="805" x2="805" y1="264.9769" y2="330.1644"/><line style="stroke:#000000;stroke-width:1.0;" x1="1035" x2="1035" y1="264.9769" y2="330.1644"/><line style="stroke:#000000;stroke-width:1.0;" x1="1125" x2="1125" y1="264.9769" y2="330.1644"/></g><!--SRC=[lPDVRzem5CNVyockr9TMeXLGs2QqTTEWLAMmeKBB8pBE9N5nV97_WD3OTzzD6DleeauJqwGeYUnxV7xskQRP4qeFGqlvrmktSF0b0dXxebMI-faEM3cPQI4NLzjt0EEYm1F4r0B8H-vHn9lt_5-8rgdoUBK5k3KhT5ubmYCiXVNWbYZLN4dX5Ha7M_X4Bsgq_5j9Ikj29eM16K9m64Efg6F5Mfcau78m8gtYDTb5kKDN9S7crHGyyAXCmQ5nP1si4GoooKiUgFbOBUz1GxmRSd2zr8nOgY8GO9LRW70EdSlG-7tXroYYNLWJn4NjZobzpsUIqc_ft1flAGuoFrTUVgmoCXL-LmR2-rGzkSf0BSHpo_h_jxmyndBaETyy0m69yc1nIKvvifkz_s7v3VgYMfavsQpeEU37fzoCbYIdiTDLu0Sob34tZc5kQmuUOYKIAp9O2Rt2QTuAsKnlIgb_wTwCOjJk6UDXTLVJMgPyBDjIzEOnwF80tNdBOGUBKvfFYtt0F-2Vb_1_G1C7dKNHa6-LVnZqOONMvUdLBkhL-kL5hNewuLlQ2nfgTQWrMyr6g_eQ7iPjoEVFejEROHyS1IkH-PbSpK8U_rdK4oi1zy5ubM4BFY_Hz3ft-m6uDYjboUINDEez3duMl6gSV-IE6w5b57WSH1sSYw0zAoJ5t6GjTk-UludwmYH19BmscgXDlAxTyDpe6m00]--></g></svg>