<?xml version="1.0" encoding="us-ascii" standalone="no"?><svg xmlns="http://www.w3.org/2000/svg" xmlns:xlink="http://www.w3.org/1999/xlink" contentStyleType="text/css" height="465px" preserveAspectRatio="none" style="width:966px;height:465px;" version="1.1" viewBox="0 0 966 465" width="966px" zoomAndPan="magnify"><defs/><g><!--cluster Construction_valve--><g id="cluster_Construction_valve"><rect fill="none" height="389" rx="2.5" ry="2.5" style="stroke:#181818;stroke-width:1.0;" width="953" x="7" y="7"/><rect fill="none" height="10" style="stroke:#181818;stroke-width:1.0;" width="15" x="940" y="12"/><rect fill="none" height="2" style="stroke:#181818;stroke-width:1.0;" width="4" x="938" y="14"/><rect fill="none" height="2" style="stroke:#181818;stroke-width:1.0;" width="4" x="938" y="18"/><text fill="#000000" font-family="sans-serif" font-size="14" font-weight="bold" lengthAdjust="spacing" textLength="150" x="408.5" y="32.9951">Construction_valve</text></g><!--entity Ring--><g id="elem_Ring"><rect fill="#F1F1F1" height="46.2969" rx="2.5" ry="2.5" style="stroke:#181818;stroke-width:0.5;" width="71" x="872.5" y="281.85"/><rect fill="#F1F1F1" height="10" style="stroke:#181818;stroke-width:0.5;" width="15" x="923.5" y="286.85"/><rect fill="#F1F1F1" height="2" style="stroke:#181818;stroke-width:0.5;" width="4" x="921.5" y="288.85"/><rect fill="#F1F1F1" height="2" style="stroke:#181818;stroke-width:0.5;" width="4" x="921.5" y="292.85"/><text fill="#000000" font-family="sans-serif" font-size="14" lengthAdjust="spacing" textLength="31" x="887.5" y="314.8451">Ring</text></g><!--entity concentric outside 10mm--><g id="elem_concentric outside 10mm"><ellipse cx="716" cy="351" fill="#F1F1F1" rx="8" ry="8" style="stroke:#181818;stroke-width:0.5;"/><text fill="#000000" font-family="sans-serif" font-size="14" lengthAdjust="spacing" textLength="177" x="627.5" y="380.9951">concentric outside 10mm</text></g><!--entity thickness--><g id="elem_thickness"><ellipse cx="716" cy="258" fill="#F1F1F1" rx="8" ry="8" style="stroke:#181818;stroke-width:0.5;"/><text fill="#000000" font-family="sans-serif" font-size="14" lengthAdjust="spacing" textLength="67" x="682.5" y="287.9951">thickness</text></g><!--entity Nut--><g id="elem_Nut"><rect fill="#F1F1F1" height="46.2969" rx="2.5" ry="2.5" style="stroke:#181818;stroke-width:0.5;" width="64" x="432" y="296.85"/><rect fill="#F1F1F1" height="10" style="stroke:#181818;stroke-width:0.5;" width="15" x="476" y="301.85"/><rect fill="#F1F1F1" height="2" style="stroke:#181818;stroke-width:0.5;" width="4" x="474" y="303.85"/><rect fill="#F1F1F1" height="2" style="stroke:#181818;stroke-width:0.5;" width="4" x="474" y="307.85"/><text fill="#000000" font-family="sans-serif" font-size="14" lengthAdjust="spacing" textLength="24" x="447" y="329.8451">Nut</text></g><!--entity screw thread m10--><g id="elem_screw thread m10"><ellipse cx="238" cy="314" fill="#F1F1F1" rx="8" ry="8" style="stroke:#181818;stroke-width:0.5;"/><text fill="#000000" font-family="sans-serif" font-size="14" lengthAdjust="spacing" textLength="125" x="175.5" y="343.9951">screw thread m10</text></g><!--entity cap--><g id="elem_cap"><rect fill="#F1F1F1" height="46.2969" rx="2.5" ry="2.5" style="stroke:#181818;stroke-width:0.5;" width="65" x="431.5" y="215.85"/><rect fill="#F1F1F1" height="10" style="stroke:#181818;stroke-width:0.5;" width="15" x="476.5" y="220.85"/><rect fill="#F1F1F1" height="2" style="stroke:#181818;stroke-width:0.5;" width="4" x="474.5" y="222.85"/><rect fill="#F1F1F1" height="2" style="stroke:#181818;stroke-width:0.5;" width="4" x="474.5" y="226.85"/><text fill="#000000" font-family="sans-serif" font-size="14" lengthAdjust="spacing" textLength="25" x="446.5" y="248.8451">cap</text></g><!--entity fine thread m12--><g id="elem_fine thread m12"><ellipse cx="238" cy="221" fill="#F1F1F1" rx="8" ry="8" style="stroke:#181818;stroke-width:0.5;"/><text fill="#000000" font-family="sans-serif" font-size="14" lengthAdjust="spacing" textLength="109" x="183.5" y="250.9951">fine thread m12</text></g><!--entity tube--><g id="elem_tube"><rect fill="#F1F1F1" height="46.2969" rx="2.5" ry="2.5" style="stroke:#181818;stroke-width:0.5;" width="72" x="872" y="88.85"/><rect fill="#F1F1F1" height="10" style="stroke:#181818;stroke-width:0.5;" width="15" x="924" y="93.85"/><rect fill="#F1F1F1" height="2" style="stroke:#181818;stroke-width:0.5;" width="4" x="922" y="95.85"/><rect fill="#F1F1F1" height="2" style="stroke:#181818;stroke-width:0.5;" width="4" x="922" y="99.85"/><text fill="#000000" font-family="sans-serif" font-size="14" lengthAdjust="spacing" textLength="32" x="887" y="121.8451">tube</text></g><!--entity concentric outside 20mm--><g id="elem_concentric outside 20mm"><ellipse cx="464" cy="152" fill="#F1F1F1" rx="8" ry="8" style="stroke:#181818;stroke-width:0.5;"/><text fill="#000000" font-family="sans-serif" font-size="14" lengthAdjust="spacing" textLength="177" x="375.5" y="181.9951">concentric outside 20mm</text></g><!--entity concentric inside 20mm--><g id="elem_concentric inside 20mm"><ellipse cx="716" cy="75" fill="#F1F1F1" rx="8" ry="8" style="stroke:#181818;stroke-width:0.5;"/><text fill="#000000" font-family="sans-serif" font-size="14" lengthAdjust="spacing" textLength="166" x="633" y="104.9951">concentric inside 20mm</text></g><!--entity Nut2--><g id="elem_Nut2"><rect fill="#F1F1F1" height="46.2969" rx="2.5" ry="2.5" style="stroke:#181818;stroke-width:0.5;" width="73" x="427.5" y="41.85"/><rect fill="#F1F1F1" height="10" style="stroke:#181818;stroke-width:0.5;" width="15" x="480.5" y="46.85"/><rect fill="#F1F1F1" height="2" style="stroke:#181818;stroke-width:0.5;" width="4" x="478.5" y="48.85"/><rect fill="#F1F1F1" height="2" style="stroke:#181818;stroke-width:0.5;" width="4" x="478.5" y="52.85"/><text fill="#000000" font-family="sans-serif" font-size="14" lengthAdjust="spacing" textLength="33" x="442.5" y="74.8451">Nut2</text></g><!--entity screw thread m20--><g id="elem_screw thread m20"><ellipse cx="238" cy="80" fill="#F1F1F1" rx="8" ry="8" style="stroke:#181818;stroke-width:0.5;"/><text fill="#000000" font-family="sans-serif" font-size="14" lengthAdjust="spacing" textLength="125" x="175.5" y="109.9951">screw thread m20</text></g><!--entity House--><g id="elem_House"><rect fill="#F1F1F1" height="46.2969" rx="2.5" ry="2.5" style="stroke:#181818;stroke-width:0.5;" width="85" x="23" y="197.85"/><rect fill="#F1F1F1" height="10" style="stroke:#181818;stroke-width:0.5;" width="15" x="88" y="202.85"/><rect fill="#F1F1F1" height="2" style="stroke:#181818;stroke-width:0.5;" width="4" x="86" y="204.85"/><rect fill="#F1F1F1" height="2" style="stroke:#181818;stroke-width:0.5;" width="4" x="86" y="208.85"/><text fill="#000000" font-family="sans-serif" font-size="14" lengthAdjust="spacing" textLength="45" x="38" y="230.8451">House</text></g><!--link concentric outside 10mm to Ring--><g id="link_concentric outside 10mm_Ring"><path d="M724.68,349.14 C749.19,343.21 826.57,324.47 872.26,313.41 " fill="none" id="concentric outside 10mm-Ring" style="stroke:#181818;stroke-width:1.0;"/></g><!--link thickness to Ring--><g id="link_thickness_Ring"><path d="M724.68,259.9 C749.19,265.96 826.57,285.1 872.26,296.41 " fill="none" id="thickness-Ring" style="stroke:#181818;stroke-width:1.0;"/></g><!--link screw thread m10 to Nut--><g id="link_screw thread m10_Nut"><path d="M246.97,314.21 C276.28,315 379.05,317.75 431.57,319.16 " fill="none" id="screw thread m10-Nut" style="stroke:#181818;stroke-width:1.0;"/></g><!--link Nut to thickness--><g id="link_Nut_thickness"><path d="M496.41,312.21 C551.43,298.57 663.06,270.88 701.58,261.33 " fill="none" id="Nut-to-thickness" style="stroke:#181818;stroke-width:1.0;"/><polygon fill="#181818" points="706.11,259.96,696.4133,258.2354,701.2559,261.1592,698.3321,266.0019,706.11,259.96" style="stroke:#181818;stroke-width:1.0;"/></g><!--link fine thread m12 to cap--><g id="link_fine thread m12_cap"><path d="M246.97,221.64 C276.2,223.99 378.5,232.21 431.15,236.44 " fill="none" id="fine thread m12-cap" style="stroke:#181818;stroke-width:1.0;"/></g><!--link concentric outside 20mm to tube--><g id="link_concentric outside 20mm_tube"><path d="M472.57,151.34 C509.66,148.1 675.88,133.53 812,121 C831.8,119.18 853.91,117.09 871.81,115.38 " fill="none" id="concentric outside 20mm-tube" style="stroke:#181818;stroke-width:1.0;"/></g><!--link concentric inside 20mm to tube--><g id="link_concentric inside 20mm_tube"><path d="M724.68,76.5 C749.12,81.26 826.13,96.25 871.87,105.16 " fill="none" id="concentric inside 20mm-tube" style="stroke:#181818;stroke-width:1.0;"/></g><!--link screw thread m20 to Nut2--><g id="link_screw thread m20_Nut2"><path d="M246.97,79.47 C275.5,77.56 373.63,70.98 427.28,67.39 " fill="none" id="screw thread m20-Nut2" style="stroke:#181818;stroke-width:1.0;"/></g><!--link Nut2 to concentric inside 20mm--><g id="link_Nut2_concentric inside 20mm"><path d="M500.82,66.43 C556.98,68.68 663.24,72.93 701.14,74.45 " fill="none" id="Nut2-to-concentric inside 20mm" style="stroke:#181818;stroke-width:1.0;"/><polygon fill="#181818" points="706.01,74.68,697.1771,70.3235,701.014,74.4802,696.8573,78.3171,706.01,74.68" style="stroke:#181818;stroke-width:1.0;"/></g><!--link House to concentric outside 10mm--><g id="link_House_concentric outside 10mm"><path d="M75.41,244.47 C89.41,277.53 120,336.51 168,361 C358.97,458.43 638.43,376.27 701.87,355.48 " fill="none" id="House-to-concentric outside 10mm" style="stroke:#181818;stroke-width:1.0;"/><polygon fill="#181818" points="706.32,353.66,696.5161,352.7202,701.578,355.2454,699.0528,360.3074,706.32,353.66" style="stroke:#181818;stroke-width:1.0;"/></g><!--link House to screw thread m10--><g id="link_House_screw thread m10"><path d="M108.21,243.75 C146.15,264.45 199.83,293.73 224.14,306.99 " fill="none" id="House-to-screw thread m10" style="stroke:#181818;stroke-width:1.0;"/><polygon fill="#181818" points="228.14,309.71,222.1651,301.8806,223.7538,307.3097,218.3246,308.8985,228.14,309.71" style="stroke:#181818;stroke-width:1.0;"/></g><!--link House to concentric outside 20mm--><g id="link_House_concentric outside 20mm"><path d="M108.2,197.57 C126.07,188.63 147.51,179.32 168,174 C273.44,146.62 406.67,149.51 449.26,151.3 " fill="none" id="House-to-concentric outside 20mm" style="stroke:#181818;stroke-width:1.0;"/><polygon fill="#181818" points="454.08,151.57,445.2721,147.1632,449.0852,151.3417,444.9067,155.1548,454.08,151.57" style="stroke:#181818;stroke-width:1.0;"/></g><!--link House to screw thread m20--><g id="link_House_screw thread m20"><path d="M95.04,197.4 C132.7,166.25 197.39,112.76 224.48,90.35 " fill="none" id="House-to-screw thread m20" style="stroke:#181818;stroke-width:1.0;"/><polygon fill="#181818" points="228.09,86.54,218.6036,89.1872,224.2349,89.724,223.698,95.3554,228.09,86.54" style="stroke:#181818;stroke-width:1.0;"/></g><!--link House to fine thread m12--><g id="link_House_fine thread m12"><path d="M108.21,221 C145.68,221 198.48,221 223.21,221 " fill="none" id="House-to-fine thread m12" style="stroke:#181818;stroke-width:1.0;"/><polygon fill="#181818" points="228.14,221,219.14,217,223.14,221,219.14,225,228.14,221" style="stroke:#181818;stroke-width:1.0;"/></g><!--SRC=[ZPB1JiCm38RlUGfhby5XqfO7uB8B9mvS9uIoD6kZjdRbE9iGujt9qjB2kW4zj8xo_Pzigw7ss1asBUoDhKkcYCMM6c8GDXZIbKDHZJi8207xiX8eF3ihdb0jmnXlF3fvwnmGIqLAMMexmXI6BM4GZZdnUZJDqS6xWlJar-xPO_cIoxjxM5X2cqBiBL2Ku0i7ctNRBc2rWZCvWb9vMwCBORhgVKzH9bsmx4uW5JjJGBjPPpWH6KZVT7puxXeSrdIJuv0ccnGwAn8me1BtxjVszLVxP_8QwF4ADywYRmsZns5q9dBLptD3hWRh8yKmz9pBMUZ7vY-vsKh_8T9_Y_HSTBdu_gVv-0G0]--></g></svg>