<?xml version="1.0" encoding="us-ascii" standalone="no"?><svg xmlns="http://www.w3.org/2000/svg" xmlns:xlink="http://www.w3.org/1999/xlink" contentStyleType="text/css" height="1532px" preserveAspectRatio="none" style="width:1549px;height:1532px;" version="1.1" viewBox="0 0 1549 1532" width="1549px" zoomAndPan="magnify"><defs/><g><!--cluster Valve_assembly_setup--><g id="cluster_Valve_assembly_setup"><rect fill="none" height="1519" rx="2.5" ry="2.5" style="stroke:#181818;stroke-width:1.0;" width="1536" x="7" y="7"/><rect fill="none" height="10" style="stroke:#181818;stroke-width:1.0;" width="15" x="1523" y="12"/><rect fill="none" height="2" style="stroke:#181818;stroke-width:1.0;" width="4" x="1521" y="14"/><rect fill="none" height="2" style="stroke:#181818;stroke-width:1.0;" width="4" x="1521" y="18"/><text fill="#000000" font-family="sans-serif" font-size="14" font-weight="bold" lengthAdjust="spacing" textLength="176" x="687" y="32.9951">Valve_assembly_setup</text></g><!--entity Storage--><g id="elem_Storage"><rect fill="#F1F1F1" height="46.2969" rx="2.5" ry="2.5" style="stroke:#181818;stroke-width:0.5;" width="94" x="499.5" y="672.85"/><rect fill="#F1F1F1" height="10" style="stroke:#181818;stroke-width:0.5;" width="15" x="573.5" y="677.85"/><rect fill="#F1F1F1" height="2" style="stroke:#181818;stroke-width:0.5;" width="4" x="571.5" y="679.85"/><rect fill="#F1F1F1" height="2" style="stroke:#181818;stroke-width:0.5;" width="4" x="571.5" y="683.85"/><text fill="#000000" font-family="sans-serif" font-size="14" lengthAdjust="spacing" textLength="54" x="514.5" y="705.8451">Storage</text></g><!--entity pickup\nposition\nring--><g id="elem_pickup\nposition\nring"><ellipse cx="306" cy="978" fill="#F1F1F1" rx="8" ry="8" style="stroke:#181818;stroke-width:0.5;"/><text fill="#000000" font-family="sans-serif" font-size="14" lengthAdjust="spacing" textLength="46" x="278.5" y="1007.9951">pickup</text><text fill="#000000" font-family="sans-serif" font-size="14" lengthAdjust="spacing" textLength="55" x="278.5" y="1024.292">position</text><text fill="#000000" font-family="sans-serif" font-size="14" lengthAdjust="spacing" textLength="26" x="278.5" y="1040.5889">ring</text></g><!--entity pickup\nposition\nplunger--><g id="elem_pickup\nposition\nplunger"><ellipse cx="306" cy="1135" fill="#F1F1F1" rx="8" ry="8" style="stroke:#181818;stroke-width:0.5;"/><text fill="#000000" font-family="sans-serif" font-size="14" lengthAdjust="spacing" textLength="46" x="278.5" y="1164.9951">pickup</text><text fill="#000000" font-family="sans-serif" font-size="14" lengthAdjust="spacing" textLength="55" x="278.5" y="1181.292">position</text><text fill="#000000" font-family="sans-serif" font-size="14" lengthAdjust="spacing" textLength="53" x="278.5" y="1197.5889">plunger</text></g><!--entity pickup\nposition\ncap--><g id="elem_pickup\nposition\ncap"><ellipse cx="306" cy="382" fill="#F1F1F1" rx="8" ry="8" style="stroke:#181818;stroke-width:0.5;"/><text fill="#000000" font-family="sans-serif" font-size="14" lengthAdjust="spacing" textLength="46" x="278.5" y="411.9951">pickup</text><text fill="#000000" font-family="sans-serif" font-size="14" lengthAdjust="spacing" textLength="55" x="278.5" y="428.292">position</text><text fill="#000000" font-family="sans-serif" font-size="14" lengthAdjust="spacing" textLength="25" x="278.5" y="444.5889">cap</text></g><!--entity pickup\nposition\nhouse--><g id="elem_pickup\nposition\nhouse"><ellipse cx="306" cy="1292" fill="#F1F1F1" rx="8" ry="8" style="stroke:#181818;stroke-width:0.5;"/><text fill="#000000" font-family="sans-serif" font-size="14" lengthAdjust="spacing" textLength="46" x="278.5" y="1321.9951">pickup</text><text fill="#000000" font-family="sans-serif" font-size="14" lengthAdjust="spacing" textLength="55" x="278.5" y="1338.292">position</text><text fill="#000000" font-family="sans-serif" font-size="14" lengthAdjust="spacing" textLength="44" x="278.5" y="1354.5889">house</text></g><!--entity pickup\nposition\nsmall nut--><g id="elem_pickup\nposition\nsmall nut"><ellipse cx="306" cy="539" fill="#F1F1F1" rx="8" ry="8" style="stroke:#181818;stroke-width:0.5;"/><text fill="#000000" font-family="sans-serif" font-size="14" lengthAdjust="spacing" textLength="46" x="275" y="568.9951">pickup</text><text fill="#000000" font-family="sans-serif" font-size="14" lengthAdjust="spacing" textLength="55" x="275" y="585.292">position</text><text fill="#000000" font-family="sans-serif" font-size="14" lengthAdjust="spacing" textLength="62" x="275" y="601.5889">small nut</text></g><!--entity pickup\nposition\nbig nut--><g id="elem_pickup\nposition\nbig nut"><ellipse cx="306" cy="696" fill="#F1F1F1" rx="8" ry="8" style="stroke:#181818;stroke-width:0.5;"/><text fill="#000000" font-family="sans-serif" font-size="14" lengthAdjust="spacing" textLength="46" x="278.5" y="725.9951">pickup</text><text fill="#000000" font-family="sans-serif" font-size="14" lengthAdjust="spacing" textLength="55" x="278.5" y="742.292">position</text><text fill="#000000" font-family="sans-serif" font-size="14" lengthAdjust="spacing" textLength="48" x="278.5" y="758.5889">big nut</text></g><!--entity pickup\nposition\nassembled valve--><g id="elem_pickup\nposition\nassembled valve"><ellipse cx="306" cy="1449" fill="#F1F1F1" rx="8" ry="8" style="stroke:#181818;stroke-width:0.5;"/><text fill="#000000" font-family="sans-serif" font-size="14" lengthAdjust="spacing" textLength="46" x="249" y="1478.9951">pickup</text><text fill="#000000" font-family="sans-serif" font-size="14" lengthAdjust="spacing" textLength="55" x="249" y="1495.292">position</text><text fill="#000000" font-family="sans-serif" font-size="14" lengthAdjust="spacing" textLength="114" x="249" y="1511.5889">assembled valve</text></g><!--entity position\nstorage--><g id="elem_position\nstorage"><ellipse cx="1046" cy="635" fill="#F1F1F1" rx="8" ry="8" style="stroke:#181818;stroke-width:0.5;"/><text fill="#000000" font-family="sans-serif" font-size="14" lengthAdjust="spacing" textLength="55" x="1018.5" y="664.9951">position</text><text fill="#000000" font-family="sans-serif" font-size="14" lengthAdjust="spacing" textLength="53" x="1018.5" y="681.292">storage</text></g><!--entity power\nstorage--><g id="elem_power\nstorage"><ellipse cx="814" cy="602" fill="#F1F1F1" rx="8" ry="8" style="stroke:#181818;stroke-width:0.5;"/><text fill="#000000" font-family="sans-serif" font-size="14" lengthAdjust="spacing" textLength="43" x="787.5" y="631.9951">power</text><text fill="#000000" font-family="sans-serif" font-size="14" lengthAdjust="spacing" textLength="53" x="787.5" y="648.292">storage</text></g><!--entity Ring--><g id="elem_Ring"><rect fill="#F1F1F1" height="46.2969" rx="2.5" ry="2.5" style="stroke:#181818;stroke-width:0.5;" width="71" x="66.5" y="954.85"/><rect fill="#F1F1F1" height="10" style="stroke:#181818;stroke-width:0.5;" width="15" x="117.5" y="959.85"/><rect fill="#F1F1F1" height="2" style="stroke:#181818;stroke-width:0.5;" width="4" x="115.5" y="961.85"/><rect fill="#F1F1F1" height="2" style="stroke:#181818;stroke-width:0.5;" width="4" x="115.5" y="965.85"/><text fill="#000000" font-family="sans-serif" font-size="14" lengthAdjust="spacing" textLength="31" x="81.5" y="987.8451">Ring</text></g><!--entity Plunger--><g id="elem_Plunger"><rect fill="#F1F1F1" height="46.2969" rx="2.5" ry="2.5" style="stroke:#181818;stroke-width:0.5;" width="93" x="55.5" y="1111.85"/><rect fill="#F1F1F1" height="10" style="stroke:#181818;stroke-width:0.5;" width="15" x="128.5" y="1116.85"/><rect fill="#F1F1F1" height="2" style="stroke:#181818;stroke-width:0.5;" width="4" x="126.5" y="1118.85"/><rect fill="#F1F1F1" height="2" style="stroke:#181818;stroke-width:0.5;" width="4" x="126.5" y="1122.85"/><text fill="#000000" font-family="sans-serif" font-size="14" lengthAdjust="spacing" textLength="53" x="70.5" y="1144.8451">Plunger</text></g><!--entity Cap--><g id="elem_Cap"><rect fill="#F1F1F1" height="46.2969" rx="2.5" ry="2.5" style="stroke:#181818;stroke-width:0.5;" width="67" x="68.5" y="203.85"/><rect fill="#F1F1F1" height="10" style="stroke:#181818;stroke-width:0.5;" width="15" x="115.5" y="208.85"/><rect fill="#F1F1F1" height="2" style="stroke:#181818;stroke-width:0.5;" width="4" x="113.5" y="210.85"/><rect fill="#F1F1F1" height="2" style="stroke:#181818;stroke-width:0.5;" width="4" x="113.5" y="214.85"/><text fill="#000000" font-family="sans-serif" font-size="14" lengthAdjust="spacing" textLength="27" x="83.5" y="236.8451">Cap</text></g><!--entity holder cap--><g id="elem_holder cap"><ellipse cx="306" cy="71" fill="#F1F1F1" rx="8" ry="8" style="stroke:#181818;stroke-width:0.5;"/><text fill="#000000" font-family="sans-serif" font-size="14" lengthAdjust="spacing" textLength="73" x="269.5" y="100.9951">holder cap</text></g><!--entity House--><g id="elem_House"><rect fill="#F1F1F1" height="46.2969" rx="2.5" ry="2.5" style="stroke:#181818;stroke-width:0.5;" width="85" x="59.5" y="1268.85"/><rect fill="#F1F1F1" height="10" style="stroke:#181818;stroke-width:0.5;" width="15" x="124.5" y="1273.85"/><rect fill="#F1F1F1" height="2" style="stroke:#181818;stroke-width:0.5;" width="4" x="122.5" y="1275.85"/><rect fill="#F1F1F1" height="2" style="stroke:#181818;stroke-width:0.5;" width="4" x="122.5" y="1279.85"/><text fill="#000000" font-family="sans-serif" font-size="14" lengthAdjust="spacing" textLength="45" x="74.5" y="1301.8451">House</text></g><!--entity Small_nut--><g id="elem_Small_nut"><rect fill="#F1F1F1" height="46.2969" rx="2.5" ry="2.5" style="stroke:#181818;stroke-width:0.5;" width="106" x="49" y="400.85"/><rect fill="#F1F1F1" height="10" style="stroke:#181818;stroke-width:0.5;" width="15" x="135" y="405.85"/><rect fill="#F1F1F1" height="2" style="stroke:#181818;stroke-width:0.5;" width="4" x="133" y="407.85"/><rect fill="#F1F1F1" height="2" style="stroke:#181818;stroke-width:0.5;" width="4" x="133" y="411.85"/><text fill="#000000" font-family="sans-serif" font-size="14" lengthAdjust="spacing" textLength="66" x="64" y="433.8451">Small_nut</text></g><!--entity holder small nut--><g id="elem_holder small nut"><ellipse cx="306" cy="164" fill="#F1F1F1" rx="8" ry="8" style="stroke:#181818;stroke-width:0.5;"/><text fill="#000000" font-family="sans-serif" font-size="14" lengthAdjust="spacing" textLength="110" x="251" y="193.9951">holder small nut</text></g><!--entity Big_nut--><g id="elem_Big_nut"><rect fill="#F1F1F1" height="46.2969" rx="2.5" ry="2.5" style="stroke:#181818;stroke-width:0.5;" width="92" x="56" y="577.85"/><rect fill="#F1F1F1" height="10" style="stroke:#181818;stroke-width:0.5;" width="15" x="128" y="582.85"/><rect fill="#F1F1F1" height="2" style="stroke:#181818;stroke-width:0.5;" width="4" x="126" y="584.85"/><rect fill="#F1F1F1" height="2" style="stroke:#181818;stroke-width:0.5;" width="4" x="126" y="588.85"/><text fill="#000000" font-family="sans-serif" font-size="14" lengthAdjust="spacing" textLength="52" x="71" y="610.8451">Big_nut</text></g><!--entity holder big nut--><g id="elem_holder big nut"><ellipse cx="306" cy="257" fill="#F1F1F1" rx="8" ry="8" style="stroke:#181818;stroke-width:0.5;"/><text fill="#000000" font-family="sans-serif" font-size="14" lengthAdjust="spacing" textLength="96" x="258" y="286.9951">holder big nut</text></g><!--entity Assembled_valve--><g id="elem_Assembled_valve"><rect fill="#F1F1F1" height="46.2969" rx="2.5" ry="2.5" style="stroke:#181818;stroke-width:0.5;" width="158" x="23" y="1425.85"/><rect fill="#F1F1F1" height="10" style="stroke:#181818;stroke-width:0.5;" width="15" x="161" y="1430.85"/><rect fill="#F1F1F1" height="2" style="stroke:#181818;stroke-width:0.5;" width="4" x="159" y="1432.85"/><rect fill="#F1F1F1" height="2" style="stroke:#181818;stroke-width:0.5;" width="4" x="159" y="1436.85"/><text fill="#000000" font-family="sans-serif" font-size="14" lengthAdjust="spacing" textLength="118" x="38" y="1458.8451">Assembled_valve</text></g><!--entity Robot--><g id="elem_Robot"><rect fill="#F1F1F1" height="46.2969" rx="2.5" ry="2.5" style="stroke:#181818;stroke-width:0.5;" width="82" x="505.5" y="447.85"/><rect fill="#F1F1F1" height="10" style="stroke:#181818;stroke-width:0.5;" width="15" x="567.5" y="452.85"/><rect fill="#F1F1F1" height="2" style="stroke:#181818;stroke-width:0.5;" width="4" x="565.5" y="454.85"/><rect fill="#F1F1F1" height="2" style="stroke:#181818;stroke-width:0.5;" width="4" x="565.5" y="458.85"/><text fill="#000000" font-family="sans-serif" font-size="14" lengthAdjust="spacing" textLength="42" x="520.5" y="480.8451">Robot</text></g><!--entity end\neffector--><g id="elem_end\neffector"><ellipse cx="306" cy="837" fill="#F1F1F1" rx="8" ry="8" style="stroke:#181818;stroke-width:0.5;"/><text fill="#000000" font-family="sans-serif" font-size="14" lengthAdjust="spacing" textLength="27" x="279.5" y="866.9951">end</text><text fill="#000000" font-family="sans-serif" font-size="14" lengthAdjust="spacing" textLength="53" x="279.5" y="883.292">effector</text></g><!--entity position\nrobot--><g id="elem_position\nrobot"><ellipse cx="1285" cy="343" fill="#F1F1F1" rx="8" ry="8" style="stroke:#181818;stroke-width:0.5;"/><text fill="#000000" font-family="sans-serif" font-size="14" lengthAdjust="spacing" textLength="55" x="1257.5" y="372.9951">position</text><text fill="#000000" font-family="sans-serif" font-size="14" lengthAdjust="spacing" textLength="37" x="1257.5" y="389.292">robot</text></g><!--entity power\nrobot--><g id="elem_power\nrobot"><ellipse cx="814" cy="471" fill="#F1F1F1" rx="8" ry="8" style="stroke:#181818;stroke-width:0.5;"/><text fill="#000000" font-family="sans-serif" font-size="14" lengthAdjust="spacing" textLength="43" x="792.5" y="500.9951">power</text><text fill="#000000" font-family="sans-serif" font-size="14" lengthAdjust="spacing" textLength="37" x="792.5" y="517.292">robot</text></g><!--entity Gripper--><g id="elem_Gripper"><rect fill="#F1F1F1" height="46.2969" rx="2.5" ry="2.5" style="stroke:#181818;stroke-width:0.5;" width="91" x="56.5" y="813.85"/><rect fill="#F1F1F1" height="10" style="stroke:#181818;stroke-width:0.5;" width="15" x="127.5" y="818.85"/><rect fill="#F1F1F1" height="2" style="stroke:#181818;stroke-width:0.5;" width="4" x="125.5" y="820.85"/><rect fill="#F1F1F1" height="2" style="stroke:#181818;stroke-width:0.5;" width="4" x="125.5" y="824.85"/><text fill="#000000" font-family="sans-serif" font-size="14" lengthAdjust="spacing" textLength="51" x="71.5" y="846.8451">Gripper</text></g><!--entity Frame--><g id="elem_Frame"><rect fill="#F1F1F1" height="46.2969" rx="2.5" ry="2.5" style="stroke:#181818;stroke-width:0.5;" width="83" x="1444" y="279.85"/><rect fill="#F1F1F1" height="10" style="stroke:#181818;stroke-width:0.5;" width="15" x="1507" y="284.85"/><rect fill="#F1F1F1" height="2" style="stroke:#181818;stroke-width:0.5;" width="4" x="1505" y="286.85"/><rect fill="#F1F1F1" height="2" style="stroke:#181818;stroke-width:0.5;" width="4" x="1505" y="290.85"/><text fill="#000000" font-family="sans-serif" font-size="14" lengthAdjust="spacing" textLength="43" x="1459" y="312.8451">Frame</text></g><!--entity position\nassembly station cap--><g id="elem_position\nassembly station cap"><ellipse cx="1046" cy="89" fill="#F1F1F1" rx="8" ry="8" style="stroke:#181818;stroke-width:0.5;"/><text fill="#000000" font-family="sans-serif" font-size="14" lengthAdjust="spacing" textLength="55" x="973.5" y="118.9951">position</text><text fill="#000000" font-family="sans-serif" font-size="14" lengthAdjust="spacing" textLength="145" x="973.5" y="135.292">assembly station cap</text></g><!--entity position\nassembly station small nut--><g id="elem_position\nassembly station small nut"><ellipse cx="1285" cy="179" fill="#F1F1F1" rx="8" ry="8" style="stroke:#181818;stroke-width:0.5;"/><text fill="#000000" font-family="sans-serif" font-size="14" lengthAdjust="spacing" textLength="55" x="1194" y="208.9951">position</text><text fill="#000000" font-family="sans-serif" font-size="14" lengthAdjust="spacing" textLength="182" x="1194" y="225.292">assembly station small nut</text></g><!--entity position\nassembly station big nut--><g id="elem_position\nassembly station big nut"><ellipse cx="814" cy="262" fill="#F1F1F1" rx="8" ry="8" style="stroke:#181818;stroke-width:0.5;"/><text fill="#000000" font-family="sans-serif" font-size="14" lengthAdjust="spacing" textLength="55" x="730" y="291.9951">position</text><text fill="#000000" font-family="sans-serif" font-size="14" lengthAdjust="spacing" textLength="168" x="730" y="308.292">assembly station big nut</text></g><!--entity position\nvoltage cabinet--><g id="elem_position\nvoltage cabinet"><ellipse cx="1285" cy="471" fill="#F1F1F1" rx="8" ry="8" style="stroke:#181818;stroke-width:0.5;"/><text fill="#000000" font-family="sans-serif" font-size="14" lengthAdjust="spacing" textLength="55" x="1232.5" y="500.9951">position</text><text fill="#000000" font-family="sans-serif" font-size="14" lengthAdjust="spacing" textLength="105" x="1232.5" y="517.292">voltage cabinet</text></g><!--entity assembly_station_cap--><g id="elem_assembly_station_cap"><rect fill="#F1F1F1" height="46.2969" rx="2.5" ry="2.5" style="stroke:#181818;stroke-width:0.5;" width="191" x="451" y="48.85"/><rect fill="#F1F1F1" height="10" style="stroke:#181818;stroke-width:0.5;" width="15" x="622" y="53.85"/><rect fill="#F1F1F1" height="2" style="stroke:#181818;stroke-width:0.5;" width="4" x="620" y="55.85"/><rect fill="#F1F1F1" height="2" style="stroke:#181818;stroke-width:0.5;" width="4" x="620" y="59.85"/><text fill="#000000" font-family="sans-serif" font-size="14" lengthAdjust="spacing" textLength="151" x="466" y="81.8451">assembly_station_cap</text></g><!--entity assembly_station_small_nut--><g id="elem_assembly_station_small_nut"><rect fill="#F1F1F1" height="46.2969" rx="2.5" ry="2.5" style="stroke:#181818;stroke-width:0.5;" width="231" x="431" y="154.85"/><rect fill="#F1F1F1" height="10" style="stroke:#181818;stroke-width:0.5;" width="15" x="642" y="159.85"/><rect fill="#F1F1F1" height="2" style="stroke:#181818;stroke-width:0.5;" width="4" x="640" y="161.85"/><rect fill="#F1F1F1" height="2" style="stroke:#181818;stroke-width:0.5;" width="4" x="640" y="165.85"/><text fill="#000000" font-family="sans-serif" font-size="14" lengthAdjust="spacing" textLength="191" x="446" y="187.8451">assembly_station_small_nut</text></g><!--entity assembly_station_big_nut--><g id="elem_assembly_station_big_nut"><rect fill="#F1F1F1" height="46.2969" rx="2.5" ry="2.5" style="stroke:#181818;stroke-width:0.5;" width="217" x="438" y="237.85"/><rect fill="#F1F1F1" height="10" style="stroke:#181818;stroke-width:0.5;" width="15" x="635" y="242.85"/><rect fill="#F1F1F1" height="2" style="stroke:#181818;stroke-width:0.5;" width="4" x="633" y="244.85"/><rect fill="#F1F1F1" height="2" style="stroke:#181818;stroke-width:0.5;" width="4" x="633" y="248.85"/><text fill="#000000" font-family="sans-serif" font-size="14" lengthAdjust="spacing" textLength="177" x="453" y="270.8451">assembly_station_big_nut</text></g><!--entity voltage_cabinet--><g id="elem_voltage_cabinet"><rect fill="#F1F1F1" height="46.2969" rx="2.5" ry="2.5" style="stroke:#181818;stroke-width:0.5;" width="148" x="972" y="447.85"/><rect fill="#F1F1F1" height="10" style="stroke:#181818;stroke-width:0.5;" width="15" x="1100" y="452.85"/><rect fill="#F1F1F1" height="2" style="stroke:#181818;stroke-width:0.5;" width="4" x="1098" y="454.85"/><rect fill="#F1F1F1" height="2" style="stroke:#181818;stroke-width:0.5;" width="4" x="1098" y="458.85"/><text fill="#000000" font-family="sans-serif" font-size="14" lengthAdjust="spacing" textLength="108" x="987" y="480.8451">voltage_cabinet</text></g><!--link pickup\nposition\nring to Storage--><g id="link_pickup\nposition\nring_Storage"><path d="M314.4,969.25 C346.71,931.04 476.07,778.1 525.84,719.24 " fill="none" id="pickup\nposition\nring-Storage" style="stroke:#181818;stroke-width:1.0;"/></g><!--link pickup\nposition\nplunger to Storage--><g id="link_pickup\nposition\nplunger_Storage"><path d="M314.79,1126.73 C327.58,1112.86 353.39,1083.71 371,1056 C447.18,936.12 513,778.04 536.4,719.29 " fill="none" id="pickup\nposition\nplunger-Storage" style="stroke:#181818;stroke-width:1.0;"/></g><!--link pickup\nposition\ncap to Storage--><g id="link_pickup\nposition\ncap_Storage"><path d="M314.25,390.54 C326.26,404.77 350.98,434.3 371,460 C430.66,536.57 498.16,629.87 528.79,672.6 " fill="none" id="pickup\nposition\ncap-Storage" style="stroke:#181818;stroke-width:1.0;"/></g><!--link pickup\nposition\nhouse to Storage--><g id="link_pickup\nposition\nhouse_Storage"><path d="M314.77,1284.51 C328,1271.37 355.04,1242.8 371,1214 C469.2,1036.79 524.98,794.88 540.79,719.44 " fill="none" id="pickup\nposition\nhouse-Storage" style="stroke:#181818;stroke-width:1.0;"/></g><!--link pickup\nposition\nsmall nut to Storage--><g id="link_pickup\nposition\nsmall nut_Storage"><path d="M314.94,544.22 C345,564.02 453.09,635.17 509.96,672.6 " fill="none" id="pickup\nposition\nsmall nut-Storage" style="stroke:#181818;stroke-width:1.0;"/></g><!--link pickup\nposition\nbig nut to Storage--><g id="link_pickup\nposition\nbig nut_Storage"><path d="M314.94,696 C343.18,696 440.3,696 499.1,696 " fill="none" id="pickup\nposition\nbig nut-Storage" style="stroke:#181818;stroke-width:1.0;"/></g><!--link pickup\nposition\nassembled valve to Storage--><g id="link_pickup\nposition\nassembled valve_Storage"><path d="M314.99,1441.63 C328.56,1428.66 356.08,1400.36 371,1371 C491.06,1134.67 533.41,808.7 543.14,719.41 " fill="none" id="pickup\nposition\nassembled valve-Storage" style="stroke:#181818;stroke-width:1.0;"/></g><!--link Storage to position\nstorage--><g id="link_Storage_position\nstorage"><path d="M593.83,693.6 C662.34,689.65 794.59,680.54 906,664 C952.53,657.09 1006.93,644.37 1031.61,638.34 " fill="none" id="Storage-to-position\nstorage" style="stroke:#181818;stroke-width:1.0;"/><polygon fill="#181818" points="1036.22,636.96,1026.5281,635.2085,1031.3626,638.1458,1028.4254,642.9803,1036.22,636.96" style="stroke:#181818;stroke-width:1.0;"/></g><!--link Storage to power\nstorage--><g id="link_Storage_power\nstorage"><path d="M593.75,679.63 C655.8,657.66 762.51,619.88 799.73,606.7 " fill="none" id="Storage-to-power\nstorage" style="stroke:#181818;stroke-width:1.0;"/><polygon fill="#181818" points="804.09,604.8,794.2707,604.0374,799.3774,606.4708,796.944,611.5775,804.09,604.8" style="stroke:#181818;stroke-width:1.0;"/></g><!--link Ring to pickup\nposition\nring--><g id="link_Ring_pickup\nposition\nring"><path d="M137.73,978 C183.01,978 260.12,978 291.3,978 " fill="none" id="Ring-to-pickup\nposition\nring" style="stroke:#181818;stroke-width:1.0;"/><polygon fill="#181818" points="296.23,978,287.23,974,291.23,978,287.23,982,296.23,978" style="stroke:#181818;stroke-width:1.0;"/></g><!--link Plunger to pickup\nposition\nplunger--><g id="link_Plunger_pickup\nposition\nplunger"><path d="M148.84,1135 C194.72,1135 262.52,1135 291.29,1135 " fill="none" id="Plunger-to-pickup\nposition\nplunger" style="stroke:#181818;stroke-width:1.0;"/><polygon fill="#181818" points="296.12,1135,287.12,1131,291.12,1135,287.12,1139,296.12,1135" style="stroke:#181818;stroke-width:1.0;"/></g><!--link Cap to pickup\nposition\ncap--><g id="link_Cap_pickup\nposition\ncap"><path d="M133.68,250.54 C178.94,285.27 261.59,348.69 292.71,372.57 " fill="none" id="Cap-to-pickup\nposition\ncap" style="stroke:#181818;stroke-width:1.0;"/><polygon fill="#181818" points="296.25,376.05,291.5387,367.4011,292.281,373.009,286.6731,373.7514,296.25,376.05" style="stroke:#181818;stroke-width:1.0;"/></g><!--link Cap to holder cap--><g id="link_Cap_holder cap"><path d="M131.75,203.4 C159.44,180.83 202.65,146.04 241,117 C258.53,103.73 279.26,89 292.28,79.86 " fill="none" id="Cap-to-holder cap" style="stroke:#181818;stroke-width:1.0;"/><polygon fill="#181818" points="296.03,76.54,286.3591,78.4039,291.9278,79.3987,290.933,84.9674,296.03,76.54" style="stroke:#181818;stroke-width:1.0;"/></g><!--link House to pickup\nposition\nhouse--><g id="link_House_pickup\nposition\nhouse"><path d="M144.85,1292 C190.81,1292 262,1292 291.49,1292 " fill="none" id="House-to-pickup\nposition\nhouse" style="stroke:#181818;stroke-width:1.0;"/><polygon fill="#181818" points="296.13,1292,287.13,1288,291.13,1292,287.13,1296,296.13,1292" style="stroke:#181818;stroke-width:1.0;"/></g><!--link Small_nut to pickup\nposition\nsmall nut--><g id="link_Small_nut_pickup\nposition\nsmall nut"><path d="M144.37,447.55 C190.66,473.9 262.98,515.08 292.16,531.69 " fill="none" id="Small_nut-to-pickup\nposition\nsmall nut" style="stroke:#181818;stroke-width:1.0;"/><polygon fill="#181818" points="296.09,534.5,290.2463,526.5721,291.7444,532.027,286.2895,533.5251,296.09,534.5" style="stroke:#181818;stroke-width:1.0;"/></g><!--link Small_nut to holder small nut--><g id="link_Small_nut_holder small nut"><path d="M114.41,400.47 C135.39,358.8 183.28,270.71 241,210 C256.48,193.72 278.43,179.4 292.19,171.22 " fill="none" id="Small_nut-to-holder small nut" style="stroke:#181818;stroke-width:1.0;"/><polygon fill="#181818" points="296.2,168.3,286.4127,169.3999,291.8863,170.8282,290.4579,176.3018,296.2,168.3" style="stroke:#181818;stroke-width:1.0;"/></g><!--link Big_nut to pickup\nposition\nbig nut--><g id="link_Big_nut_pickup\nposition\nbig nut"><path d="M148.33,622.32 C194.57,644.07 263.44,676.46 291.94,689.86 " fill="none" id="Big_nut-to-pickup\nposition\nbig nut" style="stroke:#181818;stroke-width:1.0;"/><polygon fill="#181818" points="296.08,692.27,289.6364,684.8215,291.5549,690.1431,286.2333,692.0616,296.08,692.27" style="stroke:#181818;stroke-width:1.0;"/></g><!--link Big_nut to holder big nut--><g id="link_Big_nut_holder big nut"><path d="M118.04,577.57 C134.74,550.96 161.85,505.92 181,465 C213.54,395.46 194.46,364.07 241,303 C254.76,284.94 277.58,270.96 291.93,263.36 " fill="none" id="Big_nut-to-holder big nut" style="stroke:#181818;stroke-width:1.0;"/><polygon fill="#181818" points="296.15,260.68,286.3157,261.2154,291.6981,262.9561,289.9574,268.3384,296.15,260.68" style="stroke:#181818;stroke-width:1.0;"/></g><!--link Assembled_valve to pickup\nposition\nassembled valve--><g id="link_Assembled_valve_pickup\nposition\nassembled valve"><path d="M181.39,1449 C222.37,1449 268.58,1449 291.13,1449 " fill="none" id="Assembled_valve-to-pickup\nposition\nassembled valve" style="stroke:#181818;stroke-width:1.0;"/><polygon fill="#181818" points="296.09,1449,287.09,1445,291.09,1449,287.09,1453,296.09,1449" style="stroke:#181818;stroke-width:1.0;"/></g><!--link end\neffector to Robot--><g id="link_end\neffector_Robot"><path d="M314.91,830.7 C327.87,820.07 353.91,797.43 371,774 C405.9,726.14 401.99,706.64 431,655 C464.17,595.95 507.3,528.97 529.99,494.41 " fill="none" id="end\neffector-Robot" style="stroke:#181818;stroke-width:1.0;"/></g><!--link Robot to position\nrobot--><g id="link_Robot_position\nrobot"><path d="M587.94,453.37 C622.8,438.91 674.81,419.09 722,408 C936.92,357.49 1207.7,345.57 1270.55,343.41 " fill="none" id="Robot-to-position\nrobot" style="stroke:#181818;stroke-width:1.0;"/><polygon fill="#181818" points="1275.28,343.22,1266.1588,339.5047,1270.2825,343.3771,1266.4101,347.5007,1275.28,343.22" style="stroke:#181818;stroke-width:1.0;"/></g><!--link Robot to power\nrobot--><g id="link_Robot_power\nrobot"><path d="M587.82,471 C648.69,471 761,471 799.58,471 " fill="none" id="Robot-to-power\nrobot" style="stroke:#181818;stroke-width:1.0;"/><polygon fill="#181818" points="804.12,471,795.12,467,799.12,471,795.12,475,804.12,471" style="stroke:#181818;stroke-width:1.0;"/></g><!--link Gripper to pickup\nposition\nring--><g id="link_Gripper_pickup\nposition\nring"><path d="M136.81,860.6 C182.46,892.47 261.64,947.73 292.33,969.16 " fill="none" id="Gripper-to-pickup\nposition\nring" style="stroke:#181818;stroke-width:1.0;"/><polygon fill="#181818" points="296.16,972.52,291.0827,964.0807,292.0645,969.6517,286.4935,970.6335,296.16,972.52" style="stroke:#181818;stroke-width:1.0;"/></g><!--link Gripper to pickup\nposition\nplunger--><g id="link_Gripper_pickup\nposition\nplunger"><path d="M123.29,860.28 C139.9,879.96 163.44,909.29 181,937 C212.7,987.04 208.84,1006.26 241,1056 C257.15,1080.99 279.78,1107.32 293.36,1122.39 " fill="none" id="Gripper-to-pickup\nposition\nplunger" style="stroke:#181818;stroke-width:1.0;"/><polygon fill="#181818" points="296.26,1125.69,293.1926,1116.331,292.9073,1121.9806,287.2576,1121.6953,296.26,1125.69" style="stroke:#181818;stroke-width:1.0;"/></g><!--link Gripper to pickup\nposition\ncap--><g id="link_Gripper_pickup\nposition\ncap"><path d="M112.96,813.47 C128.28,777 158.22,704.52 181,642 C210.16,561.98 199.96,534.63 241,460 C255.38,433.85 278.97,407.96 293.14,393.56 " fill="none" id="Gripper-to-pickup\nposition\ncap" style="stroke:#181818;stroke-width:1.0;"/><polygon fill="#181818" points="296.21,390.48,287.0248,394.0341,292.6816,394.0227,292.693,399.6795,296.21,390.48" style="stroke:#181818;stroke-width:1.0;"/></g><!--link Gripper to pickup\nposition\nhouse--><g id="link_Gripper_pickup\nposition\nhouse"><path d="M126.28,860.4 C143.92,879.46 167.37,907.89 181,937 C234.41,1051.08 186.18,1100.59 241,1214 C254.13,1241.16 278.55,1267.07 293.13,1281.13 " fill="none" id="Gripper-to-pickup\nposition\nhouse" style="stroke:#181818;stroke-width:1.0;"/><polygon fill="#181818" points="296.32,1284.1,292.5444,1275.0036,292.6929,1280.6585,287.038,1280.807,296.32,1284.1" style="stroke:#181818;stroke-width:1.0;"/></g><!--link Gripper to pickup\nposition\nsmall nut--><g id="link_Gripper_pickup\nposition\nsmall nut"><path d="M116.37,813.57 C140,772.66 191.36,685.99 241,617 C258.06,593.29 280.05,567.37 293.31,552.19 " fill="none" id="Gripper-to-pickup\nposition\nsmall nut" style="stroke:#181818;stroke-width:1.0;"/><polygon fill="#181818" points="297.13,548.83,288.2021,552.9884,293.8456,552.6,294.234,558.2435,297.13,548.83" style="stroke:#181818;stroke-width:1.0;"/></g><!--link Gripper to pickup\nposition\nbig nut--><g id="link_Gripper_pickup\nposition\nbig nut"><path d="M136.81,813.4 C182.46,781.53 261.64,726.27 292.33,704.84 " fill="none" id="Gripper-to-pickup\nposition\nbig nut" style="stroke:#181818;stroke-width:1.0;"/><polygon fill="#181818" points="296.16,701.48,286.4935,703.3665,292.0645,704.3483,291.0827,709.9193,296.16,701.48" style="stroke:#181818;stroke-width:1.0;"/></g><!--link Gripper to end\neffector--><g id="link_Gripper_end\neffector"><path d="M147.83,837 C193.65,837 262.08,837 291.14,837 " fill="none" id="Gripper-to-end\neffector" style="stroke:#181818;stroke-width:1.0;"/><polygon fill="#181818" points="296.03,837,287.03,833,291.03,837,287.03,841,296.03,837" style="stroke:#181818;stroke-width:1.0;"/></g><!--link position\nrobot to Frame--><g id="link_position\nrobot_Frame"><path d="M1293.54,341.48 C1317.83,336.59 1395.28,320.98 1443.76,311.21 " fill="none" id="position\nrobot-Frame" style="stroke:#181818;stroke-width:1.0;"/></g><!--link position\nstorage to Frame--><g id="link_position\nstorage_Frame"><path d="M1054.73,634.92 C1094.71,634.12 1280.04,625.36 1384,533 C1447.53,476.56 1472.59,372.66 1480.92,326.34 " fill="none" id="position\nstorage-Frame" style="stroke:#181818;stroke-width:1.0;"/></g><!--link position\nassembly station cap to Frame--><g id="link_position\nassembly station cap_Frame"><path d="M1054.96,87.1 C1094.54,78.1 1272.71,43.28 1384,116 C1442.47,154.21 1469.44,238.32 1479.51,279.43 " fill="none" id="position\nassembly station cap-Frame" style="stroke:#181818;stroke-width:1.0;"/></g><!--link position\nassembly station small nut to Frame--><g id="link_position\nassembly station small nut_Frame"><path d="M1293.54,183.71 C1318.33,199.19 1398.46,249.25 1446.69,279.38 " fill="none" id="position\nassembly station small nut-Frame" style="stroke:#181818;stroke-width:1.0;"/></g><!--link position\nassembly station big nut to Frame--><g id="link_position\nassembly station big nut_Frame"><path d="M822.74,261.68 C872.83,259.76 1156.1,250.6 1384,280 C1403.88,282.57 1425.6,287.29 1443.75,291.79 " fill="none" id="position\nassembly station big nut-Frame" style="stroke:#181818;stroke-width:1.0;"/></g><!--link position\nvoltage cabinet to Frame--><g id="link_position\nvoltage cabinet_Frame"><path d="M1294,466.37 C1311.21,456.24 1352.75,430.94 1384,405 C1413.65,380.39 1444.24,348.19 1463.76,326.61 " fill="none" id="position\nvoltage cabinet-Frame" style="stroke:#181818;stroke-width:1.0;"/></g><!--link holder cap to assembly_station_cap--><g id="link_holder cap_assembly_station_cap"><path d="M314.94,71.03 C336.27,71.12 396.91,71.38 450.64,71.6 " fill="none" id="holder cap-assembly_station_cap" style="stroke:#181818;stroke-width:1.0;"/></g><!--link assembly_station_cap to position\nassembly station cap--><g id="link_assembly_station_cap_position\nassembly station cap"><path d="M642.25,75.24 C766.6,79.49 975.59,86.63 1031.11,88.53 " fill="none" id="assembly_station_cap-to-position\nassembly station cap" style="stroke:#181818;stroke-width:1.0;"/><polygon fill="#181818" points="1036.11,88.73,1027.2523,84.424,1031.1129,88.5587,1026.9782,92.4193,1036.11,88.73" style="stroke:#181818;stroke-width:1.0;"/></g><!--link holder small nut to assembly_station_small_nut--><g id="link_holder small nut_assembly_station_small_nut"><path d="M314.94,164.47 C333.65,165.56 382.57,168.44 430.57,171.25 " fill="none" id="holder small nut-assembly_station_small_nut" style="stroke:#181818;stroke-width:1.0;"/></g><!--link assembly_station_small_nut to position\nassembly station small nut--><g id="link_assembly_station_small_nut_position\nassembly station small nut"><path d="M662.17,178.16 C847.02,178.41 1197.58,178.88 1270.51,178.98 " fill="none" id="assembly_station_small_nut-to-position\nassembly station small nut" style="stroke:#181818;stroke-width:1.0;"/><polygon fill="#181818" points="1275.34,178.99,1266.34,174.99,1270.34,178.99,1266.34,182.99,1275.34,178.99" style="stroke:#181818;stroke-width:1.0;"/></g><!--link holder big nut to assembly_station_big_nut--><g id="link_holder big nut_assembly_station_big_nut"><path d="M314.94,257.13 C334.58,257.46 387.51,258.35 437.71,259.19 " fill="none" id="holder big nut-assembly_station_big_nut" style="stroke:#181818;stroke-width:1.0;"/></g><!--link assembly_station_big_nut to position\nassembly station big nut--><g id="link_assembly_station_big_nut_position\nassembly station big nut"><path d="M655.49,261.41 C711.05,261.62 772.6,261.85 799.35,261.95 " fill="none" id="assembly_station_big_nut-to-position\nassembly station big nut" style="stroke:#181818;stroke-width:1.0;"/><polygon fill="#181818" points="804.09,261.97,795.113,257.9186,799.0901,261.9414,795.0673,265.9185,804.09,261.97" style="stroke:#181818;stroke-width:1.0;"/></g><!--link voltage_cabinet to position\nvoltage cabinet--><g id="link_voltage_cabinet_position\nvoltage cabinet"><path d="M1120.37,471 C1173.95,471 1242.02,471 1270.51,471 " fill="none" id="voltage_cabinet-to-position\nvoltage cabinet" style="stroke:#181818;stroke-width:1.0;"/><polygon fill="#181818" points="1275.27,471,1266.27,467,1270.27,471,1266.27,475,1275.27,471" style="stroke:#181818;stroke-width:1.0;"/></g><!--link power\nrobot to voltage_cabinet--><g id="link_power\nrobot_voltage_cabinet"><path d="M822.92,471 C846.22,471 916.4,471 971.69,471 " fill="none" id="power\nrobot-voltage_cabinet" style="stroke:#181818;stroke-width:1.0;"/></g><!--link power\nstorage to voltage_cabinet--><g id="link_power\nstorage_voltage_cabinet"><path d="M822.92,597.49 C851.04,581.47 947.42,526.58 1003.54,494.61 " fill="none" id="power\nstorage-voltage_cabinet" style="stroke:#181818;stroke-width:1.0;"/></g><!--SRC=[ZLNBZjiW5DtxAr0sqoxo2vMc8xLTLXsfcwQoi4qS5088SAfHrNyl-88D3CJE8k9nxYFt74xqbNA95RwX3lVNKOc93o-22OMCmbpRAy9DmyZP82EGekF5e84gqXigUFEabt16EJ5laY2Xp4KqJIzkKd0RZ7vYTYSjrfhSElRMQc8cYVuso7xchr-lHYWyaj_pxiD7T92qlqxonANGrDKvSKNvU4378_BO1r399ZuIjHFTOxaJUH6J9Zkn-eOPGtmoE_4T7NCqUW3tioG3khlP9c7BMCF1yVZ9vbXRW-D32VE7g0W0vFomamTctCeZo_n4b7u74Y3GRsgnWJ1Vy0LB2BEBMeXZBSLS11jiYVa2ydnpV46cULdB1Rpwe5T7N6kfWC1bMmjUYIxXVLCH2AfyfkDQmszg5O8qtcDzzWK0kP-3DjfP6r0ZEwpLodKL920wOTRNIVXmukHyjXuWu9dD0D28M-MIK-xmiDx7QlDtKEYheb86rVZDjk8sW8kyTc0NNMtWl6Ps83E1RA0JiXDiEdG_ho_MU6FRp2Rkg9aX1KHuvOymmRAHDjYTe62MkmDI7zmT5jjXBUWkc77MrUFE_VD4M9ZD-dy3ITi- -8hB4zc52oo1Pspf8fTtSKoH5xxBeLEJYVf9vrKFBFUcCxVQmykZFhlOfg8kOtfgGUKEkyJhjWNWkVHSjvvhQ2Wxp7Fc-eWa51cF-mbPeXmOlvGSslpx3m00]--></g></svg>