<?xml version="1.0" encoding="us-ascii" standalone="no"?><svg xmlns="http://www.w3.org/2000/svg" xmlns:xlink="http://www.w3.org/1999/xlink" contentStyleType="text/css" height="592px" preserveAspectRatio="none" style="width:384px;height:592px;background:#FFFFFF;" version="1.1" viewBox="0 0 384 592" width="384px" zoomAndPan="magnify"><defs/><g><ellipse cx="132" cy="20" fill="#222222" rx="10" ry="10" style="stroke:#222222;stroke-width:1.0;"/><rect fill="#F1F1F1" height="33.9688" rx="12.5" ry="12.5" style="stroke:#181818;stroke-width:0.5;" width="77" x="93.5" y="50"/><text fill="#000000" font-family="sans-serif" font-size="12" lengthAdjust="spacing" textLength="57" x="103.5" y="71.1387">Grab cap</text><rect fill="#F1F1F1" height="33.9688" rx="12.5" ry="12.5" style="stroke:#181818;stroke-width:0.5;" width="205" x="29.5" y="103.9688"/><text fill="#000000" font-family="sans-serif" font-size="12" lengthAdjust="spacing" textLength="185" x="39.5" y="125.1074">Place cap in the cap fastener</text><rect fill="#FFC0CB" height="33.9688" rx="12.5" ry="12.5" style="stroke:#181818;stroke-width:0.5;" width="55" x="104.5" y="206.3398"/><text fill="#000000" font-family="sans-serif" font-size="12" lengthAdjust="spacing" textLength="31" x="118.5" y="227.4785">error</text><polygon fill="#F1F1F1" points="88,157.9375,176,157.9375,188,169.9375,176,181.9375,88,181.9375,76,169.9375,88,157.9375" style="stroke:#181818;stroke-width:0.5;"/><text fill="#000000" font-family="sans-serif" font-size="11" lengthAdjust="spacing" textLength="20" x="136" y="192.1479">yes</text><text fill="#000000" font-family="sans-serif" font-size="11" lengthAdjust="spacing" textLength="88" x="88" y="173.7456">cap misplaced?</text><rect fill="#F1F1F1" height="33.9688" rx="12.5" ry="12.5" style="stroke:#181818;stroke-width:0.5;" width="242" x="11" y="329.3169"/><text fill="#000000" font-family="sans-serif" font-size="12" lengthAdjust="spacing" textLength="222" x="21" y="350.4556">Place middle part on top of the cap</text><rect fill="#F1F1F1" height="33.9688" rx="12.5" ry="12.5" style="stroke:#181818;stroke-width:0.5;" width="166" x="49" y="427.2856"/><text fill="#000000" font-family="sans-serif" font-size="12" lengthAdjust="spacing" textLength="146" x="59" y="448.4243">rotate fastener 2 times</text><polygon fill="#F1F1F1" points="132,383.2856,144,395.2856,132,407.2856,120,395.2856,132,383.2856" style="stroke:#181818;stroke-width:0.5;"/><polygon fill="#F1F1F1" points="85,481.2544,179,481.2544,191,493.2544,179,505.2544,85,505.2544,73,493.2544,85,481.2544" style="stroke:#181818;stroke-width:0.5;"/><text fill="#000000" font-family="sans-serif" font-size="11" lengthAdjust="spacing" textLength="94" x="85" y="497.0625">rotated 2 times?</text><text fill="#000000" font-family="sans-serif" font-size="11" lengthAdjust="spacing" textLength="14" x="191" y="490.6602">no</text><ellipse cx="132" cy="570.458" fill="none" rx="11" ry="11" style="stroke:#222222;stroke-width:1.0;"/><ellipse cx="132" cy="570.458" fill="#222222" rx="6" ry="6" style="stroke:#111111;stroke-width:1.0;"/><line style="stroke:#181818;stroke-width:1.0;" x1="132" x2="132" y1="30" y2="50"/><polygon fill="#181818" points="128,40,132,50,136,40,132,44" style="stroke:#181818;stroke-width:1.0;"/><line style="stroke:#181818;stroke-width:1.0;" x1="132" x2="132" y1="83.9688" y2="103.9688"/><polygon fill="#181818" points="128,93.9688,132,103.9688,136,93.9688,132,97.9688" style="stroke:#181818;stroke-width:1.0;"/><line style="stroke:#181818;stroke-width:1.0;" x1="132" x2="132" y1="181.9375" y2="206.3398"/><polygon fill="#181818" points="128,196.3398,132,206.3398,136,196.3398,132,200.3398" style="stroke:#181818;stroke-width:1.0;"/><line style="stroke:#181818;stroke-width:1.0;" x1="188" x2="200" y1="169.9375" y2="169.9375"/><polygon fill="#181818" points="196,210.3242,200,220.3242,204,210.3242,200,214.3242" style="stroke:#181818;stroke-width:1.0;"/><line style="stroke:#181818;stroke-width:1.0;" x1="200" x2="200" y1="169.9375" y2="262.3086"/><line style="stroke:#181818;stroke-width:1.0;" x1="200" x2="132" y1="262.3086" y2="262.3086"/><line style="stroke:#181818;stroke-width:1.0;" x1="132" x2="132" y1="137.9375" y2="157.9375"/><polygon fill="#181818" points="128,147.9375,132,157.9375,136,147.9375,132,151.9375" style="stroke:#181818;stroke-width:1.0;"/><line style="stroke:#181818;stroke-width:1.0;" x1="132" x2="132" y1="262.3086" y2="329.3169"/><polygon fill="#181818" points="128,319.3169,132,329.3169,136,319.3169,132,323.3169" style="stroke:#181818;stroke-width:1.0;"/><text fill="#000000" font-family="sans-serif" font-size="11" lengthAdjust="spacing" textLength="14" x="136" y="283.6133">no</text><text fill="#000000" font-family="sans-serif" font-size="11" lengthAdjust="spacing" textLength="150" x="152" y="296.418">:Go back to home position</text><text fill="#000000" font-family="sans-serif" font-size="11" lengthAdjust="spacing" textLength="214" x="152" y="309.2227">:Grab the middle part by the hexagon</text><line style="stroke:#181818;stroke-width:1.0;" x1="132" x2="132" y1="407.2856" y2="427.2856"/><polygon fill="#181818" points="128,417.2856,132,427.2856,136,417.2856,132,421.2856" style="stroke:#181818;stroke-width:1.0;"/><line style="stroke:#181818;stroke-width:1.0;" x1="191" x2="227" y1="493.2544" y2="493.2544"/><polygon fill="#181818" points="223,454.27,227,444.27,231,454.27,227,450.27" style="stroke:#181818;stroke-width:1.0;"/><line style="stroke:#181818;stroke-width:1.0;" x1="227" x2="227" y1="395.2856" y2="493.2544"/><line style="stroke:#181818;stroke-width:1.0;" x1="227" x2="144" y1="395.2856" y2="395.2856"/><polygon fill="#181818" points="154,391.2856,144,395.2856,154,399.2856,150,395.2856" style="stroke:#181818;stroke-width:1.0;"/><line style="stroke:#181818;stroke-width:1.0;" x1="132" x2="132" y1="461.2544" y2="481.2544"/><polygon fill="#181818" points="128,471.2544,132,481.2544,136,471.2544,132,475.2544" style="stroke:#181818;stroke-width:1.0;"/><line style="stroke:#181818;stroke-width:1.0;" x1="132" x2="132" y1="363.2856" y2="383.2856"/><polygon fill="#181818" points="128,373.2856,132,383.2856,136,373.2856,132,377.2856" style="stroke:#181818;stroke-width:1.0;"/><line style="stroke:#181818;stroke-width:1.0;" x1="132" x2="132" y1="505.2544" y2="559.458"/><polygon fill="#181818" points="128,549.458,132,559.458,136,549.458,132,553.458" style="stroke:#181818;stroke-width:1.0;"/><text fill="#000000" font-family="sans-serif" font-size="11" lengthAdjust="spacing" textLength="20" x="136" y="526.5591">yes</text><text fill="#000000" font-family="sans-serif" font-size="11" lengthAdjust="spacing" textLength="220" x="152" y="539.3638">:lift the middle part out of the fastener</text><!--SRC=[PP0nRiCm34LtdO905tleqZ46sh5hhq1RL4nO9WM9HPlRLuhYD4KrYUJ7v_iiXjaSr7TwppZ3WcdgvKV4XLeDB61h_mOiHa9vSXnWQ9sTIsfA_pOsbS1meJ9UBPuIotO2obbpDzquHaVYERZdLn2zBLQOSTd055RT2P8MDbPvm6hxT_O-rca5XlboRQtqZMULFyIFCgtaca334M1ocHBXBN5MGwDxA7W1uvtA8OAlbQlJq6N-6DUWN60G7Lk8chQRHGxsZrC_xTZ-UphdIgNw0G00]--></g></svg>