<?xml version="1.0" encoding="us-ascii" standalone="no"?><svg xmlns="http://www.w3.org/2000/svg" xmlns:xlink="http://www.w3.org/1999/xlink" contentStyleType="text/css" height="308px" preserveAspectRatio="none" style="width:1315px;height:308px;" version="1.1" viewBox="0 0 1315 308" width="1315px" zoomAndPan="magnify"><defs/><g><!--cluster Connections--><g id="cluster_Connections"><rect fill="none" height="295" rx="2.5" ry="2.5" style="stroke:#181818;stroke-width:1.0;" width="1302" x="7" y="7"/><rect fill="none" height="10" style="stroke:#181818;stroke-width:1.0;" width="15" x="1289" y="12"/><rect fill="none" height="2" style="stroke:#181818;stroke-width:1.0;" width="4" x="1287" y="14"/><rect fill="none" height="2" style="stroke:#181818;stroke-width:1.0;" width="4" x="1287" y="18"/><text fill="#000000" font-family="sans-serif" font-size="14" font-weight="bold" lengthAdjust="spacing" textLength="99" x="608.5" y="32.9951">Connections</text></g><!--entity Beckhoff_EK1100--><g id="elem_Beckhoff_EK1100"><rect fill="#F1F1F1" height="46.2969" rx="2.5" ry="2.5" style="stroke:#181818;stroke-width:0.5;" width="162" x="1131" y="142.85"/><rect fill="#F1F1F1" height="10" style="stroke:#181818;stroke-width:0.5;" width="15" x="1273" y="147.85"/><rect fill="#F1F1F1" height="2" style="stroke:#181818;stroke-width:0.5;" width="4" x="1271" y="149.85"/><rect fill="#F1F1F1" height="2" style="stroke:#181818;stroke-width:0.5;" width="4" x="1271" y="153.85"/><text fill="#000000" font-family="sans-serif" font-size="14" lengthAdjust="spacing" textLength="122" x="1146" y="175.8451">Beckhoff_EK1100</text></g><!--entity Schuifverbinding1--><g id="elem_Schuifverbinding1"><ellipse cx="1002" cy="166" fill="#F1F1F1" rx="8" ry="8" style="stroke:#181818;stroke-width:0.5;"/><text fill="#000000" font-family="sans-serif" font-size="14" lengthAdjust="spacing" textLength="123" x="940.5" y="195.9951">Schuifverbinding1</text></g><!--entity Schuifverbinding2--><g id="elem_Schuifverbinding2"><ellipse cx="1002" cy="73" fill="#F1F1F1" rx="8" ry="8" style="stroke:#181818;stroke-width:0.5;"/><text fill="#000000" font-family="sans-serif" font-size="14" lengthAdjust="spacing" textLength="123" x="940.5" y="102.9951">Schuifverbinding2</text></g><!--entity UTP1(RJ45)--><g id="elem_UTP1(RJ45)"><ellipse cx="779" cy="254" fill="#F1F1F1" rx="8" ry="8" style="stroke:#181818;stroke-width:0.5;"/><text fill="#000000" font-family="sans-serif" font-size="14" lengthAdjust="spacing" textLength="78" x="740" y="283.9951">UTP1(RJ45)</text></g><!--entity PLC--><g id="elem_PLC"><rect fill="#F1F1F1" height="46.2969" rx="2.5" ry="2.5" style="stroke:#181818;stroke-width:0.5;" width="66" x="384.5" y="232.85"/><rect fill="#F1F1F1" height="10" style="stroke:#181818;stroke-width:0.5;" width="15" x="430.5" y="237.85"/><rect fill="#F1F1F1" height="2" style="stroke:#181818;stroke-width:0.5;" width="4" x="428.5" y="239.85"/><rect fill="#F1F1F1" height="2" style="stroke:#181818;stroke-width:0.5;" width="4" x="428.5" y="243.85"/><text fill="#000000" font-family="sans-serif" font-size="14" lengthAdjust="spacing" textLength="26" x="399.5" y="265.8451">PLC</text></g><!--entity UTP2(RJ45)--><g id="elem_UTP2(RJ45)"><ellipse cx="267" cy="257" fill="#F1F1F1" rx="8" ry="8" style="stroke:#181818;stroke-width:0.5;"/><text fill="#000000" font-family="sans-serif" font-size="14" lengthAdjust="spacing" textLength="78" x="228" y="286.9951">UTP2(RJ45)</text></g><!--entity Beckhoff_inputkaart--><g id="elem_Beckhoff_inputkaart"><rect fill="#F1F1F1" height="46.2969" rx="2.5" ry="2.5" style="stroke:#181818;stroke-width:0.5;" width="177" x="690.5" y="142.85"/><rect fill="#F1F1F1" height="10" style="stroke:#181818;stroke-width:0.5;" width="15" x="847.5" y="147.85"/><rect fill="#F1F1F1" height="2" style="stroke:#181818;stroke-width:0.5;" width="4" x="845.5" y="149.85"/><rect fill="#F1F1F1" height="2" style="stroke:#181818;stroke-width:0.5;" width="4" x="845.5" y="153.85"/><text fill="#000000" font-family="sans-serif" font-size="14" lengthAdjust="spacing" textLength="137" x="705.5" y="175.8451">Beckhoff_inputkaart</text></g><!--entity Input-Output--><g id="elem_Input-Output"><ellipse cx="573" cy="166" fill="#F1F1F1" rx="8" ry="8" style="stroke:#181818;stroke-width:0.5;"/><text fill="#000000" font-family="sans-serif" font-size="14" lengthAdjust="spacing" textLength="88" x="529" y="195.9951">Input-Output</text></g><!--entity Beckhoff_outputkaart--><g id="elem_Beckhoff_outputkaart"><rect fill="#F1F1F1" height="46.2969" rx="2.5" ry="2.5" style="stroke:#181818;stroke-width:0.5;" width="188" x="685" y="49.85"/><rect fill="#F1F1F1" height="10" style="stroke:#181818;stroke-width:0.5;" width="15" x="853" y="54.85"/><rect fill="#F1F1F1" height="2" style="stroke:#181818;stroke-width:0.5;" width="4" x="851" y="56.85"/><rect fill="#F1F1F1" height="2" style="stroke:#181818;stroke-width:0.5;" width="4" x="851" y="60.85"/><text fill="#000000" font-family="sans-serif" font-size="14" lengthAdjust="spacing" textLength="148" x="700" y="82.8451">Beckhoff_outputkaart</text></g><!--entity Output-Input--><g id="elem_Output-Input"><ellipse cx="573" cy="73" fill="#F1F1F1" rx="8" ry="8" style="stroke:#181818;stroke-width:0.5;"/><text fill="#000000" font-family="sans-serif" font-size="14" lengthAdjust="spacing" textLength="88" x="529" y="102.9951">Output-Input</text></g><!--entity DELTA_Switch--><g id="elem_DELTA_Switch"><rect fill="#F1F1F1" height="46.2969" rx="2.5" ry="2.5" style="stroke:#181818;stroke-width:0.5;" width="137" x="23" y="140.85"/><rect fill="#F1F1F1" height="10" style="stroke:#181818;stroke-width:0.5;" width="15" x="140" y="145.85"/><rect fill="#F1F1F1" height="2" style="stroke:#181818;stroke-width:0.5;" width="4" x="138" y="147.85"/><rect fill="#F1F1F1" height="2" style="stroke:#181818;stroke-width:0.5;" width="4" x="138" y="151.85"/><text fill="#000000" font-family="sans-serif" font-size="14" lengthAdjust="spacing" textLength="97" x="38" y="173.8451">DELTA_Switch</text></g><!--entity UTP3(RJ45)--><g id="elem_UTP3(RJ45)"><ellipse cx="267" cy="164" fill="#F1F1F1" rx="8" ry="8" style="stroke:#181818;stroke-width:0.5;"/><text fill="#000000" font-family="sans-serif" font-size="14" lengthAdjust="spacing" textLength="78" x="228" y="193.9951">UTP3(RJ45)</text></g><!--entity UTP4(RJ45)--><g id="elem_UTP4(RJ45)"><ellipse cx="267" cy="71" fill="#F1F1F1" rx="8" ry="8" style="stroke:#181818;stroke-width:0.5;"/><text fill="#000000" font-family="sans-serif" font-size="14" lengthAdjust="spacing" textLength="78" x="228" y="100.9951">UTP4(RJ45)</text></g><!--entity Laptop--><g id="elem_Laptop"><rect fill="#F1F1F1" height="46.2969" rx="2.5" ry="2.5" style="stroke:#181818;stroke-width:0.5;" width="87" x="374" y="140.85"/><rect fill="#F1F1F1" height="10" style="stroke:#181818;stroke-width:0.5;" width="15" x="441" y="145.85"/><rect fill="#F1F1F1" height="2" style="stroke:#181818;stroke-width:0.5;" width="4" x="439" y="147.85"/><rect fill="#F1F1F1" height="2" style="stroke:#181818;stroke-width:0.5;" width="4" x="439" y="151.85"/><text fill="#000000" font-family="sans-serif" font-size="14" lengthAdjust="spacing" textLength="47" x="389" y="173.8451">Laptop</text></g><!--entity Robot--><g id="elem_Robot"><rect fill="#F1F1F1" height="46.2969" rx="2.5" ry="2.5" style="stroke:#181818;stroke-width:0.5;" width="82" x="376.5" y="49.85"/><rect fill="#F1F1F1" height="10" style="stroke:#181818;stroke-width:0.5;" width="15" x="438.5" y="54.85"/><rect fill="#F1F1F1" height="2" style="stroke:#181818;stroke-width:0.5;" width="4" x="436.5" y="56.85"/><rect fill="#F1F1F1" height="2" style="stroke:#181818;stroke-width:0.5;" width="4" x="436.5" y="60.85"/><text fill="#000000" font-family="sans-serif" font-size="14" lengthAdjust="spacing" textLength="42" x="391.5" y="82.8451">Robot</text></g><!--link Schuifverbinding1 to Beckhoff_EK1100--><g id="link_Schuifverbinding1_Beckhoff_EK1100"><path d="M1010.9,166 C1030.68,166 1084.08,166 1130.74,166 " fill="none" id="Schuifverbinding1-Beckhoff_EK1100" style="stroke:#181818;stroke-width:1.0;"/></g><!--link Schuifverbinding2 to Beckhoff_EK1100--><g id="link_Schuifverbinding2_Beckhoff_EK1100"><path d="M1010.9,76.53 C1034.72,87.18 1107.33,119.65 1158.18,142.38 " fill="none" id="Schuifverbinding2-Beckhoff_EK1100" style="stroke:#181818;stroke-width:1.0;"/></g><!--link UTP1(RJ45) to Beckhoff_EK1100--><g id="link_UTP1(RJ45)_Beckhoff_EK1100"><path d="M787.74,253.38 C821.62,250.57 960.18,237.99 1071,212 C1096.28,206.07 1123.52,197.61 1147.2,189.56 " fill="none" id="UTP1(RJ45)-Beckhoff_EK1100" style="stroke:#181818;stroke-width:1.0;"/></g><!--link UTP2(RJ45) to PLC--><g id="link_UTP2(RJ45)_PLC"><path d="M275.98,256.95 C295.99,256.81 349.13,256.45 384.03,256.22 " fill="none" id="UTP2(RJ45)-PLC" style="stroke:#181818;stroke-width:1.0;"/></g><!--link PLC to UTP1(RJ45)--><g id="link_PLC_UTP1(RJ45)"><path d="M450.72,255.82 C526.25,255.4 712.27,254.37 764.29,254.08 " fill="none" id="PLC-to-UTP1(RJ45)" style="stroke:#181818;stroke-width:1.0;"/><polygon fill="#181818" points="769.21,254.04,760.1873,250.0915,764.2101,254.0686,760.233,258.0914,769.21,254.04" style="stroke:#181818;stroke-width:1.0;"/></g><!--link Input-Output to Beckhoff_inputkaart--><g id="link_Input-Output_Beckhoff_inputkaart"><path d="M582,166 C600.3,166 647.01,166 690.24,166 " fill="none" id="Input-Output-Beckhoff_inputkaart" style="stroke:#181818;stroke-width:1.0;"/></g><!--link Beckhoff_inputkaart to Schuifverbinding1--><g id="link_Beckhoff_inputkaart_Schuifverbinding1"><path d="M867.98,166 C913.09,166 963.43,166 987.18,166 " fill="none" id="Beckhoff_inputkaart-to-Schuifverbinding1" style="stroke:#181818;stroke-width:1.0;"/><polygon fill="#181818" points="992.14,166,983.14,162,987.14,166,983.14,170,992.14,166" style="stroke:#181818;stroke-width:1.0;"/></g><!--link Output-Input to Beckhoff_outputkaart--><g id="link_Output-Input_Beckhoff_outputkaart"><path d="M582,73 C599.53,73 643.11,73 684.74,73 " fill="none" id="Output-Input-Beckhoff_outputkaart" style="stroke:#181818;stroke-width:1.0;"/></g><!--link Beckhoff_outputkaart to Schuifverbinding2--><g id="link_Beckhoff_outputkaart_Schuifverbinding2"><path d="M873.4,73 C917.12,73 964.5,73 987.26,73 " fill="none" id="Beckhoff_outputkaart-to-Schuifverbinding2" style="stroke:#181818;stroke-width:1.0;"/><polygon fill="#181818" points="992.01,73,983.01,69,987.01,73,983.01,77,992.01,73" style="stroke:#181818;stroke-width:1.0;"/></g><!--link DELTA_Switch to UTP2(RJ45)--><g id="link_DELTA_Switch_UTP2(RJ45)"><path d="M136.28,187.47 C174.92,208.18 228.77,237.04 253.13,250.1 " fill="none" id="DELTA_Switch-to-UTP2(RJ45)" style="stroke:#181818;stroke-width:1.0;"/><polygon fill="#181818" points="257.13,252.78,251.0856,245.0041,252.7226,250.4189,247.3078,252.0559,257.13,252.78" style="stroke:#181818;stroke-width:1.0;"/></g><!--reverse link DELTA_Switch to UTP3(RJ45)--><g id="link_DELTA_Switch_UTP3(RJ45)"><path d="M165.88,164 C202.25,164 241.82,164 258.22,164 " fill="none" id="DELTA_Switch-backto-UTP3(RJ45)" style="stroke:#181818;stroke-width:1.0;"/><polygon fill="#181818" points="161.08,164,170.08,168,166.08,164,170.08,160,161.08,164" style="stroke:#181818;stroke-width:1.0;"/></g><!--link DELTA_Switch to UTP4(RJ45)--><g id="link_DELTA_Switch_UTP4(RJ45)"><path d="M136.28,140.53 C174.92,119.82 228.77,90.96 253.13,77.9 " fill="none" id="DELTA_Switch-to-UTP4(RJ45)" style="stroke:#181818;stroke-width:1.0;"/><polygon fill="#181818" points="257.13,75.22,247.3078,75.9441,252.7226,77.5811,251.0856,82.9959,257.13,75.22" style="stroke:#181818;stroke-width:1.0;"/></g><!--link UTP3(RJ45) to Laptop--><g id="link_UTP3(RJ45)_Laptop"><path d="M275.98,164 C294.12,164 339.49,164 373.82,164 " fill="none" id="UTP3(RJ45)-Laptop" style="stroke:#181818;stroke-width:1.0;"/></g><!--link UTP4(RJ45) to Robot--><g id="link_UTP4(RJ45)_Robot"><path d="M275.98,71.11 C294.54,71.36 341.62,71.99 376.19,72.46 " fill="none" id="UTP4(RJ45)-Robot" style="stroke:#181818;stroke-width:1.0;"/></g><!--reverse link Robot to Input-Output--><g id="link_Robot_Input-Output"><path d="M461.99,99.35 C497.83,121.06 545.67,150.04 564.2,161.28 " fill="none" id="Robot-backto-Input-Output" style="stroke:#181818;stroke-width:1.0;"/><polygon fill="#181818" points="458.23,96.47,463.85,104.558,462.5048,99.0634,467.9994,97.7183,458.23,96.47" style="stroke:#181818;stroke-width:1.0;"/></g><!--link Robot to Output-Input--><g id="link_Robot_Output-Input"><path d="M458.83,73 C491.65,73 536.05,73 558.21,73 " fill="none" id="Robot-to-Output-Input" style="stroke:#181818;stroke-width:1.0;"/><polygon fill="#181818" points="563.09,73,554.09,69,558.09,73,554.09,77,563.09,73" style="stroke:#181818;stroke-width:1.0;"/></g><!--SRC=[VP71Ri8m38RlUOg8o-1GYK9tcoQnZiEsIaF0JXD2eKrfL8YhrDqqJNltXMH0KkXwQ5B_d_sxTbqAMJ75zdJ3qdAhe95P33jG51MJjPQuHBBZEL84giIsG9e9nLCK8CbDVKhV2Sdng-8K51P0I0hx2gHEfZ58QVcQVXEg7_DwV-1fMK2UhwSlOJWShaoqFw2zHLeq8l_WQYDa9kGsxD4We2syanxzIxyjPs5__XpT3ZenszqiYLTkriZ9qfgHzAa_xxsgfFLpUZuDbemfF9TxEiI2rmRruRTnfWry9MuDBqVKzWLJlMLiBGFZxnixkE_i2DUjHqVhnscodAmNdmBJmbgwaTEWZeEy9EvqGmTYt4aSQqJ-i1DM8LJUkiREkgpynyvX0-YXaOCQrOZcPblorkM8fXjlf8Jy_080]--></g></svg>