<?xml version="1.0" encoding="us-ascii" standalone="no"?><svg xmlns="http://www.w3.org/2000/svg" xmlns:xlink="http://www.w3.org/1999/xlink" contentStyleType="text/css" height="490px" preserveAspectRatio="none" style="width:1330px;height:490px;background:#FFFFFF;" version="1.1" viewBox="0 0 1330 490" width="1330px" zoomAndPan="magnify"><defs/><g><g id="elem_Projecttasks"><rect fill="#F1F1F1" height="167.6719" style="stroke:#181818;stroke-width:0.5;" width="358" x="29" y="7"/><text fill="#000000" font-family="sans-serif" font-size="14" lengthAdjust="spacing" textLength="85" x="165.5" y="21.9951">Projecttasks</text><line style="stroke:#181818;stroke-width:0.5;" x1="30" x2="386" y1="27.2969" y2="27.2969"/><rect fill="#ADD8E6" height="16.2969" style="stroke:none;stroke-width:1.0;" width="338" x="39" y="37.2969"/><text fill="#000000" font-family="sans-serif" font-size="14" font-weight="bold" lengthAdjust="spacing" textLength="98" x="49" y="50.292">Tasks to do:</text><text fill="#000000" font-family="sans-serif" font-size="14" font-weight="bold" lengthAdjust="spacing" textLength="56" x="311" y="50.292">Ready?</text><rect fill="#FFFFFF" height="16.2969" style="stroke:none;stroke-width:1.0;" width="338" x="39" y="53.5938"/><text fill="#000000" font-family="sans-serif" font-size="14" lengthAdjust="spacing" textLength="204" x="47" y="66.5889">Investigate part specifications</text><text fill="#000000" font-family="sans-serif" font-size="14" lengthAdjust="spacing" textLength="26" x="305" y="66.5889">Yes</text><rect fill="#FFFFFF" height="16.2969" style="stroke:none;stroke-width:1.0;" width="338" x="39" y="69.8906"/><text fill="#000000" font-family="sans-serif" font-size="14" lengthAdjust="spacing" textLength="197" x="47" y="82.8857">Investigate plc specifications</text><text fill="#000000" font-family="sans-serif" font-size="14" lengthAdjust="spacing" textLength="19" x="305" y="82.8857">No</text><rect fill="#FFFFFF" height="16.2969" style="stroke:none;stroke-width:1.0;" width="338" x="39" y="86.1875"/><text fill="#000000" font-family="sans-serif" font-size="14" lengthAdjust="spacing" textLength="222" x="47" y="99.1826">Investigate how plc can be used</text><text fill="#000000" font-family="sans-serif" font-size="14" lengthAdjust="spacing" textLength="19" x="305" y="99.1826">No</text><rect fill="#FFFFFF" height="16.2969" style="stroke:none;stroke-width:1.0;" width="338" x="39" y="102.4844"/><text fill="#000000" font-family="sans-serif" font-size="14" lengthAdjust="spacing" textLength="173" x="47" y="115.4795">Drawing parts Solidworks</text><text fill="#000000" font-family="sans-serif" font-size="14" lengthAdjust="spacing" textLength="26" x="305" y="115.4795">Yes</text><rect fill="#FFFFFF" height="16.2969" style="stroke:none;stroke-width:1.0;" width="338" x="39" y="118.7813"/><text fill="#000000" font-family="sans-serif" font-size="14" lengthAdjust="spacing" textLength="250" x="47" y="131.7764">Figuring out which sensors we need</text><text fill="#000000" font-family="sans-serif" font-size="14" lengthAdjust="spacing" textLength="19" x="305" y="131.7764">No</text><rect fill="#FFFFFF" height="16.2969" style="stroke:none;stroke-width:1.0;" width="338" x="39" y="135.0781"/><text fill="#000000" font-family="sans-serif" font-size="14" lengthAdjust="spacing" textLength="229" x="47" y="148.0732">Drawing electrical drawings Eplan</text><text fill="#000000" font-family="sans-serif" font-size="14" lengthAdjust="spacing" textLength="19" x="305" y="148.0732">No</text><rect fill="#FFFFFF" height="16.2969" style="stroke:none;stroke-width:1.0;" width="338" x="39" y="151.375"/><text fill="#000000" font-family="sans-serif" font-size="14" lengthAdjust="spacing" textLength="149" x="47" y="164.3701">Do a risk assessment</text><text fill="#000000" font-family="sans-serif" font-size="14" lengthAdjust="spacing" textLength="19" x="305" y="164.3701">No</text><line style="stroke:#000000;stroke-width:1.0;" x1="39" x2="377" y1="37.2969" y2="37.2969"/><line style="stroke:#000000;stroke-width:1.0;" x1="39" x2="377" y1="53.5938" y2="53.5938"/><line style="stroke:#000000;stroke-width:1.0;" x1="39" x2="377" y1="69.8906" y2="69.8906"/><line style="stroke:#000000;stroke-width:1.0;" x1="39" x2="377" y1="86.1875" y2="86.1875"/><line style="stroke:#000000;stroke-width:1.0;" x1="39" x2="377" y1="102.4844" y2="102.4844"/><line style="stroke:#000000;stroke-width:1.0;" x1="39" x2="377" y1="118.7813" y2="118.7813"/><line style="stroke:#000000;stroke-width:1.0;" x1="39" x2="377" y1="135.0781" y2="135.0781"/><line style="stroke:#000000;stroke-width:1.0;" x1="39" x2="377" y1="151.375" y2="151.375"/><line style="stroke:#000000;stroke-width:1.0;" x1="39" x2="377" y1="167.6719" y2="167.6719"/><line style="stroke:#000000;stroke-width:1.0;" x1="39" x2="39" y1="37.2969" y2="167.6719"/><line style="stroke:#000000;stroke-width:1.0;" x1="301" x2="301" y1="37.2969" y2="167.6719"/><line style="stroke:#000000;stroke-width:1.0;" x1="377" x2="377" y1="37.2969" y2="167.6719"/></g><g id="elem_Week1"><rect fill="#F1F1F1" height="69.8906" style="stroke:#181818;stroke-width:0.5;" width="283" x="422.5" y="55.89"/><text fill="#000000" font-family="sans-serif" font-size="14" lengthAdjust="spacing" textLength="48" x="540" y="70.8851">Week1</text><line style="stroke:#181818;stroke-width:0.5;" x1="423.5" x2="704.5" y1="76.1869" y2="76.1869"/><rect fill="#ADD8E6" height="16.2969" style="stroke:none;stroke-width:1.0;" width="263" x="432.5" y="86.1869"/><text fill="#000000" font-family="sans-serif" font-size="14" font-weight="bold" lengthAdjust="spacing" textLength="52" x="442.5" y="99.182">Tasks:</text><text fill="#000000" font-family="sans-serif" font-size="14" font-weight="bold" lengthAdjust="spacing" textLength="43" x="533.5" y="99.182">Who?</text><rect fill="#FFFFFF" height="16.2969" style="stroke:none;stroke-width:1.0;" width="263" x="432.5" y="102.4837"/><text fill="#000000" font-family="sans-serif" font-size="14" lengthAdjust="spacing" textLength="83" x="436.5" y="115.4789">Introduction</text><text fill="#000000" font-family="sans-serif" font-size="14" lengthAdjust="spacing" textLength="164" x="527.5" y="115.4789">Timon,Tim,Matthijs,Mika</text><line style="stroke:#000000;stroke-width:1.0;" x1="432.5" x2="695.5" y1="86.1869" y2="86.1869"/><line style="stroke:#000000;stroke-width:1.0;" x1="432.5" x2="695.5" y1="102.4837" y2="102.4837"/><line style="stroke:#000000;stroke-width:1.0;" x1="432.5" x2="695.5" y1="118.7806" y2="118.7806"/><line style="stroke:#000000;stroke-width:1.0;" x1="432.5" x2="432.5" y1="86.1869" y2="118.7806"/><line style="stroke:#000000;stroke-width:1.0;" x1="523.5" x2="523.5" y1="86.1869" y2="118.7806"/><line style="stroke:#000000;stroke-width:1.0;" x1="695.5" x2="695.5" y1="86.1869" y2="118.7806"/></g><g id="elem_Week2"><rect fill="#F1F1F1" height="69.8906" style="stroke:#181818;stroke-width:0.5;" width="283" x="740.5" y="55.89"/><text fill="#000000" font-family="sans-serif" font-size="14" lengthAdjust="spacing" textLength="48" x="858" y="70.8851">Week2</text><line style="stroke:#181818;stroke-width:0.5;" x1="741.5" x2="1022.5" y1="76.1869" y2="76.1869"/><rect fill="#ADD8E6" height="16.2969" style="stroke:none;stroke-width:1.0;" width="263" x="750.5" y="86.1869"/><text fill="#000000" font-family="sans-serif" font-size="14" font-weight="bold" lengthAdjust="spacing" textLength="52" x="760.5" y="99.182">Tasks:</text><text fill="#000000" font-family="sans-serif" font-size="14" font-weight="bold" lengthAdjust="spacing" textLength="43" x="851.5" y="99.182">Who?</text><rect fill="#FFFFFF" height="16.2969" style="stroke:none;stroke-width:1.0;" width="263" x="750.5" y="102.4837"/><text fill="#000000" font-family="sans-serif" font-size="14" lengthAdjust="spacing" textLength="83" x="754.5" y="115.4789">Introduction</text><text fill="#000000" font-family="sans-serif" font-size="14" lengthAdjust="spacing" textLength="164" x="845.5" y="115.4789">Timon,Tim,Matthijs,Mika</text><line style="stroke:#000000;stroke-width:1.0;" x1="750.5" x2="1013.5" y1="86.1869" y2="86.1869"/><line style="stroke:#000000;stroke-width:1.0;" x1="750.5" x2="1013.5" y1="102.4837" y2="102.4837"/><line style="stroke:#000000;stroke-width:1.0;" x1="750.5" x2="1013.5" y1="118.7806" y2="118.7806"/><line style="stroke:#000000;stroke-width:1.0;" x1="750.5" x2="750.5" y1="86.1869" y2="118.7806"/><line style="stroke:#000000;stroke-width:1.0;" x1="841.5" x2="841.5" y1="86.1869" y2="118.7806"/><line style="stroke:#000000;stroke-width:1.0;" x1="1013.5" x2="1013.5" y1="86.1869" y2="118.7806"/></g><g id="elem_Week3"><rect fill="#F1F1F1" height="86.1875" style="stroke:#181818;stroke-width:0.5;" width="402" x="7" y="242.82"/><text fill="#000000" font-family="sans-serif" font-size="14" lengthAdjust="spacing" textLength="48" x="184" y="257.8151">Week3</text><line style="stroke:#181818;stroke-width:0.5;" x1="8" x2="408" y1="263.1169" y2="263.1169"/><rect fill="#ADD8E6" height="16.2969" style="stroke:none;stroke-width:1.0;" width="382" x="17" y="273.1169"/><text fill="#000000" font-family="sans-serif" font-size="14" font-weight="bold" lengthAdjust="spacing" textLength="52" x="27" y="286.112">Tasks:</text><text fill="#000000" font-family="sans-serif" font-size="14" font-weight="bold" lengthAdjust="spacing" textLength="43" x="276" y="286.112">Who?</text><rect fill="#FFFFFF" height="16.2969" style="stroke:none;stroke-width:1.0;" width="382" x="17" y="289.4137"/><text fill="#000000" font-family="sans-serif" font-size="14" lengthAdjust="spacing" textLength="159" x="21" y="302.4089">Starting a git repository</text><text fill="#000000" font-family="sans-serif" font-size="14" lengthAdjust="spacing" textLength="43" x="270" y="302.4089">Timon</text><rect fill="#FFFFFF" height="16.2969" style="stroke:none;stroke-width:1.0;" width="382" x="17" y="305.7106"/><text fill="#000000" font-family="sans-serif" font-size="14" lengthAdjust="spacing" textLength="241" x="21" y="318.7057">Getting information on the process</text><text fill="#000000" font-family="sans-serif" font-size="14" lengthAdjust="spacing" textLength="125" x="270" y="318.7057">Tim, Matthijs, Mika</text><line style="stroke:#000000;stroke-width:1.0;" x1="17" x2="399" y1="273.1169" y2="273.1169"/><line style="stroke:#000000;stroke-width:1.0;" x1="17" x2="399" y1="289.4137" y2="289.4137"/><line style="stroke:#000000;stroke-width:1.0;" x1="17" x2="399" y1="305.7106" y2="305.7106"/><line style="stroke:#000000;stroke-width:1.0;" x1="17" x2="399" y1="322.0075" y2="322.0075"/><line style="stroke:#000000;stroke-width:1.0;" x1="17" x2="17" y1="273.1169" y2="322.0075"/><line style="stroke:#000000;stroke-width:1.0;" x1="266" x2="266" y1="273.1169" y2="322.0075"/><line style="stroke:#000000;stroke-width:1.0;" x1="399" x2="399" y1="273.1169" y2="322.0075"/></g><g id="elem_Week4"><rect fill="#F1F1F1" height="102.4844" style="stroke:#181818;stroke-width:0.5;" width="422" x="444" y="234.67"/><text fill="#000000" font-family="sans-serif" font-size="14" lengthAdjust="spacing" textLength="48" x="631" y="249.6651">Week4</text><line style="stroke:#181818;stroke-width:0.5;" x1="445" x2="865" y1="254.9669" y2="254.9669"/><rect fill="#ADD8E6" height="16.2969" style="stroke:none;stroke-width:1.0;" width="402" x="454" y="264.9669"/><text fill="#000000" font-family="sans-serif" font-size="14" font-weight="bold" lengthAdjust="spacing" textLength="52" x="464" y="277.962">Tasks:</text><text fill="#000000" font-family="sans-serif" font-size="14" font-weight="bold" lengthAdjust="spacing" textLength="43" x="772" y="277.962">Who?</text><rect fill="#FFFFFF" height="16.2969" style="stroke:none;stroke-width:1.0;" width="402" x="454" y="281.2637"/><text fill="#000000" font-family="sans-serif" font-size="14" lengthAdjust="spacing" textLength="300" x="458" y="294.2589">Component diagram Structure_of_the_valve</text><text fill="#000000" font-family="sans-serif" font-size="14" lengthAdjust="spacing" textLength="43" x="766" y="294.2589">Timon</text><rect fill="#FFFFFF" height="16.2969" style="stroke:none;stroke-width:1.0;" width="402" x="454" y="297.5606"/><text fill="#000000" font-family="sans-serif" font-size="14" lengthAdjust="spacing" textLength="129" x="458" y="310.5557">Solidworks models</text><text fill="#000000" font-family="sans-serif" font-size="14" lengthAdjust="spacing" textLength="86" x="766" y="310.5557">Tim, Matthijs</text><rect fill="#FFFFFF" height="16.2969" style="stroke:none;stroke-width:1.0;" width="402" x="454" y="313.8575"/><text fill="#000000" font-family="sans-serif" font-size="14" lengthAdjust="spacing" textLength="66" x="458" y="326.8526">Flowchart</text><text fill="#000000" font-family="sans-serif" font-size="14" lengthAdjust="spacing" textLength="31" x="766" y="326.8526">Mika</text><line style="stroke:#000000;stroke-width:1.0;" x1="454" x2="856" y1="264.9669" y2="264.9669"/><line style="stroke:#000000;stroke-width:1.0;" x1="454" x2="856" y1="281.2637" y2="281.2637"/><line style="stroke:#000000;stroke-width:1.0;" x1="454" x2="856" y1="297.5606" y2="297.5606"/><line style="stroke:#000000;stroke-width:1.0;" x1="454" x2="856" y1="313.8575" y2="313.8575"/><line style="stroke:#000000;stroke-width:1.0;" x1="454" x2="856" y1="330.1544" y2="330.1544"/><line style="stroke:#000000;stroke-width:1.0;" x1="454" x2="454" y1="264.9669" y2="330.1544"/><line style="stroke:#000000;stroke-width:1.0;" x1="762" x2="762" y1="264.9669" y2="330.1544"/><line style="stroke:#000000;stroke-width:1.0;" x1="856" x2="856" y1="264.9669" y2="330.1544"/></g><g id="elem_Week5"><rect fill="#F1F1F1" height="102.4844" style="stroke:#181818;stroke-width:0.5;" width="422" x="901" y="234.67"/><text fill="#000000" font-family="sans-serif" font-size="14" lengthAdjust="spacing" textLength="48" x="1088" y="249.6651">Week5</text><line style="stroke:#181818;stroke-width:0.5;" x1="902" x2="1322" y1="254.9669" y2="254.9669"/><rect fill="#ADD8E6" height="16.2969" style="stroke:none;stroke-width:1.0;" width="402" x="911" y="264.9669"/><text fill="#000000" font-family="sans-serif" font-size="14" font-weight="bold" lengthAdjust="spacing" textLength="52" x="921" y="277.962">Tasks:</text><text fill="#000000" font-family="sans-serif" font-size="14" font-weight="bold" lengthAdjust="spacing" textLength="43" x="1229" y="277.962">Who?</text><rect fill="#FFFFFF" height="16.2969" style="stroke:none;stroke-width:1.0;" width="402" x="911" y="281.2637"/><text fill="#000000" font-family="sans-serif" font-size="14" lengthAdjust="spacing" textLength="300" x="915" y="294.2589">Component diagram Valve_assembly_setup</text><text fill="#000000" font-family="sans-serif" font-size="14" lengthAdjust="spacing" textLength="43" x="1223" y="294.2589">Timon</text><rect fill="#FFFFFF" height="16.2969" style="stroke:none;stroke-width:1.0;" width="402" x="911" y="297.5606"/><text fill="#000000" font-family="sans-serif" font-size="14" lengthAdjust="spacing" textLength="129" x="915" y="310.5557">Solidworks models</text><text fill="#000000" font-family="sans-serif" font-size="14" lengthAdjust="spacing" textLength="86" x="1223" y="310.5557">Tim, Matthijs</text><rect fill="#FFFFFF" height="16.2969" style="stroke:none;stroke-width:1.0;" width="402" x="911" y="313.8575"/><text fill="#000000" font-family="sans-serif" font-size="14" lengthAdjust="spacing" textLength="62" x="915" y="326.8526">flowchart</text><text fill="#000000" font-family="sans-serif" font-size="14" lengthAdjust="spacing" textLength="31" x="1223" y="326.8526">Mika</text><line style="stroke:#000000;stroke-width:1.0;" x1="911" x2="1313" y1="264.9669" y2="264.9669"/><line style="stroke:#000000;stroke-width:1.0;" x1="911" x2="1313" y1="281.2637" y2="281.2637"/><line style="stroke:#000000;stroke-width:1.0;" x1="911" x2="1313" y1="297.5606" y2="297.5606"/><line style="stroke:#000000;stroke-width:1.0;" x1="911" x2="1313" y1="313.8575" y2="313.8575"/><line style="stroke:#000000;stroke-width:1.0;" x1="911" x2="1313" y1="330.1544" y2="330.1544"/><line style="stroke:#000000;stroke-width:1.0;" x1="911" x2="911" y1="264.9669" y2="330.1544"/><line style="stroke:#000000;stroke-width:1.0;" x1="1219" x2="1219" y1="264.9669" y2="330.1544"/><line style="stroke:#000000;stroke-width:1.0;" x1="1313" x2="1313" y1="264.9669" y2="330.1544"/></g><g id="elem_Week6"><rect fill="#F1F1F1" height="86.1875" style="stroke:#181818;stroke-width:0.5;" width="165" x="125.5" y="397.15"/><text fill="#000000" font-family="sans-serif" font-size="14" lengthAdjust="spacing" textLength="48" x="184" y="412.1451">Week6</text><line style="stroke:#181818;stroke-width:0.5;" x1="126.5" x2="289.5" y1="417.4469" y2="417.4469"/><rect fill="#ADD8E6" height="16.2969" style="stroke:none;stroke-width:1.0;" width="145" x="135.5" y="427.4469"/><text fill="#000000" font-family="sans-serif" font-size="14" font-weight="bold" lengthAdjust="spacing" textLength="52" x="145.5" y="440.442">Tasks:</text><text fill="#000000" font-family="sans-serif" font-size="14" font-weight="bold" lengthAdjust="spacing" textLength="43" x="227.5" y="440.442">Who?</text><rect fill="#FFFFFF" height="16.2969" style="stroke:none;stroke-width:1.0;" width="145" x="135.5" y="443.7438"/><text fill="#000000" font-family="sans-serif" font-size="14" lengthAdjust="spacing" textLength="38" x="139.5" y="456.7389">IO-list</text><text fill="#000000" font-family="sans-serif" font-size="14" lengthAdjust="spacing" textLength="43" x="221.5" y="456.7389">Timon</text><rect fill="#FFFFFF" height="16.2969" style="stroke:none;stroke-width:1.0;" width="145" x="135.5" y="460.0406"/><text fill="#000000" font-family="sans-serif" font-size="14" lengthAdjust="spacing" textLength="74" x="139.5" y="473.0357">3d Printing</text><text fill="#000000" font-family="sans-serif" font-size="14" lengthAdjust="spacing" textLength="25" x="221.5" y="473.0357">Tim</text><line style="stroke:#000000;stroke-width:1.0;" x1="135.5" x2="280.5" y1="427.4469" y2="427.4469"/><line style="stroke:#000000;stroke-width:1.0;" x1="135.5" x2="280.5" y1="443.7438" y2="443.7438"/><line style="stroke:#000000;stroke-width:1.0;" x1="135.5" x2="280.5" y1="460.0406" y2="460.0406"/><line style="stroke:#000000;stroke-width:1.0;" x1="135.5" x2="280.5" y1="476.3375" y2="476.3375"/><line style="stroke:#000000;stroke-width:1.0;" x1="135.5" x2="135.5" y1="427.4469" y2="476.3375"/><line style="stroke:#000000;stroke-width:1.0;" x1="217.5" x2="217.5" y1="427.4469" y2="476.3375"/><line style="stroke:#000000;stroke-width:1.0;" x1="280.5" x2="280.5" y1="427.4469" y2="476.3375"/></g><!--SRC=[nLJlJnf14Fr-VyKaVj44323OXhIsgOYHGZM2aduYozrmjxAtSzaV45BwltVsgBPLn0-QDBdiNURUx7ipRtPfUeUnWoj3uUs4dLlu4G5ys5CopTnKUQpiJPM8voVhZm2Z4k084ce3XCWrYcJrYR_Bf6Kc7Pwi0Ixq0gsJgN08XJ0ER86ndCbOE4dQmXg-OrXtPAduQT8tsaMKqR9CYuM6AOAtcC3Mf8uHIwdJKfc58IcPBCdC7sJzY-xAr9i09- -0et465hKbOs69e95PTf6WuiuQBa91iWbPE2iKQzoQHI30I3i7OIrQcwDszy2VKKGRlyQ8y_gBHlssQ9pH4uCkj3EK-3WqbhSVoPnqXTVAG3YNoJjR6SYvUCBP-0-SHw_X73gsEBWW89KE31PafIEpkXVm27-EheHBFIEJbtC7_BYC1z9Gp8Pi4Ylm81gsgcw-HlKfvGNfu7mYHMf4pdKORfmtEA7PXDLC5a8jy9aY_Xhed19Kzf7aH_2kecMSSP_MsqjflMqfjq7v94ntFbMhYKNdYxSfPFP28SUlcjxBgfBMFQFqAE4xLEfoTah4XlmpwiIhF8gk-Boxcq4V5cXi6AhwOQFME3gir_R7V7_ql89w0-gjTglPhhs3cz4fXFy7qVxvLHyiUHCZTz3oHJBrOIeFefvO2BZsp9bZ6ouBrBtEr_i0dEc5DAJ3zH7rRWT_0CVDwXS-2KCqB0Lk1r47Py8hnnan9Qo_pUpTwlkeBtJgHSfxeuvEYVSrA_ut_0K0]--></g></svg>