<?xml version="1.0" encoding="us-ascii" standalone="no"?><svg xmlns="http://www.w3.org/2000/svg" xmlns:xlink="http://www.w3.org/1999/xlink" contentStyleType="text/css" height="618px" preserveAspectRatio="none" style="width:744px;height:618px;" version="1.1" viewBox="0 0 744 618" width="744px" zoomAndPan="magnify"><defs/><g><!--cluster Structure_of_the_valve--><g id="cluster_Structure_of_the_valve"><rect fill="none" height="561" rx="2.5" ry="2.5" style="stroke:#181818;stroke-width:1.0;" width="731" x="7" y="7"/><rect fill="none" height="10" style="stroke:#181818;stroke-width:1.0;" width="15" x="718" y="12"/><rect fill="none" height="2" style="stroke:#181818;stroke-width:1.0;" width="4" x="716" y="14"/><rect fill="none" height="2" style="stroke:#181818;stroke-width:1.0;" width="4" x="716" y="18"/><text fill="#000000" font-family="sans-serif" font-size="14" font-weight="bold" lengthAdjust="spacing" textLength="179" x="283" y="32.9951">Structure_of_the_valve</text></g><!--entity Ring--><g id="elem_Ring"><rect fill="#F1F1F1" height="46.2969" rx="2.5" ry="2.5" style="stroke:#181818;stroke-width:0.5;" width="71" x="640.5" y="397.85"/><rect fill="#F1F1F1" height="10" style="stroke:#181818;stroke-width:0.5;" width="15" x="691.5" y="402.85"/><rect fill="#F1F1F1" height="2" style="stroke:#181818;stroke-width:0.5;" width="4" x="689.5" y="404.85"/><rect fill="#F1F1F1" height="2" style="stroke:#181818;stroke-width:0.5;" width="4" x="689.5" y="408.85"/><text fill="#000000" font-family="sans-serif" font-size="14" lengthAdjust="spacing" textLength="31" x="655.5" y="430.8451">Ring</text></g><!--entity concentric\noutside\n17mm--><g id="elem_concentric\noutside\n17mm"><ellipse cx="526" cy="491" fill="#F1F1F1" rx="8" ry="8" style="stroke:#181818;stroke-width:0.5;"/><text fill="#000000" font-family="sans-serif" font-size="14" lengthAdjust="spacing" textLength="73" x="489.5" y="520.9951">concentric</text><text fill="#000000" font-family="sans-serif" font-size="14" lengthAdjust="spacing" textLength="52" x="489.5" y="537.292">outside</text><text fill="#000000" font-family="sans-serif" font-size="14" lengthAdjust="spacing" textLength="44" x="489.5" y="553.5889">17mm</text></g><!--entity thickness\n6.8mm--><g id="elem_thickness\n6.8mm"><ellipse cx="526" cy="350" fill="#F1F1F1" rx="8" ry="8" style="stroke:#181818;stroke-width:0.5;"/><text fill="#000000" font-family="sans-serif" font-size="14" lengthAdjust="spacing" textLength="67" x="492.5" y="379.9951">thickness</text><text fill="#000000" font-family="sans-serif" font-size="14" lengthAdjust="spacing" textLength="48" x="492.5" y="396.292">6.8mm</text></g><!--entity Small_nut--><g id="elem_Small_nut"><rect fill="#F1F1F1" height="46.2969" rx="2.5" ry="2.5" style="stroke:#181818;stroke-width:0.5;" width="106" x="316" y="395.85"/><rect fill="#F1F1F1" height="10" style="stroke:#181818;stroke-width:0.5;" width="15" x="402" y="400.85"/><rect fill="#F1F1F1" height="2" style="stroke:#181818;stroke-width:0.5;" width="4" x="400" y="402.85"/><rect fill="#F1F1F1" height="2" style="stroke:#181818;stroke-width:0.5;" width="4" x="400" y="406.85"/><text fill="#000000" font-family="sans-serif" font-size="14" lengthAdjust="spacing" textLength="66" x="331" y="428.8451">Small_nut</text></g><!--entity screw\nthread\nm20--><g id="elem_screw\nthread\nm20"><ellipse cx="212" cy="454" fill="#F1F1F1" rx="8" ry="8" style="stroke:#181818;stroke-width:0.5;"/><text fill="#000000" font-family="sans-serif" font-size="14" lengthAdjust="spacing" textLength="41" x="189.5" y="483.9951">screw</text><text fill="#000000" font-family="sans-serif" font-size="14" lengthAdjust="spacing" textLength="45" x="189.5" y="500.292">thread</text><text fill="#000000" font-family="sans-serif" font-size="14" lengthAdjust="spacing" textLength="31" x="189.5" y="516.5889">m20</text></g><!--entity Cap--><g id="elem_Cap"><rect fill="#F1F1F1" height="46.2969" rx="2.5" ry="2.5" style="stroke:#181818;stroke-width:0.5;" width="67" x="335.5" y="279.85"/><rect fill="#F1F1F1" height="10" style="stroke:#181818;stroke-width:0.5;" width="15" x="382.5" y="284.85"/><rect fill="#F1F1F1" height="2" style="stroke:#181818;stroke-width:0.5;" width="4" x="380.5" y="286.85"/><rect fill="#F1F1F1" height="2" style="stroke:#181818;stroke-width:0.5;" width="4" x="380.5" y="290.85"/><text fill="#000000" font-family="sans-serif" font-size="14" lengthAdjust="spacing" textLength="27" x="350.5" y="312.8451">Cap</text></g><!--entity fine\nthread\nm20--><g id="elem_fine\nthread\nm20"><ellipse cx="212" cy="297" fill="#F1F1F1" rx="8" ry="8" style="stroke:#181818;stroke-width:0.5;"/><text fill="#000000" font-family="sans-serif" font-size="14" lengthAdjust="spacing" textLength="25" x="189.5" y="326.9951">fine</text><text fill="#000000" font-family="sans-serif" font-size="14" lengthAdjust="spacing" textLength="45" x="189.5" y="343.292">thread</text><text fill="#000000" font-family="sans-serif" font-size="14" lengthAdjust="spacing" textLength="31" x="189.5" y="359.5889">m20</text></g><!--entity Plunger--><g id="elem_Plunger"><rect fill="#F1F1F1" height="46.2969" rx="2.5" ry="2.5" style="stroke:#181818;stroke-width:0.5;" width="93" x="322.5" y="198.85"/><rect fill="#F1F1F1" height="10" style="stroke:#181818;stroke-width:0.5;" width="15" x="395.5" y="203.85"/><rect fill="#F1F1F1" height="2" style="stroke:#181818;stroke-width:0.5;" width="4" x="393.5" y="205.85"/><rect fill="#F1F1F1" height="2" style="stroke:#181818;stroke-width:0.5;" width="4" x="393.5" y="209.85"/><text fill="#000000" font-family="sans-serif" font-size="14" lengthAdjust="spacing" textLength="53" x="337.5" y="231.8451">Plunger</text></g><!--entity concentric\noutside\n21.5mm--><g id="elem_concentric\noutside\n21.5mm"><ellipse cx="212" cy="140" fill="#F1F1F1" rx="8" ry="8" style="stroke:#181818;stroke-width:0.5;"/><text fill="#000000" font-family="sans-serif" font-size="14" lengthAdjust="spacing" textLength="73" x="175.5" y="169.9951">concentric</text><text fill="#000000" font-family="sans-serif" font-size="14" lengthAdjust="spacing" textLength="52" x="175.5" y="186.292">outside</text><text fill="#000000" font-family="sans-serif" font-size="14" lengthAdjust="spacing" textLength="57" x="175.5" y="202.5889">21.5mm</text></g><!--entity concentric\ninside\n21mm--><g id="elem_concentric\ninside\n21mm"><ellipse cx="526" cy="205" fill="#F1F1F1" rx="8" ry="8" style="stroke:#181818;stroke-width:0.5;"/><text fill="#000000" font-family="sans-serif" font-size="14" lengthAdjust="spacing" textLength="73" x="489.5" y="234.9951">concentric</text><text fill="#000000" font-family="sans-serif" font-size="14" lengthAdjust="spacing" textLength="41" x="489.5" y="251.292">inside</text><text fill="#000000" font-family="sans-serif" font-size="14" lengthAdjust="spacing" textLength="44" x="489.5" y="267.5889">21mm</text></g><!--entity Big_nut--><g id="elem_Big_nut"><rect fill="#F1F1F1" height="46.2969" rx="2.5" ry="2.5" style="stroke:#181818;stroke-width:0.5;" width="92" x="630" y="130.85"/><rect fill="#F1F1F1" height="10" style="stroke:#181818;stroke-width:0.5;" width="15" x="702" y="135.85"/><rect fill="#F1F1F1" height="2" style="stroke:#181818;stroke-width:0.5;" width="4" x="700" y="137.85"/><rect fill="#F1F1F1" height="2" style="stroke:#181818;stroke-width:0.5;" width="4" x="700" y="141.85"/><text fill="#000000" font-family="sans-serif" font-size="14" lengthAdjust="spacing" textLength="52" x="645" y="163.8451">Big_nut</text></g><!--entity screw\nthread\nm27x1.5--><g id="elem_screw\nthread\nm27x1.5"><ellipse cx="369" cy="103" fill="#F1F1F1" rx="8" ry="8" style="stroke:#181818;stroke-width:0.5;"/><text fill="#000000" font-family="sans-serif" font-size="14" lengthAdjust="spacing" textLength="41" x="339" y="132.9951">screw</text><text fill="#000000" font-family="sans-serif" font-size="14" lengthAdjust="spacing" textLength="45" x="339" y="149.292">thread</text><text fill="#000000" font-family="sans-serif" font-size="14" lengthAdjust="spacing" textLength="60" x="339" y="165.5889">m27x1.5</text></g><!--entity House--><g id="elem_House"><rect fill="#F1F1F1" height="46.2969" rx="2.5" ry="2.5" style="stroke:#181818;stroke-width:0.5;" width="85" x="23" y="273.85"/><rect fill="#F1F1F1" height="10" style="stroke:#181818;stroke-width:0.5;" width="15" x="88" y="278.85"/><rect fill="#F1F1F1" height="2" style="stroke:#181818;stroke-width:0.5;" width="4" x="86" y="280.85"/><rect fill="#F1F1F1" height="2" style="stroke:#181818;stroke-width:0.5;" width="4" x="86" y="284.85"/><text fill="#000000" font-family="sans-serif" font-size="14" lengthAdjust="spacing" textLength="45" x="38" y="306.8451">House</text></g><!--link concentric\noutside\n17mm to Ring--><g id="link_concentric\noutside\n17mm_Ring"><path d="M534.96,487.24 C554.41,478.04 605.32,453.96 640.09,437.51 " fill="none" id="concentric\noutside\n17mm-Ring" style="stroke:#181818;stroke-width:1.0;"/></g><!--link thickness\n6.8mm to Ring--><g id="link_thickness\n6.8mm_Ring"><path d="M534.96,353.82 C554.41,363.15 605.32,387.57 640.09,404.25 " fill="none" id="thickness\n6.8mm-Ring" style="stroke:#181818;stroke-width:1.0;"/></g><!--link screw\nthread\nm20 to Small_nut--><g id="link_screw\nthread\nm20_Small_nut"><path d="M220.9,452.22 C238.23,448.3 280.85,438.68 315.78,430.79 " fill="none" id="screw\nthread\nm20-Small_nut" style="stroke:#181818;stroke-width:1.0;"/></g><!--link Small_nut to thickness\n6.8mm--><g id="link_Small_nut_thickness\n6.8mm"><path d="M422.48,395.64 C457.43,380.08 494.5079,363.5686 511.7279,355.9086 " fill="none" id="Small_nut-to-thickness\n6.8mm" style="stroke:#181818;stroke-width:1.0;"/><polygon fill="#181818" points="517.21,353.47,507.3611,353.4732,512.6416,355.5022,510.6126,360.7826,517.21,353.47" style="stroke:#181818;stroke-width:1.0;"/></g><!--link fine\nthread\nm20 to Cap--><g id="link_fine\nthread\nm20_Cap"><path d="M220.9,297.31 C241.63,298.11 298.5,300.31 335.15,301.73 " fill="none" id="fine\nthread\nm20-Cap" style="stroke:#181818;stroke-width:1.0;"/></g><!--link concentric\noutside\n21.5mm to Plunger--><g id="link_concentric\noutside\n21.5mm_Plunger"><path d="M220.9,144.18 C239.53,154.04 287.36,179.34 323.46,198.44 " fill="none" id="concentric\noutside\n21.5mm-Plunger" style="stroke:#181818;stroke-width:1.0;"/></g><!--link Plunger to concentric\ninside\n21mm--><g id="link_Plunger_concentric\ninside\n21mm"><path d="M415.67,216.99 C451.74,213.03 492.9958,208.5147 511.3058,206.5047 " fill="none" id="Plunger-to-concentric\ninside\n21mm" style="stroke:#181818;stroke-width:1.0;"/><polygon fill="#181818" points="517.27,205.85,507.8873,202.856,512.2999,206.3956,508.7602,210.8082,517.27,205.85" style="stroke:#181818;stroke-width:1.0;"/></g><!--link screw\nthread\nm27x1.5 to Big_nut--><g id="link_screw\nthread\nm27x1.5_Big_nut"><path d="M377.69,103.48 C404.44,105.23 495.83,111.92 570,126 C589.74,129.75 611.23,135.22 629.59,140.34 " fill="none" id="screw\nthread\nm27x1.5-Big_nut" style="stroke:#181818;stroke-width:1.0;"/></g><!--link concentric\ninside\n21mm to Big_nut--><g id="link_concentric\ninside\n21mm_Big_nut"><path d="M534.96,202.26 C552.55,196.2 595.87,181.27 629.71,169.61 " fill="none" id="concentric\ninside\n21mm-Big_nut" style="stroke:#181818;stroke-width:1.0;"/></g><!--link House to concentric\noutside\n17mm--><g id="link_House_concentric\noutside\n17mm"><path d="M68.41,320.37 C73.86,369.82 94.24,484.43 168,533 C286.58,611.08 471.0524,520.0557 511.8324,498.1857 " fill="none" id="House-to-concentric\noutside\n17mm" style="stroke:#181818;stroke-width:1.0;"/><polygon fill="#181818" points="517.12,495.35,507.2981,496.0785,512.7137,497.7131,511.0791,503.1286,517.12,495.35" style="stroke:#181818;stroke-width:1.0;"/></g><!--link House to screw\nthread\nm20--><g id="link_House_screw\nthread\nm20"><path d="M88.13,320.5 C120.89,356.09 177.466,417.5659 199.056,441.0159 " fill="none" id="House-to-screw\nthread\nm20" style="stroke:#181818;stroke-width:1.0;"/><polygon fill="#181818" points="203.12,445.43,199.9668,436.0996,199.7334,441.7516,194.0813,441.5182,203.12,445.43" style="stroke:#181818;stroke-width:1.0;"/></g><!--link House to concentric\noutside\n21.5mm--><g id="link_House_concentric\noutside\n21.5mm"><path d="M88.13,273.5 C120.89,237.91 177.466,176.4341 199.056,152.9841 " fill="none" id="House-to-concentric\noutside\n21.5mm" style="stroke:#181818;stroke-width:1.0;"/><polygon fill="#181818" points="203.12,148.57,194.0813,152.4818,199.7334,152.2484,199.9668,157.9004,203.12,148.57" style="stroke:#181818;stroke-width:1.0;"/></g><!--link House to screw\nthread\nm27x1.5--><g id="link_House_screw\nthread\nm27x1.5"><path d="M68.41,273.63 C73.86,224.18 94.24,109.57 168,61 C232.6,18.46 327.2253,75.4904 355.3753,94.3504 " fill="none" id="House-to-screw\nthread\nm27x1.5" style="stroke:#181818;stroke-width:1.0;"/><polygon fill="#181818" points="360.36,97.69,355.1094,89.3574,356.2061,94.907,350.6566,96.0037,360.36,97.69" style="stroke:#181818;stroke-width:1.0;"/></g><!--link House to fine\nthread\nm20--><g id="link_House_fine\nthread\nm20"><path d="M108.3,297 C141.64,297 179.57,297 197.19,297 " fill="none" id="House-to-fine\nthread\nm20" style="stroke:#181818;stroke-width:1.0;"/><polygon fill="#181818" points="203.19,297,194.19,293,198.19,297,194.19,301,203.19,297" style="stroke:#181818;stroke-width:1.0;"/></g><!--SRC=[ZP4_JyCm4CNtV0gh2p1GqKfG9WQwC28w4XGPvvfOTUwYyxc04DyTuwJfNwbui6pvzzwxy_cLnLQpRjIxDgkAAM0v9qUiX3Nw-0GecOEbA275jgf5bPR1Y2NCBlmWTnP1lbfGn59JbXbgMi8eLWlXO2Gm5BGif8PYhTqQr7UcuahRwul5wYqTBw_Ko12QA6HhSgGWtfQGusJMD2DrVQt-s06LsfeLWlSvtetlTudEUD5evmeCidNtXk4ZHwaPT9bZCxr9ee5Cu72BJmydOdhxkMwtnilu0yU-4UdXPnUm0ZxJvtGolktxw0M9trowUdQL5ZV2RLsFjZhJzEmpvgIKdZrPrPxtBjp5F57mq8Maut5n- -Cx94-Cubzc_H-TjUkQFCIEvvJz_080]--></g></svg>