<?xml version="1.0" encoding="us-ascii" standalone="no"?><svg xmlns="http://www.w3.org/2000/svg" xmlns:xlink="http://www.w3.org/1999/xlink" contentStyleType="text/css" height="200px" preserveAspectRatio="none" style="width:166px;height:200px;background:#FFFFFF;" version="1.1" viewBox="0 0 166 200" width="166px" zoomAndPan="magnify"><defs/><g><ellipse cx="78.5" cy="20" fill="#222222" rx="10" ry="10" style="stroke:#222222;stroke-width:1.0;"/><polygon fill="#F1F1F1" points="59.5,50,97.5,50,109.5,62,97.5,74,59.5,74,47.5,62,59.5,50" style="stroke:#181818;stroke-width:0.5;"/><text fill="#000000" font-family="sans-serif" font-size="11" lengthAdjust="spacing" textLength="38" x="59.5" y="65.8081">ready?</text><text fill="#000000" font-family="sans-serif" font-size="11" lengthAdjust="spacing" textLength="20" x="27.5" y="59.4058">yes</text><text fill="#000000" font-family="sans-serif" font-size="11" lengthAdjust="spacing" textLength="14" x="109.5" y="59.4058">no</text><rect fill="#F1F1F1" height="33.9688" rx="12.5" ry="12.5" style="stroke:#181818;stroke-width:0.5;" width="53" x="11" y="84"/><text fill="#000000" font-family="sans-serif" font-size="12" lengthAdjust="spacing" textLength="33" x="21" y="105.1387">move</text><rect fill="#F1F1F1" height="33.9688" rx="12.5" ry="12.5" style="stroke:#181818;stroke-width:0.5;" width="71" x="84" y="84"/><text fill="#000000" font-family="sans-serif" font-size="12" lengthAdjust="spacing" textLength="51" x="94" y="105.1387">stay still</text><polygon fill="#F1F1F1" points="78.5,123.9688,90.5,135.9688,78.5,147.9688,66.5,135.9688,78.5,123.9688" style="stroke:#181818;stroke-width:0.5;"/><ellipse cx="78.5" cy="178.9688" fill="none" rx="11" ry="11" style="stroke:#222222;stroke-width:1.0;"/><ellipse cx="78.5" cy="178.9688" fill="#222222" rx="6" ry="6" style="stroke:#111111;stroke-width:1.0;"/><line style="stroke:#181818;stroke-width:1.0;" x1="47.5" x2="37.5" y1="62" y2="62"/><line style="stroke:#181818;stroke-width:1.0;" x1="37.5" x2="37.5" y1="62" y2="84"/><polygon fill="#181818" points="33.5,74,37.5,84,41.5,74,37.5,78" style="stroke:#181818;stroke-width:1.0;"/><line style="stroke:#181818;stroke-width:1.0;" x1="109.5" x2="119.5" y1="62" y2="62"/><line style="stroke:#181818;stroke-width:1.0;" x1="119.5" x2="119.5" y1="62" y2="84"/><polygon fill="#181818" points="115.5,74,119.5,84,123.5,74,119.5,78" style="stroke:#181818;stroke-width:1.0;"/><line style="stroke:#181818;stroke-width:1.0;" x1="37.5" x2="37.5" y1="117.9688" y2="135.9688"/><line style="stroke:#181818;stroke-width:1.0;" x1="37.5" x2="66.5" y1="135.9688" y2="135.9688"/><polygon fill="#181818" points="56.5,131.9688,66.5,135.9688,56.5,139.9688,60.5,135.9688" style="stroke:#181818;stroke-width:1.0;"/><line style="stroke:#181818;stroke-width:1.0;" x1="119.5" x2="119.5" y1="117.9688" y2="135.9688"/><line style="stroke:#181818;stroke-width:1.0;" x1="119.5" x2="90.5" y1="135.9688" y2="135.9688"/><polygon fill="#181818" points="100.5,131.9688,90.5,135.9688,100.5,139.9688,96.5,135.9688" style="stroke:#181818;stroke-width:1.0;"/><line style="stroke:#181818;stroke-width:1.0;" x1="78.5" x2="78.5" y1="30" y2="50"/><polygon fill="#181818" points="74.5,40,78.5,50,82.5,40,78.5,44" style="stroke:#181818;stroke-width:1.0;"/><line style="stroke:#181818;stroke-width:1.0;" x1="78.5" x2="78.5" y1="147.9688" y2="167.9688"/><polygon fill="#181818" points="74.5,157.9688,78.5,167.9688,82.5,157.9688,78.5,161.9688" style="stroke:#181818;stroke-width:1.0;"/><!--SRC=[7Sd12O0m30NGUwRuntO5FJXBeIa6OYfD4BAzulKzZxQ2I0RAujRpg8YJ3INPAm7RDH_UYTKPnUPF7YtX8QfVM9T1v37l5m00]--></g></svg>