<?xml version="1.0" encoding="us-ascii" standalone="no"?><svg xmlns="http://www.w3.org/2000/svg" xmlns:xlink="http://www.w3.org/1999/xlink" contentStyleType="text/css" height="604px" preserveAspectRatio="none" style="width:1330px;height:604px;background:#FFFFFF;" version="1.1" viewBox="0 0 1330 604" width="1330px" zoomAndPan="magnify"><defs/><g><g id="elem_Projecttasks"><rect fill="#F1F1F1" height="167.6719" style="stroke:#181818;stroke-width:0.5;" width="358" x="29" y="7"/><text fill="#000000" font-family="sans-serif" font-size="14" lengthAdjust="spacing" textLength="85" x="165.5" y="21.9951">Projecttasks</text><line style="stroke:#181818;stroke-width:0.5;" x1="30" x2="386" y1="27.2969" y2="27.2969"/><rect fill="#ADD8E6" height="16.2969" style="stroke:none;stroke-width:1.0;" width="338" x="39" y="37.2969"/><text fill="#000000" font-family="sans-serif" font-size="14" font-weight="bold" lengthAdjust="spacing" textLength="98" x="49" y="50.292">Tasks to do:</text><text fill="#000000" font-family="sans-serif" font-size="14" font-weight="bold" lengthAdjust="spacing" textLength="56" x="311" y="50.292">Ready?</text><rect fill="#FFFFFF" height="16.2969" style="stroke:none;stroke-width:1.0;" width="338" x="39" y="53.5938"/><text fill="#000000" font-family="sans-serif" font-size="14" lengthAdjust="spacing" textLength="204" x="47" y="66.5889">Investigate part specifications</text><text fill="#000000" font-family="sans-serif" font-size="14" lengthAdjust="spacing" textLength="26" x="305" y="66.5889">Yes</text><rect fill="#FFFFFF" height="16.2969" style="stroke:none;stroke-width:1.0;" width="338" x="39" y="69.8906"/><text fill="#000000" font-family="sans-serif" font-size="14" lengthAdjust="spacing" textLength="197" x="47" y="82.8857">Investigate plc specifications</text><text fill="#000000" font-family="sans-serif" font-size="14" lengthAdjust="spacing" textLength="19" x="305" y="82.8857">No</text><rect fill="#FFFFFF" height="16.2969" style="stroke:none;stroke-width:1.0;" width="338" x="39" y="86.1875"/><text fill="#000000" font-family="sans-serif" font-size="14" lengthAdjust="spacing" textLength="222" x="47" y="99.1826">Investigate how plc can be used</text><text fill="#000000" font-family="sans-serif" font-size="14" lengthAdjust="spacing" textLength="19" x="305" y="99.1826">No</text><rect fill="#FFFFFF" height="16.2969" style="stroke:none;stroke-width:1.0;" width="338" x="39" y="102.4844"/><text fill="#000000" font-family="sans-serif" font-size="14" lengthAdjust="spacing" textLength="173" x="47" y="115.4795">Drawing parts Solidworks</text><text fill="#000000" font-family="sans-serif" font-size="14" lengthAdjust="spacing" textLength="26" x="305" y="115.4795">Yes</text><rect fill="#FFFFFF" height="16.2969" style="stroke:none;stroke-width:1.0;" width="338" x="39" y="118.7813"/><text fill="#000000" font-family="sans-serif" font-size="14" lengthAdjust="spacing" textLength="250" x="47" y="131.7764">Figuring out which sensors we need</text><text fill="#000000" font-family="sans-serif" font-size="14" lengthAdjust="spacing" textLength="19" x="305" y="131.7764">No</text><rect fill="#FFFFFF" height="16.2969" style="stroke:none;stroke-width:1.0;" width="338" x="39" y="135.0781"/><text fill="#000000" font-family="sans-serif" font-size="14" lengthAdjust="spacing" textLength="229" x="47" y="148.0732">Drawing electrical drawings Eplan</text><text fill="#000000" font-family="sans-serif" font-size="14" lengthAdjust="spacing" textLength="19" x="305" y="148.0732">No</text><rect fill="#FFFFFF" height="16.2969" style="stroke:none;stroke-width:1.0;" width="338" x="39" y="151.375"/><text fill="#000000" font-family="sans-serif" font-size="14" lengthAdjust="spacing" textLength="149" x="47" y="164.3701">Do a risk assessment</text><text fill="#000000" font-family="sans-serif" font-size="14" lengthAdjust="spacing" textLength="19" x="305" y="164.3701">No</text><line style="stroke:#000000;stroke-width:1.0;" x1="39" x2="377" y1="37.2969" y2="37.2969"/><line style="stroke:#000000;stroke-width:1.0;" x1="39" x2="377" y1="53.5938" y2="53.5938"/><line style="stroke:#000000;stroke-width:1.0;" x1="39" x2="377" y1="69.8906" y2="69.8906"/><line style="stroke:#000000;stroke-width:1.0;" x1="39" x2="377" y1="86.1875" y2="86.1875"/><line style="stroke:#000000;stroke-width:1.0;" x1="39" x2="377" y1="102.4844" y2="102.4844"/><line style="stroke:#000000;stroke-width:1.0;" x1="39" x2="377" y1="118.7813" y2="118.7813"/><line style="stroke:#000000;stroke-width:1.0;" x1="39" x2="377" y1="135.0781" y2="135.0781"/><line style="stroke:#000000;stroke-width:1.0;" x1="39" x2="377" y1="151.375" y2="151.375"/><line style="stroke:#000000;stroke-width:1.0;" x1="39" x2="377" y1="167.6719" y2="167.6719"/><line style="stroke:#000000;stroke-width:1.0;" x1="39" x2="39" y1="37.2969" y2="167.6719"/><line style="stroke:#000000;stroke-width:1.0;" x1="301" x2="301" y1="37.2969" y2="167.6719"/><line style="stroke:#000000;stroke-width:1.0;" x1="377" x2="377" y1="37.2969" y2="167.6719"/></g><g id="elem_Week1"><rect fill="#F1F1F1" height="69.8906" style="stroke:#181818;stroke-width:0.5;" width="283" x="422.5" y="55.89"/><text fill="#000000" font-family="sans-serif" font-size="14" lengthAdjust="spacing" textLength="48" x="540" y="70.8851">Week1</text><line style="stroke:#181818;stroke-width:0.5;" x1="423.5" x2="704.5" y1="76.1869" y2="76.1869"/><rect fill="#ADD8E6" height="16.2969" style="stroke:none;stroke-width:1.0;" width="263" x="432.5" y="86.1869"/><text fill="#000000" font-family="sans-serif" font-size="14" font-weight="bold" lengthAdjust="spacing" textLength="52" x="442.5" y="99.182">Tasks:</text><text fill="#000000" font-family="sans-serif" font-size="14" font-weight="bold" lengthAdjust="spacing" textLength="43" x="533.5" y="99.182">Who?</text><rect fill="#FFFFFF" height="16.2969" style="stroke:none;stroke-width:1.0;" width="263" x="432.5" y="102.4837"/><text fill="#000000" font-family="sans-serif" font-size="14" lengthAdjust="spacing" textLength="83" x="436.5" y="115.4789">Introduction</text><text fill="#000000" font-family="sans-serif" font-size="14" lengthAdjust="spacing" textLength="164" x="527.5" y="115.4789">Timon,Tim,Matthijs,Mika</text><line style="stroke:#000000;stroke-width:1.0;" x1="432.5" x2="695.5" y1="86.1869" y2="86.1869"/><line style="stroke:#000000;stroke-width:1.0;" x1="432.5" x2="695.5" y1="102.4837" y2="102.4837"/><line style="stroke:#000000;stroke-width:1.0;" x1="432.5" x2="695.5" y1="118.7806" y2="118.7806"/><line style="stroke:#000000;stroke-width:1.0;" x1="432.5" x2="432.5" y1="86.1869" y2="118.7806"/><line style="stroke:#000000;stroke-width:1.0;" x1="523.5" x2="523.5" y1="86.1869" y2="118.7806"/><line style="stroke:#000000;stroke-width:1.0;" x1="695.5" x2="695.5" y1="86.1869" y2="118.7806"/></g><g id="elem_Week2"><rect fill="#F1F1F1" height="69.8906" style="stroke:#181818;stroke-width:0.5;" width="283" x="740.5" y="55.89"/><text fill="#000000" font-family="sans-serif" font-size="14" lengthAdjust="spacing" textLength="48" x="858" y="70.8851">Week2</text><line style="stroke:#181818;stroke-width:0.5;" x1="741.5" x2="1022.5" y1="76.1869" y2="76.1869"/><rect fill="#ADD8E6" height="16.2969" style="stroke:none;stroke-width:1.0;" width="263" x="750.5" y="86.1869"/><text fill="#000000" font-family="sans-serif" font-size="14" font-weight="bold" lengthAdjust="spacing" textLength="52" x="760.5" y="99.182">Tasks:</text><text fill="#000000" font-family="sans-serif" font-size="14" font-weight="bold" lengthAdjust="spacing" textLength="43" x="851.5" y="99.182">Who?</text><rect fill="#FFFFFF" height="16.2969" style="stroke:none;stroke-width:1.0;" width="263" x="750.5" y="102.4837"/><text fill="#000000" font-family="sans-serif" font-size="14" lengthAdjust="spacing" textLength="83" x="754.5" y="115.4789">Introduction</text><text fill="#000000" font-family="sans-serif" font-size="14" lengthAdjust="spacing" textLength="164" x="845.5" y="115.4789">Timon,Tim,Matthijs,Mika</text><line style="stroke:#000000;stroke-width:1.0;" x1="750.5" x2="1013.5" y1="86.1869" y2="86.1869"/><line style="stroke:#000000;stroke-width:1.0;" x1="750.5" x2="1013.5" y1="102.4837" y2="102.4837"/><line style="stroke:#000000;stroke-width:1.0;" x1="750.5" x2="1013.5" y1="118.7806" y2="118.7806"/><line style="stroke:#000000;stroke-width:1.0;" x1="750.5" x2="750.5" y1="86.1869" y2="118.7806"/><line style="stroke:#000000;stroke-width:1.0;" x1="841.5" x2="841.5" y1="86.1869" y2="118.7806"/><line style="stroke:#000000;stroke-width:1.0;" x1="1013.5" x2="1013.5" y1="86.1869" y2="118.7806"/></g><g id="elem_Week3"><rect fill="#F1F1F1" height="86.1875" style="stroke:#181818;stroke-width:0.5;" width="402" x="7" y="242.82"/><text fill="#000000" font-family="sans-serif" font-size="14" lengthAdjust="spacing" textLength="48" x="184" y="257.8151">Week3</text><line style="stroke:#181818;stroke-width:0.5;" x1="8" x2="408" y1="263.1169" y2="263.1169"/><rect fill="#ADD8E6" height="16.2969" style="stroke:none;stroke-width:1.0;" width="382" x="17" y="273.1169"/><text fill="#000000" font-family="sans-serif" font-size="14" font-weight="bold" lengthAdjust="spacing" textLength="52" x="27" y="286.112">Tasks:</text><text fill="#000000" font-family="sans-serif" font-size="14" font-weight="bold" lengthAdjust="spacing" textLength="43" x="276" y="286.112">Who?</text><rect fill="#FFFFFF" height="16.2969" style="stroke:none;stroke-width:1.0;" width="382" x="17" y="289.4137"/><text fill="#000000" font-family="sans-serif" font-size="14" lengthAdjust="spacing" textLength="159" x="21" y="302.4089">Starting a git repository</text><text fill="#000000" font-family="sans-serif" font-size="14" lengthAdjust="spacing" textLength="43" x="270" y="302.4089">Timon</text><rect fill="#FFFFFF" height="16.2969" style="stroke:none;stroke-width:1.0;" width="382" x="17" y="305.7106"/><text fill="#000000" font-family="sans-serif" font-size="14" lengthAdjust="spacing" textLength="241" x="21" y="318.7057">Getting information on the process</text><text fill="#000000" font-family="sans-serif" font-size="14" lengthAdjust="spacing" textLength="125" x="270" y="318.7057">Tim, Matthijs, Mika</text><line style="stroke:#000000;stroke-width:1.0;" x1="17" x2="399" y1="273.1169" y2="273.1169"/><line style="stroke:#000000;stroke-width:1.0;" x1="17" x2="399" y1="289.4137" y2="289.4137"/><line style="stroke:#000000;stroke-width:1.0;" x1="17" x2="399" y1="305.7106" y2="305.7106"/><line style="stroke:#000000;stroke-width:1.0;" x1="17" x2="399" y1="322.0075" y2="322.0075"/><line style="stroke:#000000;stroke-width:1.0;" x1="17" x2="17" y1="273.1169" y2="322.0075"/><line style="stroke:#000000;stroke-width:1.0;" x1="266" x2="266" y1="273.1169" y2="322.0075"/><line style="stroke:#000000;stroke-width:1.0;" x1="399" x2="399" y1="273.1169" y2="322.0075"/></g><g id="elem_Week4"><rect fill="#F1F1F1" height="102.4844" style="stroke:#181818;stroke-width:0.5;" width="422" x="444" y="234.67"/><text fill="#000000" font-family="sans-serif" font-size="14" lengthAdjust="spacing" textLength="48" x="631" y="249.6651">Week4</text><line style="stroke:#181818;stroke-width:0.5;" x1="445" x2="865" y1="254.9669" y2="254.9669"/><rect fill="#ADD8E6" height="16.2969" style="stroke:none;stroke-width:1.0;" width="402" x="454" y="264.9669"/><text fill="#000000" font-family="sans-serif" font-size="14" font-weight="bold" lengthAdjust="spacing" textLength="52" x="464" y="277.962">Tasks:</text><text fill="#000000" font-family="sans-serif" font-size="14" font-weight="bold" lengthAdjust="spacing" textLength="43" x="772" y="277.962">Who?</text><rect fill="#FFFFFF" height="16.2969" style="stroke:none;stroke-width:1.0;" width="402" x="454" y="281.2637"/><text fill="#000000" font-family="sans-serif" font-size="14" lengthAdjust="spacing" textLength="300" x="458" y="294.2589">Component diagram Structure_of_the_valve</text><text fill="#000000" font-family="sans-serif" font-size="14" lengthAdjust="spacing" textLength="43" x="766" y="294.2589">Timon</text><rect fill="#FFFFFF" height="16.2969" style="stroke:none;stroke-width:1.0;" width="402" x="454" y="297.5606"/><text fill="#000000" font-family="sans-serif" font-size="14" lengthAdjust="spacing" textLength="129" x="458" y="310.5557">Solidworks models</text><text fill="#000000" font-family="sans-serif" font-size="14" lengthAdjust="spacing" textLength="86" x="766" y="310.5557">Tim, Matthijs</text><rect fill="#FFFFFF" height="16.2969" style="stroke:none;stroke-width:1.0;" width="402" x="454" y="313.8575"/><text fill="#000000" font-family="sans-serif" font-size="14" lengthAdjust="spacing" textLength="66" x="458" y="326.8526">Flowchart</text><text fill="#000000" font-family="sans-serif" font-size="14" lengthAdjust="spacing" textLength="31" x="766" y="326.8526">Mika</text><line style="stroke:#000000;stroke-width:1.0;" x1="454" x2="856" y1="264.9669" y2="264.9669"/><line style="stroke:#000000;stroke-width:1.0;" x1="454" x2="856" y1="281.2637" y2="281.2637"/><line style="stroke:#000000;stroke-width:1.0;" x1="454" x2="856" y1="297.5606" y2="297.5606"/><line style="stroke:#000000;stroke-width:1.0;" x1="454" x2="856" y1="313.8575" y2="313.8575"/><line style="stroke:#000000;stroke-width:1.0;" x1="454" x2="856" y1="330.1544" y2="330.1544"/><line style="stroke:#000000;stroke-width:1.0;" x1="454" x2="454" y1="264.9669" y2="330.1544"/><line style="stroke:#000000;stroke-width:1.0;" x1="762" x2="762" y1="264.9669" y2="330.1544"/><line style="stroke:#000000;stroke-width:1.0;" x1="856" x2="856" y1="264.9669" y2="330.1544"/></g><g id="elem_Week5"><rect fill="#F1F1F1" height="102.4844" style="stroke:#181818;stroke-width:0.5;" width="422" x="901" y="234.67"/><text fill="#000000" font-family="sans-serif" font-size="14" lengthAdjust="spacing" textLength="48" x="1088" y="249.6651">Week5</text><line style="stroke:#181818;stroke-width:0.5;" x1="902" x2="1322" y1="254.9669" y2="254.9669"/><rect fill="#ADD8E6" height="16.2969" style="stroke:none;stroke-width:1.0;" width="402" x="911" y="264.9669"/><text fill="#000000" font-family="sans-serif" font-size="14" font-weight="bold" lengthAdjust="spacing" textLength="52" x="921" y="277.962">Tasks:</text><text fill="#000000" font-family="sans-serif" font-size="14" font-weight="bold" lengthAdjust="spacing" textLength="43" x="1229" y="277.962">Who?</text><rect fill="#FFFFFF" height="16.2969" style="stroke:none;stroke-width:1.0;" width="402" x="911" y="281.2637"/><text fill="#000000" font-family="sans-serif" font-size="14" lengthAdjust="spacing" textLength="300" x="915" y="294.2589">Component diagram Valve_assembly_setup</text><text fill="#000000" font-family="sans-serif" font-size="14" lengthAdjust="spacing" textLength="43" x="1223" y="294.2589">Timon</text><rect fill="#FFFFFF" height="16.2969" style="stroke:none;stroke-width:1.0;" width="402" x="911" y="297.5606"/><text fill="#000000" font-family="sans-serif" font-size="14" lengthAdjust="spacing" textLength="129" x="915" y="310.5557">Solidworks models</text><text fill="#000000" font-family="sans-serif" font-size="14" lengthAdjust="spacing" textLength="86" x="1223" y="310.5557">Tim, Matthijs</text><rect fill="#FFFFFF" height="16.2969" style="stroke:none;stroke-width:1.0;" width="402" x="911" y="313.8575"/><text fill="#000000" font-family="sans-serif" font-size="14" lengthAdjust="spacing" textLength="62" x="915" y="326.8526">flowchart</text><text fill="#000000" font-family="sans-serif" font-size="14" lengthAdjust="spacing" textLength="31" x="1223" y="326.8526">Mika</text><line style="stroke:#000000;stroke-width:1.0;" x1="911" x2="1313" y1="264.9669" y2="264.9669"/><line style="stroke:#000000;stroke-width:1.0;" x1="911" x2="1313" y1="281.2637" y2="281.2637"/><line style="stroke:#000000;stroke-width:1.0;" x1="911" x2="1313" y1="297.5606" y2="297.5606"/><line style="stroke:#000000;stroke-width:1.0;" x1="911" x2="1313" y1="313.8575" y2="313.8575"/><line style="stroke:#000000;stroke-width:1.0;" x1="911" x2="1313" y1="330.1544" y2="330.1544"/><line style="stroke:#000000;stroke-width:1.0;" x1="911" x2="911" y1="264.9669" y2="330.1544"/><line style="stroke:#000000;stroke-width:1.0;" x1="1219" x2="1219" y1="264.9669" y2="330.1544"/><line style="stroke:#000000;stroke-width:1.0;" x1="1313" x2="1313" y1="264.9669" y2="330.1544"/></g><g id="elem_Week6"><rect fill="#F1F1F1" height="118.7813" style="stroke:#181818;stroke-width:0.5;" width="383" x="16.5" y="437.9"/><text fill="#000000" font-family="sans-serif" font-size="14" lengthAdjust="spacing" textLength="48" x="184" y="452.8951">Week6</text><line style="stroke:#181818;stroke-width:0.5;" x1="17.5" x2="398.5" y1="458.1969" y2="458.1969"/><rect fill="#ADD8E6" height="16.2969" style="stroke:none;stroke-width:1.0;" width="363" x="26.5" y="468.1969"/><text fill="#000000" font-family="sans-serif" font-size="14" font-weight="bold" lengthAdjust="spacing" textLength="52" x="36.5" y="481.192">Tasks:</text><text fill="#000000" font-family="sans-serif" font-size="14" font-weight="bold" lengthAdjust="spacing" textLength="43" x="336.5" y="481.192">Who?</text><rect fill="#FFFFFF" height="16.2969" style="stroke:none;stroke-width:1.0;" width="363" x="26.5" y="484.4938"/><text fill="#000000" font-family="sans-serif" font-size="14" lengthAdjust="spacing" textLength="292" x="30.5" y="497.4889">IO-list, PLC configuratie en setup gebouwd</text><text fill="#000000" font-family="sans-serif" font-size="14" lengthAdjust="spacing" textLength="43" x="330.5" y="497.4889">Timon</text><rect fill="#FFFFFF" height="16.2969" style="stroke:none;stroke-width:1.0;" width="363" x="26.5" y="500.7906"/><text fill="#000000" font-family="sans-serif" font-size="14" lengthAdjust="spacing" textLength="74" x="30.5" y="513.7857">3d Printing</text><text fill="#000000" font-family="sans-serif" font-size="14" lengthAdjust="spacing" textLength="25" x="330.5" y="513.7857">Tim</text><rect fill="#FFFFFF" height="16.2969" style="stroke:none;stroke-width:1.0;" width="363" x="26.5" y="517.0875"/><text fill="#000000" font-family="sans-serif" font-size="14" lengthAdjust="spacing" textLength="4" x="26.5" y="530.0826">&#160;</text><text fill="#000000" font-family="sans-serif" font-size="14" lengthAdjust="spacing" textLength="53" x="330.5" y="530.0826">Matthijs</text><rect fill="#FFFFFF" height="16.2969" style="stroke:none;stroke-width:1.0;" width="363" x="26.5" y="533.3844"/><text fill="#000000" font-family="sans-serif" font-size="14" lengthAdjust="spacing" textLength="8" x="26.5" y="546.3795">&#160;&#160;</text><text fill="#000000" font-family="sans-serif" font-size="14" lengthAdjust="spacing" textLength="31" x="330.5" y="546.3795">Mika</text><line style="stroke:#000000;stroke-width:1.0;" x1="26.5" x2="389.5" y1="468.1969" y2="468.1969"/><line style="stroke:#000000;stroke-width:1.0;" x1="26.5" x2="389.5" y1="484.4938" y2="484.4938"/><line style="stroke:#000000;stroke-width:1.0;" x1="26.5" x2="389.5" y1="500.7906" y2="500.7906"/><line style="stroke:#000000;stroke-width:1.0;" x1="26.5" x2="389.5" y1="517.0875" y2="517.0875"/><line style="stroke:#000000;stroke-width:1.0;" x1="26.5" x2="389.5" y1="533.3844" y2="533.3844"/><line style="stroke:#000000;stroke-width:1.0;" x1="26.5" x2="389.5" y1="549.6813" y2="549.6813"/><line style="stroke:#000000;stroke-width:1.0;" x1="26.5" x2="26.5" y1="468.1969" y2="549.6813"/><line style="stroke:#000000;stroke-width:1.0;" x1="326.5" x2="326.5" y1="468.1969" y2="549.6813"/><line style="stroke:#000000;stroke-width:1.0;" x1="389.5" x2="389.5" y1="468.1969" y2="549.6813"/></g><g id="elem_Week7"><rect fill="#F1F1F1" height="200.2656" style="stroke:#181818;stroke-width:0.5;" width="502" x="434" y="397.15"/><text fill="#000000" font-family="sans-serif" font-size="14" lengthAdjust="spacing" textLength="48" x="661" y="412.1451">Week7</text><line style="stroke:#181818;stroke-width:0.5;" x1="435" x2="935" y1="417.4469" y2="417.4469"/><rect fill="#ADD8E6" height="16.2969" style="stroke:none;stroke-width:1.0;" width="482" x="444" y="427.4469"/><text fill="#000000" font-family="sans-serif" font-size="14" font-weight="bold" lengthAdjust="spacing" textLength="52" x="454" y="440.442">Tasks:</text><text fill="#000000" font-family="sans-serif" font-size="14" font-weight="bold" lengthAdjust="spacing" textLength="43" x="873" y="440.442">Who?</text><rect fill="#FFFFFF" height="16.2969" style="stroke:none;stroke-width:1.0;" width="482" x="444" y="443.7438"/><text fill="#000000" font-family="sans-serif" font-size="14" lengthAdjust="spacing" textLength="396" x="448" y="456.7389">test setup afgebouwd en getest, bill of materials gemaakt</text><text fill="#000000" font-family="sans-serif" font-size="14" lengthAdjust="spacing" textLength="43" x="867" y="456.7389">Timon</text><rect fill="#FFFFFF" height="16.2969" style="stroke:none;stroke-width:1.0;" width="482" x="444" y="460.0406"/><text fill="#000000" font-family="sans-serif" font-size="14" lengthAdjust="spacing" textLength="8" x="444" y="473.0357">&#160;&#160;</text><text fill="#000000" font-family="sans-serif" font-size="14" lengthAdjust="spacing" textLength="25" x="867" y="473.0357">Tim</text><rect fill="#FFFFFF" height="16.2969" style="stroke:none;stroke-width:1.0;" width="482" x="444" y="476.3375"/><text fill="#000000" font-family="sans-serif" font-size="14" lengthAdjust="spacing" textLength="8" x="444" y="489.3326">&#160;&#160;</text><text fill="#000000" font-family="sans-serif" font-size="14" lengthAdjust="spacing" textLength="31" x="867" y="489.3326">Mika</text><rect fill="#FFFFFF" height="16.2969" style="stroke:none;stroke-width:1.0;" width="482" x="444" y="492.6344"/><text fill="#000000" font-family="sans-serif" font-size="14" lengthAdjust="spacing" textLength="8" x="444" y="505.6295">&#160;&#160;</text><text fill="#000000" font-family="sans-serif" font-size="14" lengthAdjust="spacing" textLength="53" x="867" y="505.6295">Matthijs</text><rect fill="#ADD8E6" height="16.2969" style="stroke:none;stroke-width:1.0;" width="482" x="444" y="508.9313"/><text fill="#000000" font-family="sans-serif" font-size="14" font-weight="bold" lengthAdjust="spacing" textLength="52" x="454" y="521.9264">Tasks:</text><text fill="#000000" font-family="sans-serif" font-size="14" font-weight="bold" lengthAdjust="spacing" textLength="43" x="873" y="521.9264">Who?</text><rect fill="#FFFFFF" height="16.2969" style="stroke:none;stroke-width:1.0;" width="482" x="444" y="525.2281"/><text fill="#000000" font-family="sans-serif" font-size="14" lengthAdjust="spacing" textLength="411" x="448" y="538.2232">bill of materials doorgestuurd en Eplan tekeningen gemaakt</text><text fill="#000000" font-family="sans-serif" font-size="14" lengthAdjust="spacing" textLength="43" x="867" y="538.2232">Timon</text><rect fill="#FFFFFF" height="16.2969" style="stroke:none;stroke-width:1.0;" width="482" x="444" y="541.525"/><text fill="#000000" font-family="sans-serif" font-size="14" lengthAdjust="spacing" textLength="8" x="444" y="554.5201">&#160;&#160;</text><text fill="#000000" font-family="sans-serif" font-size="14" lengthAdjust="spacing" textLength="25" x="867" y="554.5201">Tim</text><rect fill="#FFFFFF" height="16.2969" style="stroke:none;stroke-width:1.0;" width="482" x="444" y="557.8219"/><text fill="#000000" font-family="sans-serif" font-size="14" lengthAdjust="spacing" textLength="8" x="444" y="570.817">&#160;&#160;</text><text fill="#000000" font-family="sans-serif" font-size="14" lengthAdjust="spacing" textLength="31" x="867" y="570.817">Mika</text><rect fill="#FFFFFF" height="16.2969" style="stroke:none;stroke-width:1.0;" width="482" x="444" y="574.1188"/><text fill="#000000" font-family="sans-serif" font-size="14" lengthAdjust="spacing" textLength="8" x="444" y="587.1139">&#160;&#160;</text><text fill="#000000" font-family="sans-serif" font-size="14" lengthAdjust="spacing" textLength="53" x="867" y="587.1139">Matthijs</text><line style="stroke:#000000;stroke-width:1.0;" x1="444" x2="926" y1="427.4469" y2="427.4469"/><line style="stroke:#000000;stroke-width:1.0;" x1="444" x2="926" y1="443.7438" y2="443.7438"/><line style="stroke:#000000;stroke-width:1.0;" x1="444" x2="926" y1="460.0406" y2="460.0406"/><line style="stroke:#000000;stroke-width:1.0;" x1="444" x2="926" y1="476.3375" y2="476.3375"/><line style="stroke:#000000;stroke-width:1.0;" x1="444" x2="926" y1="492.6344" y2="492.6344"/><line style="stroke:#000000;stroke-width:1.0;" x1="444" x2="926" y1="508.9313" y2="508.9313"/><line style="stroke:#000000;stroke-width:1.0;" x1="444" x2="926" y1="525.2281" y2="525.2281"/><line style="stroke:#000000;stroke-width:1.0;" x1="444" x2="926" y1="541.525" y2="541.525"/><line style="stroke:#000000;stroke-width:1.0;" x1="444" x2="926" y1="557.8219" y2="557.8219"/><line style="stroke:#000000;stroke-width:1.0;" x1="444" x2="926" y1="574.1188" y2="574.1188"/><line style="stroke:#000000;stroke-width:1.0;" x1="444" x2="926" y1="590.4156" y2="590.4156"/><line style="stroke:#000000;stroke-width:1.0;" x1="444" x2="444" y1="427.4469" y2="590.4156"/><line style="stroke:#000000;stroke-width:1.0;" x1="863" x2="863" y1="427.4469" y2="590.4156"/><line style="stroke:#000000;stroke-width:1.0;" x1="926" x2="926" y1="427.4469" y2="590.4156"/></g><!--SRC=[nPLPRzf04CVV_Ib6oaiYaIYGgq9jMfKS2eK6XHpg4rhROtlZzGxQ0uHAltl79YGjH_90gah8MBCpE__VpdYMmaUC7FGCbVzEsDp2pm3WuvQIQUP2vR6s5IeHvQVJJm2tbOCZYAa9K5fkKCIJp_nU1OqpwV1q2d2bHsYTJ8L360hZm0unaecCX9EaBKpX1vRFLw9Kj1pqdLvBbD6u2ek4XX31MunXPT2P4MEfqqgPXJuf6O_9vC-o_lQ-aAatfJjv1soDCh2eBHaBOmIDdEMr9AZuP0r3A8Xd9WldGyKQLqOH233IvY2iHMiBr6xk-2i8Q5Ql1yIy_cQXdahqaD5IWQwqCnJxg3nOtlvM5gHh_AnrXNEPVBIrhip5Kix6VyXvi4dElkCIbrKGa4e71eTafICpcGjOyBz4LxbBdP0fghu3_hcC6z9Gn0MP1TRWMJIiL7suYUeM5KFIPULZAL8Z2kOmV73Uu82I0QiPZ8GQuHg8Fngwe1YLNP2yu7wXQ1nbV4xJrIX7xujoNoeVbDrTX6eoiEZyy7r0aZT0ZZVgtkjT9QshGQ_JWeXqKau5RX04r323I34aFuxNm1p4F6QbhjghybXOdwx3WZKu9vlWE9wQJx95CXVE92cMApK8fL902V0tW4OAPNcb429tQ-XM8hqeNxI-aBuZqxBccCYapEEzgUXcSzTXZfhBKE7-AwZW2-hOgo88UfpJtNKxC49Zou5ItsliDmxswllR3tntjBs2UWFgHysZm-R-2TpTjg1StmcsBtiTiEHDXFprMBv4GbzEf9sWBKO2RZmtKu5Dk1wYRfzzcnlWN8-a8LrU7K7xlllYS7ou-vMdO1yDIu7xRd26YV3ASKH4CPz8axDVx7u8EaAdNgIyD-gWHRolcV1Q_pS0]--></g></svg>