<?xml version="1.0" encoding="us-ascii" standalone="no"?><svg xmlns="http://www.w3.org/2000/svg" xmlns:xlink="http://www.w3.org/1999/xlink" contentStyleType="text/css" height="122px" preserveAspectRatio="none" style="width:409px;height:122px;" version="1.1" viewBox="0 0 409 122" width="409px" zoomAndPan="magnify"><defs/><g><!--cluster Valve_assembly--><g id="cluster_Valve_assembly"><rect fill="none" height="109" rx="2.5" ry="2.5" style="stroke:#181818;stroke-width:1.0;" width="396" x="7" y="7"/><rect fill="none" height="10" style="stroke:#181818;stroke-width:1.0;" width="15" x="383" y="12"/><rect fill="none" height="2" style="stroke:#181818;stroke-width:1.0;" width="4" x="381" y="14"/><rect fill="none" height="2" style="stroke:#181818;stroke-width:1.0;" width="4" x="381" y="18"/><text fill="#000000" font-family="sans-serif" font-size="14" font-weight="bold" lengthAdjust="spacing" textLength="124" x="143" y="32.9951">Valve_assembly</text></g><!--entity Ring--><g id="elem_Ring"><rect fill="#F1F1F1" height="46.2969" rx="2.5" ry="2.5" style="stroke:#181818;stroke-width:0.5;" width="71" x="316" y="47.85"/><rect fill="#F1F1F1" height="10" style="stroke:#181818;stroke-width:0.5;" width="15" x="367" y="52.85"/><rect fill="#F1F1F1" height="2" style="stroke:#181818;stroke-width:0.5;" width="4" x="365" y="54.85"/><rect fill="#F1F1F1" height="2" style="stroke:#181818;stroke-width:0.5;" width="4" x="365" y="58.85"/><text fill="#000000" font-family="sans-serif" font-size="14" lengthAdjust="spacing" textLength="31" x="331" y="80.8451">Ring</text></g><!--entity concentric--><g id="elem_concentric"><ellipse cx="212" cy="71" fill="#F1F1F1" rx="8" ry="8" style="stroke:#181818;stroke-width:0.5;"/><text fill="#000000" font-family="sans-serif" font-size="14" lengthAdjust="spacing" textLength="73" x="175.5" y="100.9951">concentric</text></g><!--entity House--><g id="elem_House"><rect fill="#F1F1F1" height="46.2969" rx="2.5" ry="2.5" style="stroke:#181818;stroke-width:0.5;" width="85" x="23" y="47.85"/><rect fill="#F1F1F1" height="10" style="stroke:#181818;stroke-width:0.5;" width="15" x="88" y="52.85"/><rect fill="#F1F1F1" height="2" style="stroke:#181818;stroke-width:0.5;" width="4" x="86" y="54.85"/><rect fill="#F1F1F1" height="2" style="stroke:#181818;stroke-width:0.5;" width="4" x="86" y="58.85"/><text fill="#000000" font-family="sans-serif" font-size="14" lengthAdjust="spacing" textLength="45" x="38" y="80.8451">House</text></g><!--link concentric to Ring--><g id="link_concentric_Ring"><path d="M220.79,71 C238.68,71 283.66,71 315.62,71 " fill="none" id="concentric-Ring" style="stroke:#181818;stroke-width:1.0;"/></g><!--link House to concentric--><g id="link_House_concentric"><path d="M108.3,71 C138.38,71 177.09,71 197.31,71 " fill="none" id="House-to-concentric" style="stroke:#181818;stroke-width:1.0;"/><polygon fill="#181818" points="202.19,71,193.19,67,197.19,71,193.19,75,202.19,71" style="stroke:#181818;stroke-width:1.0;"/></g><!--SRC=[LOon2i9038RtUuhGHHtw2YukpWuk8dAznZRqcfHSMYZYktjUGJ33pm_VzoSDn9DNFqBZmz2fpDoU98g2gUUK4RAvY4y34r3gUeEM58EHiDkbtpmIewqJWgZruboGSHBEOxZwkE33fuHZ4rTuESXNudOXxkwbxWzG1U6G1qgXWhg6BtIRTvOvuIQMcl7npzz-lZy0]--></g></svg>