<?xml version="1.0" encoding="us-ascii" standalone="no"?><svg xmlns="http://www.w3.org/2000/svg" xmlns:xlink="http://www.w3.org/1999/xlink" contentStyleType="text/css" height="463px" preserveAspectRatio="none" style="width:1022px;height:463px;" version="1.1" viewBox="0 0 1022 463" width="1022px" zoomAndPan="magnify"><defs/><g><!--cluster Construction_valve--><g id="cluster_Construction_valve"><rect fill="none" height="425" rx="2.5" ry="2.5" style="stroke:#181818;stroke-width:1.0;" width="1009" x="7" y="7"/><rect fill="none" height="10" style="stroke:#181818;stroke-width:1.0;" width="15" x="996" y="12"/><rect fill="none" height="2" style="stroke:#181818;stroke-width:1.0;" width="4" x="994" y="14"/><rect fill="none" height="2" style="stroke:#181818;stroke-width:1.0;" width="4" x="994" y="18"/><text fill="#000000" font-family="sans-serif" font-size="14" font-weight="bold" lengthAdjust="spacing" textLength="150" x="436.5" y="32.9951">Construction_valve</text></g><!--entity Ring--><g id="elem_Ring"><rect fill="#F1F1F1" height="46.2969" rx="2.5" ry="2.5" style="stroke:#181818;stroke-width:0.5;" width="71" x="928.5" y="325.85"/><rect fill="#F1F1F1" height="10" style="stroke:#181818;stroke-width:0.5;" width="15" x="979.5" y="330.85"/><rect fill="#F1F1F1" height="2" style="stroke:#181818;stroke-width:0.5;" width="4" x="977.5" y="332.85"/><rect fill="#F1F1F1" height="2" style="stroke:#181818;stroke-width:0.5;" width="4" x="977.5" y="336.85"/><text fill="#000000" font-family="sans-serif" font-size="14" lengthAdjust="spacing" textLength="31" x="943.5" y="358.8451">Ring</text></g><!--entity concentric outside 10mm--><g id="elem_concentric outside 10mm"><ellipse cx="516" cy="387" fill="#F1F1F1" rx="8" ry="8" style="stroke:#181818;stroke-width:0.5;"/><text fill="#000000" font-family="sans-serif" font-size="14" lengthAdjust="spacing" textLength="177" x="427.5" y="416.9951">concentric outside 10mm</text></g><!--entity thickness--><g id="elem_thickness"><ellipse cx="770" cy="311" fill="#F1F1F1" rx="8" ry="8" style="stroke:#181818;stroke-width:0.5;"/><text fill="#000000" font-family="sans-serif" font-size="14" lengthAdjust="spacing" textLength="67" x="736.5" y="340.9951">thickness</text></g><!--entity Nut--><g id="elem_Nut"><rect fill="#F1F1F1" height="46.2969" rx="2.5" ry="2.5" style="stroke:#181818;stroke-width:0.5;" width="64" x="484" y="276.85"/><rect fill="#F1F1F1" height="10" style="stroke:#181818;stroke-width:0.5;" width="15" x="528" y="281.85"/><rect fill="#F1F1F1" height="2" style="stroke:#181818;stroke-width:0.5;" width="4" x="526" y="283.85"/><rect fill="#F1F1F1" height="2" style="stroke:#181818;stroke-width:0.5;" width="4" x="526" y="287.85"/><text fill="#000000" font-family="sans-serif" font-size="14" lengthAdjust="spacing" textLength="24" x="499" y="309.8451">Nut</text></g><!--entity screw thread m10--><g id="elem_screw thread m10"><ellipse cx="264" cy="350" fill="#F1F1F1" rx="8" ry="8" style="stroke:#181818;stroke-width:0.5;"/><text fill="#000000" font-family="sans-serif" font-size="14" lengthAdjust="spacing" textLength="125" x="201.5" y="379.9951">screw thread m10</text></g><!--entity cap--><g id="elem_cap"><rect fill="#F1F1F1" height="46.2969" rx="2.5" ry="2.5" style="stroke:#181818;stroke-width:0.5;" width="65" x="483.5" y="195.85"/><rect fill="#F1F1F1" height="10" style="stroke:#181818;stroke-width:0.5;" width="15" x="528.5" y="200.85"/><rect fill="#F1F1F1" height="2" style="stroke:#181818;stroke-width:0.5;" width="4" x="526.5" y="202.85"/><rect fill="#F1F1F1" height="2" style="stroke:#181818;stroke-width:0.5;" width="4" x="526.5" y="206.85"/><text fill="#000000" font-family="sans-serif" font-size="14" lengthAdjust="spacing" textLength="25" x="498.5" y="228.8451">cap</text></g><!--entity fine thread m12--><g id="elem_fine thread m12"><ellipse cx="264" cy="257" fill="#F1F1F1" rx="8" ry="8" style="stroke:#181818;stroke-width:0.5;"/><text fill="#000000" font-family="sans-serif" font-size="14" lengthAdjust="spacing" textLength="109" x="209.5" y="286.9951">fine thread m12</text></g><!--entity tube--><g id="elem_tube"><rect fill="#F1F1F1" height="46.2969" rx="2.5" ry="2.5" style="stroke:#181818;stroke-width:0.5;" width="72" x="928" y="94.85"/><rect fill="#F1F1F1" height="10" style="stroke:#181818;stroke-width:0.5;" width="15" x="980" y="99.85"/><rect fill="#F1F1F1" height="2" style="stroke:#181818;stroke-width:0.5;" width="4" x="978" y="101.85"/><rect fill="#F1F1F1" height="2" style="stroke:#181818;stroke-width:0.5;" width="4" x="978" y="105.85"/><text fill="#000000" font-family="sans-serif" font-size="14" lengthAdjust="spacing" textLength="32" x="943" y="127.8451">tube</text></g><!--entity concentric outside 20 mm--><g id="elem_concentric outside 20 mm"><ellipse cx="770" cy="71" fill="#F1F1F1" rx="8" ry="8" style="stroke:#181818;stroke-width:0.5;"/><text fill="#000000" font-family="sans-serif" font-size="14" lengthAdjust="spacing" textLength="181" x="679.5" y="100.9951">concentric outside 20 mm</text></g><!--entity concentric inside 20 mm--><g id="elem_concentric inside 20 mm"><ellipse cx="770" cy="164" fill="#F1F1F1" rx="8" ry="8" style="stroke:#181818;stroke-width:0.5;"/><text fill="#000000" font-family="sans-serif" font-size="14" lengthAdjust="spacing" textLength="170" x="685" y="193.9951">concentric inside 20 mm</text></g><!--entity Nut2--><g id="elem_Nut2"><rect fill="#F1F1F1" height="46.2969" rx="2.5" ry="2.5" style="stroke:#181818;stroke-width:0.5;" width="73" x="479.5" y="114.85"/><rect fill="#F1F1F1" height="10" style="stroke:#181818;stroke-width:0.5;" width="15" x="532.5" y="119.85"/><rect fill="#F1F1F1" height="2" style="stroke:#181818;stroke-width:0.5;" width="4" x="530.5" y="121.85"/><rect fill="#F1F1F1" height="2" style="stroke:#181818;stroke-width:0.5;" width="4" x="530.5" y="125.85"/><text fill="#000000" font-family="sans-serif" font-size="14" lengthAdjust="spacing" textLength="33" x="494.5" y="147.8451">Nut2</text></g><!--entity screw thread m20--><g id="elem_screw thread m20"><ellipse cx="264" cy="164" fill="#F1F1F1" rx="8" ry="8" style="stroke:#181818;stroke-width:0.5;"/><text fill="#000000" font-family="sans-serif" font-size="14" lengthAdjust="spacing" textLength="125" x="201.5" y="193.9951">screw thread m20</text></g><!--entity House--><g id="elem_House"><rect fill="#F1F1F1" height="46.2969" rx="2.5" ry="2.5" style="stroke:#181818;stroke-width:0.5;" width="85" x="23" y="233.85"/><rect fill="#F1F1F1" height="10" style="stroke:#181818;stroke-width:0.5;" width="15" x="88" y="238.85"/><rect fill="#F1F1F1" height="2" style="stroke:#181818;stroke-width:0.5;" width="4" x="86" y="240.85"/><rect fill="#F1F1F1" height="2" style="stroke:#181818;stroke-width:0.5;" width="4" x="86" y="244.85"/><text fill="#000000" font-family="sans-serif" font-size="14" lengthAdjust="spacing" textLength="45" x="38" y="266.8451">House</text></g><!--entity concentric outside 20mm--><g id="elem_concentric outside 20mm"><ellipse cx="264" cy="71" fill="#F1F1F1" rx="8" ry="8" style="stroke:#181818;stroke-width:0.5;"/><text fill="#000000" font-family="sans-serif" font-size="14" lengthAdjust="spacing" textLength="177" x="175.5" y="100.9951">concentric outside 20mm</text></g><!--link concentric outside 10mm to Ring--><g id="link_concentric outside 10mm_Ring"><path d="M524.74,386.34 C572.98,382.23 833.35,360.05 928.32,351.96 " fill="none" id="concentric outside 10mm-Ring" style="stroke:#181818;stroke-width:1.0;"/></g><!--link thickness to Ring--><g id="link_thickness_Ring"><path d="M778.76,312.54 C803.6,317.45 882.17,333 928.29,342.13 " fill="none" id="thickness-Ring" style="stroke:#181818;stroke-width:1.0;"/></g><!--link screw thread m10 to Nut--><g id="link_screw thread m10_Nut"><path d="M272.76,348.45 C304.49,342.1 425.47,317.91 483.54,306.29 " fill="none" id="screw thread m10-Nut" style="stroke:#181818;stroke-width:1.0;"/></g><!--link Nut to thickness--><g id="link_Nut_thickness"><path d="M548.41,301.37 C603.76,303.79 716.52,308.71 755.44,310.41 " fill="none" id="Nut-to-thickness" style="stroke:#181818;stroke-width:1.0;"/><polygon fill="#181818" points="760.03,310.65,751.2101,306.2672,755.0346,310.4353,750.8665,314.2598,760.03,310.65" style="stroke:#181818;stroke-width:1.0;"/></g><!--link fine thread m12 to cap--><g id="link_fine thread m12_cap"><path d="M272.76,255.82 C304.4,251.01 424.84,232.7 483.08,223.85 " fill="none" id="fine thread m12-cap" style="stroke:#181818;stroke-width:1.0;"/></g><!--link concentric outside 20 mm to tube--><g id="link_concentric outside 20 mm_tube"><path d="M778.76,72.9 C803.46,78.95 881.28,98 927.5,109.31 " fill="none" id="concentric outside 20 mm-tube" style="stroke:#181818;stroke-width:1.0;"/></g><!--link concentric inside 20 mm to tube--><g id="link_concentric inside 20 mm_tube"><path d="M778.76,162.14 C803.46,156.22 881.28,137.58 927.5,126.5 " fill="none" id="concentric inside 20 mm-tube" style="stroke:#181818;stroke-width:1.0;"/></g><!--link screw thread m20 to Nut2--><g id="link_screw thread m20_Nut2"><path d="M272.76,163.19 C303.74,159.97 419.86,147.89 479.36,141.71 " fill="none" id="screw thread m20-Nut2" style="stroke:#181818;stroke-width:1.0;"/></g><!--link Nut2 to concentric inside 20 mm--><g id="link_Nut2_concentric inside 20 mm"><path d="M552.84,141.7 C609.61,147.56 717.68,158.71 755.51,162.61 " fill="none" id="Nut2-to-concentric inside 20 mm" style="stroke:#181818;stroke-width:1.0;"/><polygon fill="#181818" points="760.35,163.21,751.8094,158.3051,755.3765,162.6955,750.9862,166.2627,760.35,163.21" style="stroke:#181818;stroke-width:1.0;"/></g><!--link House to concentric outside 10mm--><g id="link_House_concentric outside 10mm"><path d="M75.41,280.47 C89.41,313.53 120,372.51 168,397 C284.61,456.49 453.15,407.83 501.55,391.72 " fill="none" id="House-to-concentric outside 10mm" style="stroke:#181818;stroke-width:1.0;"/><polygon fill="#181818" points="506.08,389.84,496.2727,388.9357,501.3438,391.4426,498.8369,396.5136,506.08,389.84" style="stroke:#181818;stroke-width:1.0;"/></g><!--link House to screw thread m10--><g id="link_House_screw thread m10"><path d="M108.17,276.72 C152.95,297.92 221.52,330.37 249.95,343.82 " fill="none" id="House-to-screw thread m10" style="stroke:#181818;stroke-width:1.0;"/><polygon fill="#181818" points="254.08,346.25,247.6364,338.8015,249.5549,344.1231,244.2333,346.0416,254.08,346.25" style="stroke:#181818;stroke-width:1.0;"/></g><!--link House to concentric outside 20mm--><g id="link_House_concentric outside 20mm"><path d="M78.74,233.43 C95.45,203.16 127.95,150.54 168,117 C193.34,95.78 230.12,81.63 249.65,75.12 " fill="none" id="House-to-concentric outside 20mm" style="stroke:#181818;stroke-width:1.0;"/><polygon fill="#181818" points="254.13,73.34,244.335,72.3117,249.3739,74.8825,246.803,79.9214,254.13,73.34" style="stroke:#181818;stroke-width:1.0;"/></g><!--link House to screw thread m20--><g id="link_House_screw thread m20"><path d="M108.17,237.28 C152.95,216.08 221.52,183.63 249.95,170.18 " fill="none" id="House-to-screw thread m20" style="stroke:#181818;stroke-width:1.0;"/><polygon fill="#181818" points="254.08,167.75,244.2333,167.9584,249.5549,169.8769,247.6364,175.1985,254.08,167.75" style="stroke:#181818;stroke-width:1.0;"/></g><!--link House to fine thread m12--><g id="link_House_fine thread m12"><path d="M108.17,257 C152.58,257 220.38,257 249.23,257 " fill="none" id="House-to-fine thread m12" style="stroke:#181818;stroke-width:1.0;"/><polygon fill="#181818" points="254.08,257,245.08,253,249.08,257,245.08,261,254.08,257" style="stroke:#181818;stroke-width:1.0;"/></g><!--SRC=[ZPB1JiCm38RlUGfhby5XKfS7uB8B9mvS4K9PchLHMxjodA49yUvaQTN2kW4zj8xo_Pzigw7ns1is7UoDRIgcYEMEMc8GDXZIbKDHhJi8207xgXOeFJihdb2jmnHlFJevzGw8fIQbB7KzOGh3ZZ08nvnuEvhswE13GNhow-NPO_MQoxjxM5b2cqBiBL2Ku4i7swBhLh3Pm9cSGAczRT25C5yDlgSeiovOTkyWDJjJGhSjCfo83AHlEZvyTuqEQ_hPSKYJpGgT5GaOKObxzslxke2n_pDwZVHu3PocqRV6qTCuEXEv6YQwPLUZzf5Y6DlEvIBrO_cNt6Ah_n3flqLwARhS_V3VV7u1]--></g></svg>