<?xml version="1.0" encoding="us-ascii" standalone="no"?><svg xmlns="http://www.w3.org/2000/svg" xmlns:xlink="http://www.w3.org/1999/xlink" contentStyleType="text/css" height="1532px" preserveAspectRatio="none" style="width:1085px;height:1532px;" version="1.1" viewBox="0 0 1085 1532" width="1085px" zoomAndPan="magnify"><defs/><g><!--cluster Valve_assembly_setup--><g id="cluster_Valve_assembly_setup"><rect fill="none" height="1519" rx="2.5" ry="2.5" style="stroke:#181818;stroke-width:1.0;" width="1072" x="7" y="7"/><rect fill="none" height="10" style="stroke:#181818;stroke-width:1.0;" width="15" x="1059" y="12"/><rect fill="none" height="2" style="stroke:#181818;stroke-width:1.0;" width="4" x="1057" y="14"/><rect fill="none" height="2" style="stroke:#181818;stroke-width:1.0;" width="4" x="1057" y="18"/><text fill="#000000" font-family="sans-serif" font-size="14" font-weight="bold" lengthAdjust="spacing" textLength="176" x="455" y="32.9951">Valve_assembly_setup</text></g><!--entity Storage--><g id="elem_Storage"><rect fill="#F1F1F1" height="46.2969" rx="2.5" ry="2.5" style="stroke:#181818;stroke-width:0.5;" width="94" x="499.5" y="647.85"/><rect fill="#F1F1F1" height="10" style="stroke:#181818;stroke-width:0.5;" width="15" x="573.5" y="652.85"/><rect fill="#F1F1F1" height="2" style="stroke:#181818;stroke-width:0.5;" width="4" x="571.5" y="654.85"/><rect fill="#F1F1F1" height="2" style="stroke:#181818;stroke-width:0.5;" width="4" x="571.5" y="658.85"/><text fill="#000000" font-family="sans-serif" font-size="14" lengthAdjust="spacing" textLength="54" x="514.5" y="680.8451">Storage</text></g><!--entity pickup\nposition\nring--><g id="elem_pickup\nposition\nring"><ellipse cx="306" cy="667" fill="#F1F1F1" rx="8" ry="8" style="stroke:#181818;stroke-width:0.5;"/><text fill="#000000" font-family="sans-serif" font-size="14" lengthAdjust="spacing" textLength="46" x="278.5" y="696.9951">pickup</text><text fill="#000000" font-family="sans-serif" font-size="14" lengthAdjust="spacing" textLength="55" x="278.5" y="713.292">position</text><text fill="#000000" font-family="sans-serif" font-size="14" lengthAdjust="spacing" textLength="26" x="278.5" y="729.5889">ring</text></g><!--entity pickup\nposition\nplunger--><g id="elem_pickup\nposition\nplunger"><ellipse cx="306" cy="949" fill="#F1F1F1" rx="8" ry="8" style="stroke:#181818;stroke-width:0.5;"/><text fill="#000000" font-family="sans-serif" font-size="14" lengthAdjust="spacing" textLength="46" x="278.5" y="978.9951">pickup</text><text fill="#000000" font-family="sans-serif" font-size="14" lengthAdjust="spacing" textLength="55" x="278.5" y="995.292">position</text><text fill="#000000" font-family="sans-serif" font-size="14" lengthAdjust="spacing" textLength="53" x="278.5" y="1011.5889">plunger</text></g><!--entity pickup\nposition\ncap--><g id="elem_pickup\nposition\ncap"><ellipse cx="306" cy="1106" fill="#F1F1F1" rx="8" ry="8" style="stroke:#181818;stroke-width:0.5;"/><text fill="#000000" font-family="sans-serif" font-size="14" lengthAdjust="spacing" textLength="46" x="278.5" y="1135.9951">pickup</text><text fill="#000000" font-family="sans-serif" font-size="14" lengthAdjust="spacing" textLength="55" x="278.5" y="1152.292">position</text><text fill="#000000" font-family="sans-serif" font-size="14" lengthAdjust="spacing" textLength="25" x="278.5" y="1168.5889">cap</text></g><!--entity pickup\nposition\nhouse--><g id="elem_pickup\nposition\nhouse"><ellipse cx="306" cy="510" fill="#F1F1F1" rx="8" ry="8" style="stroke:#181818;stroke-width:0.5;"/><text fill="#000000" font-family="sans-serif" font-size="14" lengthAdjust="spacing" textLength="46" x="278.5" y="539.9951">pickup</text><text fill="#000000" font-family="sans-serif" font-size="14" lengthAdjust="spacing" textLength="55" x="278.5" y="556.292">position</text><text fill="#000000" font-family="sans-serif" font-size="14" lengthAdjust="spacing" textLength="44" x="278.5" y="572.5889">house</text></g><!--entity pickup\nposition\nsmall nut--><g id="elem_pickup\nposition\nsmall nut"><ellipse cx="306" cy="353" fill="#F1F1F1" rx="8" ry="8" style="stroke:#181818;stroke-width:0.5;"/><text fill="#000000" font-family="sans-serif" font-size="14" lengthAdjust="spacing" textLength="46" x="275" y="382.9951">pickup</text><text fill="#000000" font-family="sans-serif" font-size="14" lengthAdjust="spacing" textLength="55" x="275" y="399.292">position</text><text fill="#000000" font-family="sans-serif" font-size="14" lengthAdjust="spacing" textLength="62" x="275" y="415.5889">small nut</text></g><!--entity pickup\nposition\nbig nut--><g id="elem_pickup\nposition\nbig nut"><ellipse cx="306" cy="1263" fill="#F1F1F1" rx="8" ry="8" style="stroke:#181818;stroke-width:0.5;"/><text fill="#000000" font-family="sans-serif" font-size="14" lengthAdjust="spacing" textLength="46" x="278.5" y="1292.9951">pickup</text><text fill="#000000" font-family="sans-serif" font-size="14" lengthAdjust="spacing" textLength="55" x="278.5" y="1309.292">position</text><text fill="#000000" font-family="sans-serif" font-size="14" lengthAdjust="spacing" textLength="48" x="278.5" y="1325.5889">big nut</text></g><!--entity pickup\nposition\nassembled valve--><g id="elem_pickup\nposition\nassembled valve"><ellipse cx="306" cy="103" fill="#F1F1F1" rx="8" ry="8" style="stroke:#181818;stroke-width:0.5;"/><text fill="#000000" font-family="sans-serif" font-size="14" lengthAdjust="spacing" textLength="46" x="249" y="132.9951">pickup</text><text fill="#000000" font-family="sans-serif" font-size="14" lengthAdjust="spacing" textLength="55" x="249" y="149.292">position</text><text fill="#000000" font-family="sans-serif" font-size="14" lengthAdjust="spacing" textLength="114" x="249" y="165.5889">assembled valve</text></g><!--entity position\nstorage--><g id="elem_position\nstorage"><ellipse cx="821" cy="679" fill="#F1F1F1" rx="8" ry="8" style="stroke:#181818;stroke-width:0.5;"/><text fill="#000000" font-family="sans-serif" font-size="14" lengthAdjust="spacing" textLength="55" x="793.5" y="708.9951">position</text><text fill="#000000" font-family="sans-serif" font-size="14" lengthAdjust="spacing" textLength="53" x="793.5" y="725.292">storage</text></g><!--entity Ring--><g id="elem_Ring"><rect fill="#F1F1F1" height="46.2969" rx="2.5" ry="2.5" style="stroke:#181818;stroke-width:0.5;" width="71" x="66.5" y="643.85"/><rect fill="#F1F1F1" height="10" style="stroke:#181818;stroke-width:0.5;" width="15" x="117.5" y="648.85"/><rect fill="#F1F1F1" height="2" style="stroke:#181818;stroke-width:0.5;" width="4" x="115.5" y="650.85"/><rect fill="#F1F1F1" height="2" style="stroke:#181818;stroke-width:0.5;" width="4" x="115.5" y="654.85"/><text fill="#000000" font-family="sans-serif" font-size="14" lengthAdjust="spacing" textLength="31" x="81.5" y="676.8451">Ring</text></g><!--entity Plunger--><g id="elem_Plunger"><rect fill="#F1F1F1" height="46.2969" rx="2.5" ry="2.5" style="stroke:#181818;stroke-width:0.5;" width="93" x="55.5" y="925.85"/><rect fill="#F1F1F1" height="10" style="stroke:#181818;stroke-width:0.5;" width="15" x="128.5" y="930.85"/><rect fill="#F1F1F1" height="2" style="stroke:#181818;stroke-width:0.5;" width="4" x="126.5" y="932.85"/><rect fill="#F1F1F1" height="2" style="stroke:#181818;stroke-width:0.5;" width="4" x="126.5" y="936.85"/><text fill="#000000" font-family="sans-serif" font-size="14" lengthAdjust="spacing" textLength="53" x="70.5" y="958.8451">Plunger</text></g><!--entity Cap--><g id="elem_Cap"><rect fill="#F1F1F1" height="46.2969" rx="2.5" ry="2.5" style="stroke:#181818;stroke-width:0.5;" width="67" x="68.5" y="1223.85"/><rect fill="#F1F1F1" height="10" style="stroke:#181818;stroke-width:0.5;" width="15" x="115.5" y="1228.85"/><rect fill="#F1F1F1" height="2" style="stroke:#181818;stroke-width:0.5;" width="4" x="113.5" y="1230.85"/><rect fill="#F1F1F1" height="2" style="stroke:#181818;stroke-width:0.5;" width="4" x="113.5" y="1234.85"/><text fill="#000000" font-family="sans-serif" font-size="14" lengthAdjust="spacing" textLength="27" x="83.5" y="1256.8451">Cap</text></g><!--entity holder cap--><g id="elem_holder cap"><ellipse cx="306" cy="1388" fill="#F1F1F1" rx="8" ry="8" style="stroke:#181818;stroke-width:0.5;"/><text fill="#000000" font-family="sans-serif" font-size="14" lengthAdjust="spacing" textLength="73" x="269.5" y="1417.9951">holder cap</text></g><!--entity House--><g id="elem_House"><rect fill="#F1F1F1" height="46.2969" rx="2.5" ry="2.5" style="stroke:#181818;stroke-width:0.5;" width="85" x="59.5" y="486.85"/><rect fill="#F1F1F1" height="10" style="stroke:#181818;stroke-width:0.5;" width="15" x="124.5" y="491.85"/><rect fill="#F1F1F1" height="2" style="stroke:#181818;stroke-width:0.5;" width="4" x="122.5" y="493.85"/><rect fill="#F1F1F1" height="2" style="stroke:#181818;stroke-width:0.5;" width="4" x="122.5" y="497.85"/><text fill="#000000" font-family="sans-serif" font-size="14" lengthAdjust="spacing" textLength="45" x="74.5" y="519.8451">House</text></g><!--entity Small_nut--><g id="elem_Small_nut"><rect fill="#F1F1F1" height="46.2969" rx="2.5" ry="2.5" style="stroke:#181818;stroke-width:0.5;" width="106" x="49" y="267.85"/><rect fill="#F1F1F1" height="10" style="stroke:#181818;stroke-width:0.5;" width="15" x="135" y="272.85"/><rect fill="#F1F1F1" height="2" style="stroke:#181818;stroke-width:0.5;" width="4" x="133" y="274.85"/><rect fill="#F1F1F1" height="2" style="stroke:#181818;stroke-width:0.5;" width="4" x="133" y="278.85"/><text fill="#000000" font-family="sans-serif" font-size="14" lengthAdjust="spacing" textLength="66" x="64" y="300.8451">Small_nut</text></g><!--entity holder small nut--><g id="elem_holder small nut"><ellipse cx="306" cy="228" fill="#F1F1F1" rx="8" ry="8" style="stroke:#181818;stroke-width:0.5;"/><text fill="#000000" font-family="sans-serif" font-size="14" lengthAdjust="spacing" textLength="110" x="251" y="257.9951">holder small nut</text></g><!--entity Big_nut--><g id="elem_Big_nut"><rect fill="#F1F1F1" height="46.2969" rx="2.5" ry="2.5" style="stroke:#181818;stroke-width:0.5;" width="92" x="56" y="1381.85"/><rect fill="#F1F1F1" height="10" style="stroke:#181818;stroke-width:0.5;" width="15" x="128" y="1386.85"/><rect fill="#F1F1F1" height="2" style="stroke:#181818;stroke-width:0.5;" width="4" x="126" y="1388.85"/><rect fill="#F1F1F1" height="2" style="stroke:#181818;stroke-width:0.5;" width="4" x="126" y="1392.85"/><text fill="#000000" font-family="sans-serif" font-size="14" lengthAdjust="spacing" textLength="52" x="71" y="1414.8451">Big_nut</text></g><!--entity holder big nut--><g id="elem_holder big nut"><ellipse cx="306" cy="1481" fill="#F1F1F1" rx="8" ry="8" style="stroke:#181818;stroke-width:0.5;"/><text fill="#000000" font-family="sans-serif" font-size="14" lengthAdjust="spacing" textLength="96" x="258" y="1510.9951">holder big nut</text></g><!--entity Assembled_valve--><g id="elem_Assembled_valve"><rect fill="#F1F1F1" height="46.2969" rx="2.5" ry="2.5" style="stroke:#181818;stroke-width:0.5;" width="158" x="23" y="79.85"/><rect fill="#F1F1F1" height="10" style="stroke:#181818;stroke-width:0.5;" width="15" x="161" y="84.85"/><rect fill="#F1F1F1" height="2" style="stroke:#181818;stroke-width:0.5;" width="4" x="159" y="86.85"/><rect fill="#F1F1F1" height="2" style="stroke:#181818;stroke-width:0.5;" width="4" x="159" y="90.85"/><text fill="#000000" font-family="sans-serif" font-size="14" lengthAdjust="spacing" textLength="118" x="38" y="112.8451">Assembled_valve</text></g><!--entity Robot--><g id="elem_Robot"><rect fill="#F1F1F1" height="46.2969" rx="2.5" ry="2.5" style="stroke:#181818;stroke-width:0.5;" width="82" x="505.5" y="784.85"/><rect fill="#F1F1F1" height="10" style="stroke:#181818;stroke-width:0.5;" width="15" x="567.5" y="789.85"/><rect fill="#F1F1F1" height="2" style="stroke:#181818;stroke-width:0.5;" width="4" x="565.5" y="791.85"/><rect fill="#F1F1F1" height="2" style="stroke:#181818;stroke-width:0.5;" width="4" x="565.5" y="795.85"/><text fill="#000000" font-family="sans-serif" font-size="14" lengthAdjust="spacing" textLength="42" x="520.5" y="817.8451">Robot</text></g><!--entity end\neffector--><g id="elem_end\neffector"><ellipse cx="306" cy="808" fill="#F1F1F1" rx="8" ry="8" style="stroke:#181818;stroke-width:0.5;"/><text fill="#000000" font-family="sans-serif" font-size="14" lengthAdjust="spacing" textLength="27" x="279.5" y="837.9951">end</text><text fill="#000000" font-family="sans-serif" font-size="14" lengthAdjust="spacing" textLength="53" x="279.5" y="854.292">effector</text></g><!--entity position\nrobot--><g id="elem_position\nrobot"><ellipse cx="821" cy="808" fill="#F1F1F1" rx="8" ry="8" style="stroke:#181818;stroke-width:0.5;"/><text fill="#000000" font-family="sans-serif" font-size="14" lengthAdjust="spacing" textLength="55" x="793.5" y="837.9951">position</text><text fill="#000000" font-family="sans-serif" font-size="14" lengthAdjust="spacing" textLength="37" x="793.5" y="854.292">robot</text></g><!--entity Gripper--><g id="elem_Gripper"><rect fill="#F1F1F1" height="46.2969" rx="2.5" ry="2.5" style="stroke:#181818;stroke-width:0.5;" width="91" x="56.5" y="784.85"/><rect fill="#F1F1F1" height="10" style="stroke:#181818;stroke-width:0.5;" width="15" x="127.5" y="789.85"/><rect fill="#F1F1F1" height="2" style="stroke:#181818;stroke-width:0.5;" width="4" x="125.5" y="791.85"/><rect fill="#F1F1F1" height="2" style="stroke:#181818;stroke-width:0.5;" width="4" x="125.5" y="795.85"/><text fill="#000000" font-family="sans-serif" font-size="14" lengthAdjust="spacing" textLength="51" x="71.5" y="817.8451">Gripper</text></g><!--entity Frame--><g id="elem_Frame"><rect fill="#F1F1F1" height="46.2969" rx="2.5" ry="2.5" style="stroke:#181818;stroke-width:0.5;" width="83" x="980" y="784.85"/><rect fill="#F1F1F1" height="10" style="stroke:#181818;stroke-width:0.5;" width="15" x="1043" y="789.85"/><rect fill="#F1F1F1" height="2" style="stroke:#181818;stroke-width:0.5;" width="4" x="1041" y="791.85"/><rect fill="#F1F1F1" height="2" style="stroke:#181818;stroke-width:0.5;" width="4" x="1041" y="795.85"/><text fill="#000000" font-family="sans-serif" font-size="14" lengthAdjust="spacing" textLength="43" x="995" y="817.8451">Frame</text></g><!--entity position\nassembly station cap--><g id="elem_position\nassembly station cap"><ellipse cx="821" cy="1035" fill="#F1F1F1" rx="8" ry="8" style="stroke:#181818;stroke-width:0.5;"/><text fill="#000000" font-family="sans-serif" font-size="14" lengthAdjust="spacing" textLength="55" x="748.5" y="1064.9951">position</text><text fill="#000000" font-family="sans-serif" font-size="14" lengthAdjust="spacing" textLength="145" x="748.5" y="1081.292">assembly station cap</text></g><!--entity position\nassembly station small nut--><g id="elem_position\nassembly station small nut"><ellipse cx="821" cy="391" fill="#F1F1F1" rx="8" ry="8" style="stroke:#181818;stroke-width:0.5;"/><text fill="#000000" font-family="sans-serif" font-size="14" lengthAdjust="spacing" textLength="55" x="730" y="420.9951">position</text><text fill="#000000" font-family="sans-serif" font-size="14" lengthAdjust="spacing" textLength="182" x="730" y="437.292">assembly station small nut</text></g><!--entity position\nassembly station big nut--><g id="elem_position\nassembly station big nut"><ellipse cx="821" cy="1363" fill="#F1F1F1" rx="8" ry="8" style="stroke:#181818;stroke-width:0.5;"/><text fill="#000000" font-family="sans-serif" font-size="14" lengthAdjust="spacing" textLength="55" x="737" y="1392.9951">position</text><text fill="#000000" font-family="sans-serif" font-size="14" lengthAdjust="spacing" textLength="168" x="737" y="1409.292">assembly station big nut</text></g><!--entity assembly_station_cap--><g id="elem_assembly_station_cap"><rect fill="#F1F1F1" height="46.2969" rx="2.5" ry="2.5" style="stroke:#181818;stroke-width:0.5;" width="191" x="451" y="1188.85"/><rect fill="#F1F1F1" height="10" style="stroke:#181818;stroke-width:0.5;" width="15" x="622" y="1193.85"/><rect fill="#F1F1F1" height="2" style="stroke:#181818;stroke-width:0.5;" width="4" x="620" y="1195.85"/><rect fill="#F1F1F1" height="2" style="stroke:#181818;stroke-width:0.5;" width="4" x="620" y="1199.85"/><text fill="#000000" font-family="sans-serif" font-size="14" lengthAdjust="spacing" textLength="151" x="466" y="1221.8451">assembly_station_cap</text></g><!--entity assembly_station_small_nut--><g id="elem_assembly_station_small_nut"><rect fill="#F1F1F1" height="46.2969" rx="2.5" ry="2.5" style="stroke:#181818;stroke-width:0.5;" width="231" x="431" y="286.85"/><rect fill="#F1F1F1" height="10" style="stroke:#181818;stroke-width:0.5;" width="15" x="642" y="291.85"/><rect fill="#F1F1F1" height="2" style="stroke:#181818;stroke-width:0.5;" width="4" x="640" y="293.85"/><rect fill="#F1F1F1" height="2" style="stroke:#181818;stroke-width:0.5;" width="4" x="640" y="297.85"/><text fill="#000000" font-family="sans-serif" font-size="14" lengthAdjust="spacing" textLength="191" x="446" y="319.8451">assembly_station_small_nut</text></g><!--entity assembly_station_big_nut--><g id="elem_assembly_station_big_nut"><rect fill="#F1F1F1" height="46.2969" rx="2.5" ry="2.5" style="stroke:#181818;stroke-width:0.5;" width="217" x="438" y="1398.85"/><rect fill="#F1F1F1" height="10" style="stroke:#181818;stroke-width:0.5;" width="15" x="635" y="1403.85"/><rect fill="#F1F1F1" height="2" style="stroke:#181818;stroke-width:0.5;" width="4" x="633" y="1405.85"/><rect fill="#F1F1F1" height="2" style="stroke:#181818;stroke-width:0.5;" width="4" x="633" y="1409.85"/><text fill="#000000" font-family="sans-serif" font-size="14" lengthAdjust="spacing" textLength="177" x="453" y="1431.8451">assembly_station_big_nut</text></g><!--link pickup\nposition\nring to Storage--><g id="link_pickup\nposition\nring_Storage"><path d="M314.94,667.13 C343.18,667.61 440.3,669.24 499.1,670.22 " fill="none" id="pickup\nposition\nring-Storage" style="stroke:#181818;stroke-width:1.0;"/></g><!--link pickup\nposition\nplunger to Storage--><g id="link_pickup\nposition\nplunger_Storage"><path d="M314.96,940.11 C327.56,925.85 352.55,896.73 371,870 C401.1,826.4 396.86,807.51 431,767 C454.65,738.93 487.14,712.56 511.47,694.59 " fill="none" id="pickup\nposition\nplunger-Storage" style="stroke:#181818;stroke-width:1.0;"/></g><!--link pickup\nposition\ncap to Storage--><g id="link_pickup\nposition\ncap_Storage"><path d="M314.64,1098.97 C328.16,1086.06 356.3,1057.14 371,1027 C422.99,920.41 369.02,868.11 431,767 C449.51,736.81 480.83,711.52 506.04,694.49 " fill="none" id="pickup\nposition\ncap-Storage" style="stroke:#181818;stroke-width:1.0;"/></g><!--link pickup\nposition\nhouse to Storage--><g id="link_pickup\nposition\nhouse_Storage"><path d="M314.94,515.36 C345.16,535.76 454.26,609.41 510.87,647.62 " fill="none" id="pickup\nposition\nhouse-Storage" style="stroke:#181818;stroke-width:1.0;"/></g><!--link pickup\nposition\nsmall nut to Storage--><g id="link_pickup\nposition\nsmall nut_Storage"><path d="M314.66,361.99 C326.85,376.36 351.29,405.5 371,431 C431.16,508.86 498.69,604.13 529.1,647.5 " fill="none" id="pickup\nposition\nsmall nut-Storage" style="stroke:#181818;stroke-width:1.0;"/></g><!--link pickup\nposition\nbig nut to Storage--><g id="link_pickup\nposition\nbig nut_Storage"><path d="M314.89,1256.08 C328.82,1243.36 357.57,1214.73 371,1184 C445.96,1012.42 339.92,930.6 431,767 C448.03,736.4 478.94,711.38 504.36,694.56 " fill="none" id="pickup\nposition\nbig nut-Storage" style="stroke:#181818;stroke-width:1.0;"/></g><!--link pickup\nposition\nassembled valve to Storage--><g id="link_pickup\nposition\nassembled valve_Storage"><path d="M314.73,110.51 C327.89,123.69 354.83,152.31 371,181 C410.34,250.8 404.17,275.5 431,351 C470.52,462.2 518.17,594.96 537.13,647.72 " fill="none" id="pickup\nposition\nassembled valve-Storage" style="stroke:#181818;stroke-width:1.0;"/></g><!--link Storage to position\nstorage--><g id="link_Storage_position\nstorage"><path d="M593.73,672.36 C657.17,674.22 767.76,677.47 806.29,678.6 " fill="none" id="Storage-to-position\nstorage" style="stroke:#181818;stroke-width:1.0;"/><polygon fill="#181818" points="811.23,678.77,802.3605,674.4885,806.2325,678.6125,802.1085,682.4845,811.23,678.77" style="stroke:#181818;stroke-width:1.0;"/></g><!--link Ring to pickup\nposition\nring--><g id="link_Ring_pickup\nposition\nring"><path d="M137.73,667 C183.01,667 260.12,667 291.3,667 " fill="none" id="Ring-to-pickup\nposition\nring" style="stroke:#181818;stroke-width:1.0;"/><polygon fill="#181818" points="296.23,667,287.23,663,291.23,667,287.23,671,296.23,667" style="stroke:#181818;stroke-width:1.0;"/></g><!--link Plunger to pickup\nposition\nplunger--><g id="link_Plunger_pickup\nposition\nplunger"><path d="M148.84,949 C194.72,949 262.52,949 291.29,949 " fill="none" id="Plunger-to-pickup\nposition\nplunger" style="stroke:#181818;stroke-width:1.0;"/><polygon fill="#181818" points="296.12,949,287.12,945,291.12,949,287.12,953,296.12,949" style="stroke:#181818;stroke-width:1.0;"/></g><!--link Cap to pickup\nposition\ncap--><g id="link_Cap_pickup\nposition\ncap"><path d="M135.9,1224.03 C181.35,1192.31 261.22,1136.56 292.21,1114.93 " fill="none" id="Cap-to-pickup\nposition\ncap" style="stroke:#181818;stroke-width:1.0;"/><polygon fill="#181818" points="296.08,1111.53,286.4135,1113.4165,291.9845,1114.3983,291.0027,1119.9693,296.08,1111.53" style="stroke:#181818;stroke-width:1.0;"/></g><!--link Cap to holder cap--><g id="link_Cap_holder cap"><path d="M135.9,1269.97 C181.35,1301.69 261.22,1357.44 292.21,1379.07 " fill="none" id="Cap-to-holder cap" style="stroke:#181818;stroke-width:1.0;"/><polygon fill="#181818" points="296.08,1382.47,291.0027,1374.0307,291.9845,1379.6017,286.4135,1380.5835,296.08,1382.47" style="stroke:#181818;stroke-width:1.0;"/></g><!--link House to pickup\nposition\nhouse--><g id="link_House_pickup\nposition\nhouse"><path d="M144.85,510 C190.81,510 262,510 291.49,510 " fill="none" id="House-to-pickup\nposition\nhouse" style="stroke:#181818;stroke-width:1.0;"/><polygon fill="#181818" points="296.13,510,287.13,506,291.13,510,287.13,514,296.13,510" style="stroke:#181818;stroke-width:1.0;"/></g><!--link Small_nut to pickup\nposition\nsmall nut--><g id="link_Small_nut_pickup\nposition\nsmall nut"><path d="M155.28,307.05 C201.15,321.12 264.63,340.61 291.8,348.95 " fill="none" id="Small_nut-to-pickup\nposition\nsmall nut" style="stroke:#181818;stroke-width:1.0;"/><polygon fill="#181818" points="296.32,350.64,288.8753,344.192,291.5368,349.1836,286.5451,351.8451,296.32,350.64" style="stroke:#181818;stroke-width:1.0;"/></g><!--link Small_nut to holder small nut--><g id="link_Small_nut_holder small nut"><path d="M155.28,274.69 C201.15,260.39 264.63,240.59 291.8,232.12 " fill="none" id="Small_nut-to-holder small nut" style="stroke:#181818;stroke-width:1.0;"/><polygon fill="#181818" points="296.32,230.39,286.5377,229.2465,291.5461,231.8765,288.9161,236.8848,296.32,230.39" style="stroke:#181818;stroke-width:1.0;"/></g><!--link Big_nut to pickup\nposition\nbig nut--><g id="link_Big_nut_pickup\nposition\nbig nut"><path d="M136.36,1381.55 C181.91,1349.53 261.43,1293.63 292.27,1271.95 " fill="none" id="Big_nut-to-pickup\nposition\nbig nut" style="stroke:#181818;stroke-width:1.0;"/><polygon fill="#181818" points="296.12,1268.54,286.4566,1270.4424,292.0292,1271.415,291.0566,1276.9876,296.12,1268.54" style="stroke:#181818;stroke-width:1.0;"/></g><!--link Big_nut to holder big nut--><g id="link_Big_nut_holder big nut"><path d="M148.33,1422.06 C194.38,1439.38 262.87,1465.15 291.58,1475.95 " fill="none" id="Big_nut-to-holder big nut" style="stroke:#181818;stroke-width:1.0;"/><polygon fill="#181818" points="296.08,1478.02,289.0575,1471.1146,291.3984,1476.2644,286.2485,1478.6052,296.08,1478.02" style="stroke:#181818;stroke-width:1.0;"/></g><!--link Assembled_valve to pickup\nposition\nassembled valve--><g id="link_Assembled_valve_pickup\nposition\nassembled valve"><path d="M181.39,103 C222.37,103 268.58,103 291.13,103 " fill="none" id="Assembled_valve-to-pickup\nposition\nassembled valve" style="stroke:#181818;stroke-width:1.0;"/><polygon fill="#181818" points="296.09,103,287.09,99,291.09,103,287.09,107,296.09,103" style="stroke:#181818;stroke-width:1.0;"/></g><!--link end\neffector to Robot--><g id="link_end\neffector_Robot"><path d="M314.94,808 C344.19,808 447.34,808 505.26,808 " fill="none" id="end\neffector-Robot" style="stroke:#181818;stroke-width:1.0;"/></g><!--link Robot to position\nrobot--><g id="link_Robot_position\nrobot"><path d="M587.71,808 C650.1,808 767.17,808 806.63,808 " fill="none" id="Robot-to-position\nrobot" style="stroke:#181818;stroke-width:1.0;"/><polygon fill="#181818" points="811.27,808,802.27,804,806.27,808,802.27,812,811.27,808" style="stroke:#181818;stroke-width:1.0;"/></g><!--link Gripper to pickup\nposition\nring--><g id="link_Gripper_pickup\nposition\nring"><path d="M136.81,784.4 C182.46,752.53 261.64,697.27 292.33,675.84 " fill="none" id="Gripper-to-pickup\nposition\nring" style="stroke:#181818;stroke-width:1.0;"/><polygon fill="#181818" points="296.16,672.48,286.4935,674.3665,292.0645,675.3483,291.0827,680.9193,296.16,672.48" style="stroke:#181818;stroke-width:1.0;"/></g><!--link Gripper to pickup\nposition\nplunger--><g id="link_Gripper_pickup\nposition\nplunger"><path d="M136.81,831.6 C182.46,863.47 261.64,918.73 292.33,940.16 " fill="none" id="Gripper-to-pickup\nposition\nplunger" style="stroke:#181818;stroke-width:1.0;"/><polygon fill="#181818" points="296.16,943.52,291.0827,935.0807,292.0645,940.6517,286.4935,941.6335,296.16,943.52" style="stroke:#181818;stroke-width:1.0;"/></g><!--link Gripper to pickup\nposition\ncap--><g id="link_Gripper_pickup\nposition\ncap"><path d="M123.29,831.28 C139.9,850.96 163.44,880.29 181,908 C212.7,958.04 208.84,977.26 241,1027 C257.15,1051.99 279.78,1078.32 293.36,1093.39 " fill="none" id="Gripper-to-pickup\nposition\ncap" style="stroke:#181818;stroke-width:1.0;"/><polygon fill="#181818" points="296.26,1096.69,293.1926,1087.331,292.9073,1092.9806,287.2576,1092.6953,296.26,1096.69" style="stroke:#181818;stroke-width:1.0;"/></g><!--link Gripper to pickup\nposition\nhouse--><g id="link_Gripper_pickup\nposition\nhouse"><path d="M123.31,784.73 C139.94,765.07 163.49,735.74 181,708 C212.83,657.58 208.55,638.03 241,588 C257.07,563.23 279.72,537.26 293.32,522.41 " fill="none" id="Gripper-to-pickup\nposition\nhouse" style="stroke:#181818;stroke-width:1.0;"/><polygon fill="#181818" points="296.24,519.18,287.19,523.0655,292.8427,522.8485,293.0596,528.5012,296.24,519.18" style="stroke:#181818;stroke-width:1.0;"/></g><!--link Gripper to pickup\nposition\nsmall nut--><g id="link_Gripper_pickup\nposition\nsmall nut"><path d="M126.28,784.6 C143.92,765.54 167.37,737.11 181,708 C234.41,593.92 186.18,544.41 241,431 C254.13,403.84 278.55,377.93 293.13,363.87 " fill="none" id="Gripper-to-pickup\nposition\nsmall nut" style="stroke:#181818;stroke-width:1.0;"/><polygon fill="#181818" points="296.32,360.9,287.038,364.193,292.6929,364.3415,292.5444,369.9964,296.32,360.9" style="stroke:#181818;stroke-width:1.0;"/></g><!--link Gripper to pickup\nposition\nbig nut--><g id="link_Gripper_pickup\nposition\nbig nut"><path d="M126.27,831.4 C143.91,850.46 167.36,878.89 181,908 C234.27,1021.67 186.68,1070.83 241,1184 C254.15,1211.4 278.56,1237.68 293.14,1251.95 " fill="none" id="Gripper-to-pickup\nposition\nbig nut" style="stroke:#181818;stroke-width:1.0;"/><polygon fill="#181818" points="296.33,1254.98,292.6279,1245.8534,292.7308,1251.5093,287.0749,1251.6122,296.33,1254.98" style="stroke:#181818;stroke-width:1.0;"/></g><!--link Gripper to end\neffector--><g id="link_Gripper_end\neffector"><path d="M147.83,808 C193.65,808 262.08,808 291.14,808 " fill="none" id="Gripper-to-end\neffector" style="stroke:#181818;stroke-width:1.0;"/><polygon fill="#181818" points="296.03,808,287.03,804,291.03,808,287.03,812,296.03,808" style="stroke:#181818;stroke-width:1.0;"/></g><!--link position\nrobot to Frame--><g id="link_position\nrobot_Frame"><path d="M829.54,808 C853.83,808 931.28,808 979.76,808 " fill="none" id="position\nrobot-Frame" style="stroke:#181818;stroke-width:1.0;"/></g><!--link position\nstorage to Frame--><g id="link_position\nstorage_Frame"><path d="M829.54,683.9 C854.61,700.19 936.3,753.28 984.33,784.49 " fill="none" id="position\nstorage-Frame" style="stroke:#181818;stroke-width:1.0;"/></g><!--link position\nassembly station cap to Frame--><g id="link_position\nassembly station cap_Frame"><path d="M829.78,1026.1 C858.17,993.64 956.73,880.92 999.94,831.51 " fill="none" id="position\nassembly station cap-Frame" style="stroke:#181818;stroke-width:1.0;"/></g><!--link position\nassembly station small nut to Frame--><g id="link_position\nassembly station small nut_Frame"><path d="M826.15,399.71 C850.14,450.12 971.46,704.98 1009.25,784.36 " fill="none" id="position\nassembly station small nut-Frame" style="stroke:#181818;stroke-width:1.0;"/></g><!--link position\nassembly station big nut to Frame--><g id="link_position\nassembly station big nut_Frame"><path d="M825.27,1354.3 C837.78,1321 883.67,1198.47 920,1097 C955.28,998.48 995.77,880.45 1012.57,831.28 " fill="none" id="position\nassembly station big nut-Frame" style="stroke:#181818;stroke-width:1.0;"/></g><!--link holder cap to assembly_station_cap--><g id="link_holder cap_assembly_station_cap"><path d="M314.91,1382.38 C327.03,1373.75 350.9,1356.71 371,1342 C421.3,1305.19 479.25,1261.82 514.1,1235.65 " fill="none" id="holder cap-assembly_station_cap" style="stroke:#181818;stroke-width:1.0;"/></g><!--link assembly_station_cap to position\nassembly station cap--><g id="link_assembly_station_cap_position\nassembly station cap"><path d="M583.69,1188.5 C645.2,1148.54 767.38,1069.18 807.16,1043.34 " fill="none" id="assembly_station_cap-to-position\nassembly station cap" style="stroke:#181818;stroke-width:1.0;"/><polygon fill="#181818" points="811,1040.19,801.27,1041.7155,806.8006,1042.9039,805.6122,1048.4345,811,1040.19" style="stroke:#181818;stroke-width:1.0;"/></g><!--link holder small nut to assembly_station_small_nut--><g id="link_holder small nut_assembly_station_small_nut"><path d="M314.94,230.73 C339.87,239.3 418.46,266.32 477,286.45 " fill="none" id="holder small nut-assembly_station_small_nut" style="stroke:#181818;stroke-width:1.0;"/></g><!--link assembly_station_small_nut to position\nassembly station small nut--><g id="link_assembly_station_small_nut_position\nassembly station small nut"><path d="M627.05,333.65 C690.67,352.56 774.37,377.44 806.58,387.01 " fill="none" id="assembly_station_small_nut-to-position\nassembly station small nut" style="stroke:#181818;stroke-width:1.0;"/><polygon fill="#181818" points="811.31,388.71,803.8249,382.3089,806.5177,387.2837,801.5429,389.9765,811.31,388.71" style="stroke:#181818;stroke-width:1.0;"/></g><!--link holder big nut to assembly_station_big_nut--><g id="link_holder big nut_assembly_station_big_nut"><path d="M314.94,1479.04 C336.19,1473.78 396.45,1458.87 450.03,1445.62 " fill="none" id="holder big nut-assembly_station_big_nut" style="stroke:#181818;stroke-width:1.0;"/></g><!--link assembly_station_big_nut to position\nassembly station big nut--><g id="link_assembly_station_big_nut_position\nassembly station big nut"><path d="M655.2,1398.68 C713.29,1386.1 778.63,1371.96 806.37,1365.95 " fill="none" id="assembly_station_big_nut-to-position\nassembly station big nut" style="stroke:#181818;stroke-width:1.0;"/><polygon fill="#181818" points="811,1364.73,801.3576,1362.7238,806.1131,1365.7874,803.0495,1370.5429,811,1364.73" style="stroke:#181818;stroke-width:1.0;"/></g><!--SRC=[ZPN1RkCW48RlF0NAfRk7lC9ARQJTFQvQQIzDPM6RE2W44E1AKTLtBtZ01jUEoI4o-Fjdo3_3n5oOK4IJAwv9S-cqx4Lxa5ngR3KHnhsYmY9EJnPRYJNhpXQtJDF6CYdGWndbd0bgRufYgUrP8jJ8gvB2YV5_mjzfHOoXrvhVAaDjh_07mkupVBs-MAb9Hz-6rO-VUATOS-dLKIXfcCzp59g9ReVtUnpOEwZYlUYeBgGReWh9i-mDBMJDbN2EHMyB-PfrSnhVmOENjCNltjjCDjeQD_RxNox6T3JOtY7m_jaP2yRxfm0lsvzKx1zu3CAmMDF6UeI41w90vXxM9BueENEMl7KfXXSGvwyl1qGQ7jTYGTc2wCNNfN9EWt1ShecdEYxnuL0915cUM3Vb28kr3B7otzaGVGGWzcCiVJMK7dBCDjTopTicje2ifPqk7nNjKT3JoLrn2RTe0A17_DEyexJVZC7-QAPKx8omsEwg3N1ieG9sx9qDBlH50JbhWWqwAsZ6viO6ltwxsPbElfchtlu1MI3YJRx7nAcBZIL-1yTvLop8HrcnB9re88BVE_qD05WrSHxuWCarzy8bU62NNipRSl6d9pFiMmoJ3uVaFBa7wyBbivdPb2dn-juvwtIy9ATCBLyJBP-mpcRKTb4HGfzV]--></g></svg>