<?xml version="1.0" encoding="us-ascii" standalone="no"?><svg xmlns="http://www.w3.org/2000/svg" xmlns:xlink="http://www.w3.org/1999/xlink" contentStyleType="text/css" height="567px" preserveAspectRatio="none" style="width:952px;height:567px;" version="1.1" viewBox="0 0 952 567" width="952px" zoomAndPan="magnify"><defs/><g><!--cluster Valve_assembly--><g id="cluster_Valve_assembly"><rect fill="none" height="477" rx="2.5" ry="2.5" style="stroke:#181818;stroke-width:1.0;" width="939" x="7" y="7"/><rect fill="none" height="10" style="stroke:#181818;stroke-width:1.0;" width="15" x="926" y="12"/><rect fill="none" height="2" style="stroke:#181818;stroke-width:1.0;" width="4" x="924" y="14"/><rect fill="none" height="2" style="stroke:#181818;stroke-width:1.0;" width="4" x="924" y="18"/><text fill="#000000" font-family="sans-serif" font-size="14" font-weight="bold" lengthAdjust="spacing" textLength="124" x="414.5" y="32.9951">Valve_assembly</text></g><!--entity frame--><g id="elem_frame"><rect fill="#F1F1F1" height="46.2969" rx="2.5" ry="2.5" style="stroke:#181818;stroke-width:0.5;" width="79" x="390" y="421.85"/><rect fill="#F1F1F1" height="10" style="stroke:#181818;stroke-width:0.5;" width="15" x="449" y="426.85"/><rect fill="#F1F1F1" height="2" style="stroke:#181818;stroke-width:0.5;" width="4" x="447" y="428.85"/><rect fill="#F1F1F1" height="2" style="stroke:#181818;stroke-width:0.5;" width="4" x="447" y="432.85"/><text fill="#000000" font-family="sans-serif" font-size="14" lengthAdjust="spacing" textLength="39" x="405" y="454.8451">frame</text></g><!--entity assemble_place--><g id="elem_assemble_place"><ellipse cx="576.5" cy="401" fill="#F1F1F1" rx="8" ry="8" style="stroke:#181818;stroke-width:0.5;"/><text fill="#000000" font-family="sans-serif" font-size="14" lengthAdjust="spacing" textLength="111" x="521" y="430.9951">assemble_place</text></g><!--entity robot--><g id="elem_robot"><rect fill="#F1F1F1" height="46.2969" rx="2.5" ry="2.5" style="stroke:#181818;stroke-width:0.5;" width="77" x="538" y="93.85"/><rect fill="#F1F1F1" height="10" style="stroke:#181818;stroke-width:0.5;" width="15" x="595" y="98.85"/><rect fill="#F1F1F1" height="2" style="stroke:#181818;stroke-width:0.5;" width="4" x="593" y="100.85"/><rect fill="#F1F1F1" height="2" style="stroke:#181818;stroke-width:0.5;" width="4" x="593" y="104.85"/><text fill="#000000" font-family="sans-serif" font-size="14" lengthAdjust="spacing" textLength="37" x="553" y="126.8451">robot</text></g><!--entity input_0--><g id="elem_input_0"><ellipse cx="429.5" cy="108" fill="#F1F1F1" rx="8" ry="8" style="stroke:#181818;stroke-width:0.5;"/><text fill="#000000" font-family="sans-serif" font-size="14" lengthAdjust="spacing" textLength="51" x="404" y="137.9951">input_0</text></g><!--entity output_0--><g id="elem_output_0"><ellipse cx="884.5" cy="186" fill="#F1F1F1" rx="8" ry="8" style="stroke:#181818;stroke-width:0.5;"/><text fill="#000000" font-family="sans-serif" font-size="14" lengthAdjust="spacing" textLength="62" x="853.5" y="215.9951">output_0</text></g><!--entity end\neffector--><g id="elem_end\neffector"><ellipse cx="325.5" cy="90" fill="#F1F1F1" rx="8" ry="8" style="stroke:#181818;stroke-width:0.5;"/><text fill="#000000" font-family="sans-serif" font-size="14" lengthAdjust="spacing" textLength="27" x="299" y="119.9951">end</text><text fill="#000000" font-family="sans-serif" font-size="14" lengthAdjust="spacing" textLength="53" x="299" y="136.292">effector</text></g><!--entity sensor--><g id="elem_sensor"><rect fill="#F1F1F1" height="46.2969" rx="2.5" ry="2.5" style="stroke:#181818;stroke-width:0.5;" width="88" x="173" y="153.85"/><rect fill="#F1F1F1" height="10" style="stroke:#181818;stroke-width:0.5;" width="15" x="241" y="158.85"/><rect fill="#F1F1F1" height="2" style="stroke:#181818;stroke-width:0.5;" width="4" x="239" y="160.85"/><rect fill="#F1F1F1" height="2" style="stroke:#181818;stroke-width:0.5;" width="4" x="239" y="164.85"/><text fill="#000000" font-family="sans-serif" font-size="14" lengthAdjust="spacing" textLength="48" x="188" y="186.8451">sensor</text></g><!--entity sensor\nposition--><g id="elem_sensor\nposition"><ellipse cx="429.5" cy="217" fill="#F1F1F1" rx="8" ry="8" style="stroke:#181818;stroke-width:0.5;"/><text fill="#000000" font-family="sans-serif" font-size="14" lengthAdjust="spacing" textLength="48" x="402" y="246.9951">sensor</text><text fill="#000000" font-family="sans-serif" font-size="14" lengthAdjust="spacing" textLength="55" x="402" y="263.292">position</text></g><!--entity cabinet--><g id="elem_cabinet"><rect fill="#F1F1F1" height="46.2969" rx="2.5" ry="2.5" style="stroke:#181818;stroke-width:0.5;" width="91" x="839" y="299.85"/><rect fill="#F1F1F1" height="10" style="stroke:#181818;stroke-width:0.5;" width="15" x="910" y="304.85"/><rect fill="#F1F1F1" height="2" style="stroke:#181818;stroke-width:0.5;" width="4" x="908" y="306.85"/><rect fill="#F1F1F1" height="2" style="stroke:#181818;stroke-width:0.5;" width="4" x="908" y="310.85"/><text fill="#000000" font-family="sans-serif" font-size="14" lengthAdjust="spacing" textLength="51" x="854" y="332.8451">cabinet</text></g><!--entity robot\npower--><g id="elem_robot\npower"><ellipse cx="731" cy="198" fill="#F1F1F1" rx="8" ry="8" style="stroke:#181818;stroke-width:0.5;"/><text fill="#000000" font-family="sans-serif" font-size="14" lengthAdjust="spacing" textLength="37" x="709.5" y="227.9951">robot</text><text fill="#000000" font-family="sans-serif" font-size="14" lengthAdjust="spacing" textLength="43" x="709.5" y="244.292">power</text></g><!--entity storage\npower--><g id="elem_storage\npower"><ellipse cx="731" cy="323" fill="#F1F1F1" rx="8" ry="8" style="stroke:#181818;stroke-width:0.5;"/><text fill="#000000" font-family="sans-serif" font-size="14" lengthAdjust="spacing" textLength="53" x="704.5" y="352.9951">storage</text><text fill="#000000" font-family="sans-serif" font-size="14" lengthAdjust="spacing" textLength="43" x="704.5" y="369.292">power</text></g><!--entity storage--><g id="elem_storage"><rect fill="#F1F1F1" height="46.2969" rx="2.5" ry="2.5" style="stroke:#181818;stroke-width:0.5;" width="93" x="530" y="308.85"/><rect fill="#F1F1F1" height="10" style="stroke:#181818;stroke-width:0.5;" width="15" x="603" y="313.85"/><rect fill="#F1F1F1" height="2" style="stroke:#181818;stroke-width:0.5;" width="4" x="601" y="315.85"/><rect fill="#F1F1F1" height="2" style="stroke:#181818;stroke-width:0.5;" width="4" x="601" y="319.85"/><text fill="#000000" font-family="sans-serif" font-size="14" lengthAdjust="spacing" textLength="53" x="545" y="341.8451">storage</text></g><!--entity ring\nposition--><g id="elem_ring\nposition"><ellipse cx="429.5" cy="342" fill="#F1F1F1" rx="8" ry="8" style="stroke:#181818;stroke-width:0.5;"/><text fill="#000000" font-family="sans-serif" font-size="14" lengthAdjust="spacing" textLength="26" x="402" y="371.9951">ring</text><text fill="#000000" font-family="sans-serif" font-size="14" lengthAdjust="spacing" textLength="55" x="402" y="388.292">position</text></g><!--entity ring--><g id="elem_ring"><rect fill="#F1F1F1" height="46.2969" rx="2.5" ry="2.5" style="stroke:#181818;stroke-width:0.5;" width="66" x="184" y="251.85"/><rect fill="#F1F1F1" height="10" style="stroke:#181818;stroke-width:0.5;" width="15" x="230" y="256.85"/><rect fill="#F1F1F1" height="2" style="stroke:#181818;stroke-width:0.5;" width="4" x="228" y="258.85"/><rect fill="#F1F1F1" height="2" style="stroke:#181818;stroke-width:0.5;" width="4" x="228" y="262.85"/><text fill="#000000" font-family="sans-serif" font-size="14" lengthAdjust="spacing" textLength="26" x="199" y="284.8451">ring</text></g><!--entity shape--><g id="elem_shape"><ellipse cx="67.5" cy="189" fill="#F1F1F1" rx="8" ry="8" style="stroke:#181818;stroke-width:0.5;"/><text fill="#000000" font-family="sans-serif" font-size="14" lengthAdjust="spacing" textLength="43" x="46" y="218.9951">shape</text></g><!--entity gripper--><g id="elem_gripper"><rect fill="#F1F1F1" height="46.2969" rx="2.5" ry="2.5" style="stroke:#181818;stroke-width:0.5;" width="89" x="23" y="94.85"/><rect fill="#F1F1F1" height="10" style="stroke:#181818;stroke-width:0.5;" width="15" x="92" y="99.85"/><rect fill="#F1F1F1" height="2" style="stroke:#181818;stroke-width:0.5;" width="4" x="90" y="101.85"/><rect fill="#F1F1F1" height="2" style="stroke:#181818;stroke-width:0.5;" width="4" x="90" y="105.85"/><text fill="#000000" font-family="sans-serif" font-size="14" lengthAdjust="spacing" textLength="49" x="38" y="127.8451">gripper</text></g><!--entity building--><g id="elem_building"><rect fill="#F1F1F1" height="46.2969" rx="2.5" ry="2.5" style="stroke:#181818;stroke-width:0.5;" width="94" x="684" y="501.85"/><rect fill="#F1F1F1" height="10" style="stroke:#181818;stroke-width:0.5;" width="15" x="758" y="506.85"/><rect fill="#F1F1F1" height="2" style="stroke:#181818;stroke-width:0.5;" width="4" x="756" y="508.85"/><rect fill="#F1F1F1" height="2" style="stroke:#181818;stroke-width:0.5;" width="4" x="756" y="512.85"/><text fill="#000000" font-family="sans-serif" font-size="14" lengthAdjust="spacing" textLength="54" x="699" y="534.8451">building</text></g><!--entity energy--><g id="elem_energy"><ellipse cx="884.5" cy="516" fill="#F1F1F1" rx="8" ry="8" style="stroke:#181818;stroke-width:0.5;"/><text fill="#000000" font-family="sans-serif" font-size="14" lengthAdjust="spacing" textLength="48" x="860.5" y="545.9951">energy</text></g><!--entity location--><g id="elem_location"><ellipse cx="576.5" cy="529" fill="#F1F1F1" rx="8" ry="8" style="stroke:#181818;stroke-width:0.5;"/><text fill="#000000" font-family="sans-serif" font-size="14" lengthAdjust="spacing" textLength="54" x="549.5" y="558.9951">location</text></g><!--link frame to assemble_place--><g id="link_frame_assemble_place"><path d="M469.36,433.21 C502.74,423.08 548.36,409.23 567.02,403.57 " fill="none" id="frame-assemble_place" style="stroke:#181818;stroke-width:1.0;"/></g><!--link input_0 to robot--><g id="link_input_0_robot"><path d="M438.3,108.48 C456.71,109.63 503.88,112.55 537.78,114.66 " fill="none" id="input_0-robot" style="stroke:#181818;stroke-width:1.0;"/></g><!--link output_0 to robot--><g id="link_output_0_robot"><path d="M875.16,180.66 C857.86,169.88 816.43,145.63 778,135 C722.76,119.72 656.01,116.63 615.17,116.38 " fill="none" id="output_0-robot" style="stroke:#181818;stroke-width:1.0;"/></g><!--link end\neffector to robot--><g id="link_end\neffector_robot"><path d="M334.33,85.08 C345.95,78.09 368.68,65.64 390,61 C424.31,53.54 434.91,52.58 469,61 C494.76,67.36 521.17,81.19 541.25,93.52 " fill="none" id="end\neffector-robot" style="stroke:#181818;stroke-width:1.0;"/></g><!--link sensor to input_0--><g id="link_sensor_input_0"><path d="M261.26,181.8 C290.27,183.3 328.74,181.92 360,169 C384.59,158.84 406.27,135.95 418.35,121.28 " fill="none" id="sensor-to-input_0" style="stroke:#181818;stroke-width:1.0;"/><polygon fill="#181818" points="422.08,117.65,413.3282,122.1673,418.9513,121.5502,419.5685,127.1732,422.08,117.65" style="stroke:#181818;stroke-width:1.0;"/><text fill="#000000" font-family="sans-serif" font-size="13" lengthAdjust="spacing" textLength="67" x="292" y="165.0669">connected</text></g><!--link sensor to sensor\nposition--><g id="link_sensor_sensor\nposition"><path d="M261.39,195.91 C270.98,199.45 281.21,202.74 291,205 C335.37,215.23 389.63,216.89 414.65,217.06 " fill="none" id="sensor-to-sensor\nposition" style="stroke:#181818;stroke-width:1.0;"/><polygon fill="#181818" points="419.63,217.07,410.6415,213.0443,414.63,217.0557,410.6186,221.0443,419.63,217.07" style="stroke:#181818;stroke-width:1.0;"/></g><!--link robot to assemble_place--><g id="link_robot_assemble_place"><path d="M563.56,140.57 C545.03,175.84 511.79,245 499.5,308.5 C495.53,329.01 489.15,337.36 499.5,355.5 C512.78,378.76 543.12,391.34 561.51,397.06 " fill="none" id="robot-to-assemble_place" style="stroke:#181818;stroke-width:1.0;"/><polygon fill="#181818" points="566.24,398.75,558.7375,392.3694,561.4439,397.3369,556.4764,400.0432,566.24,398.75" style="stroke:#181818;stroke-width:1.0;"/></g><!--link robot\npower to cabinet--><g id="link_robot\npower_cabinet"><path d="M739.72,204.37 C760.64,221.63 819.25,269.99 854.85,299.36 " fill="none" id="robot\npower-cabinet" style="stroke:#181818;stroke-width:1.0;"/></g><!--link storage\npower to cabinet--><g id="link_storage\npower_cabinet"><path d="M739.72,323 C757.69,323 803.45,323 838.56,323 " fill="none" id="storage\npower-cabinet" style="stroke:#181818;stroke-width:1.0;"/></g><!--reverse link assemble_place to cabinet--><g id="link_assemble_place_cabinet"><path d="M591.74,402.01 C625.16,403.92 710.87,406.17 778,385 C804.74,376.57 831.96,360.35 852.05,346.61 " fill="none" id="assemble_place-backto-cabinet" style="stroke:#181818;stroke-width:1.0;"/><polygon fill="#181818" points="586.77,401.64,595.5005,406.1983,591.7601,401.9546,596.0038,398.2141,586.77,401.64" style="stroke:#181818;stroke-width:1.0;"/></g><!--link robot to robot\npower--><g id="link_robot_robot\npower"><path d="M615.2,137.02 C648.37,154.64 694.76,179.28 717.04,191.12 " fill="none" id="robot-to-robot\npower" style="stroke:#181818;stroke-width:1.0;"/><polygon fill="#181818" points="721.17,193.84,715.0955,186.0875,716.7535,191.496,711.3451,193.1539,721.17,193.84" style="stroke:#181818;stroke-width:1.0;"/></g><!--link cabinet to output_0--><g id="link_cabinet_output_0"><path d="M884.5,299.45 C884.5,266.64 884.5,233.82 884.5,201 " fill="none" id="cabinet-to-output_0" style="stroke:#181818;stroke-width:1.0;"/><polygon fill="#181818" points="884.5,196.31,880.5,205.31,884.5,201.31,888.5,205.31,884.5,196.31" style="stroke:#181818;stroke-width:1.0;"/></g><!--link sensor\nposition to storage--><g id="link_sensor\nposition_storage"><path d="M438.3,223.18 C458.24,239 511.92,281.57 545.92,308.54 " fill="none" id="sensor\nposition-storage" style="stroke:#181818;stroke-width:1.0;"/></g><!--link ring\nposition to storage--><g id="link_ring\nposition_storage"><path d="M438.3,341.46 C455.3,340.29 496.82,337.43 529.76,335.15 " fill="none" id="ring\nposition-storage" style="stroke:#181818;stroke-width:1.0;"/></g><!--link storage to assemble_place--><g id="link_storage_assemble_place"><path d="M576.5,355.27 C576.5,365.38 576.5,375.5 576.5,385.61 " fill="none" id="storage-to-assemble_place" style="stroke:#181818;stroke-width:1.0;"/><polygon fill="#181818" points="576.5,390.57,580.5,381.57,576.5,385.57,572.5,381.57,576.5,390.57" style="stroke:#181818;stroke-width:1.0;"/></g><!--link storage to storage\npower--><g id="link_storage_storage\npower"><path d="M623.26,329.3 C655.22,327.41 695.74,325.02 716.46,323.8 " fill="none" id="storage-to-storage\npower" style="stroke:#181818;stroke-width:1.0;"/><polygon fill="#181818" points="721.22,323.46,712.0059,319.9815,716.2282,323.7461,712.4636,327.9684,721.22,323.46" style="stroke:#181818;stroke-width:1.0;"/></g><!--link shape to ring--><g id="link_shape_ring"><path d="M76.85,193.87 C97.02,205.63 149.27,236.09 183.69,256.16 " fill="none" id="shape-ring" style="stroke:#181818;stroke-width:1.0;"/></g><!--reverse link shape to gripper--><g id="link_shape_gripper"><path d="M67.5,173.63 C67.5,162.95 67.5,152.26 67.5,141.57 " fill="none" id="shape-backto-gripper" style="stroke:#181818;stroke-width:1.0;"/><polygon fill="#181818" points="67.5,178.57,71.5,169.57,67.5,173.57,63.5,169.57,67.5,178.57" style="stroke:#181818;stroke-width:1.0;"/></g><!--link ring to ring\nposition--><g id="link_ring_ring\nposition"><path d="M250.43,285.32 C297.55,300.32 382.86,327.47 415.4,337.83 " fill="none" id="ring-to-ring\nposition" style="stroke:#181818;stroke-width:1.0;"/><polygon fill="#181818" points="419.85,339.56,412.4873,333.0186,415.0856,338.0434,410.0607,340.6417,419.85,339.56" style="stroke:#181818;stroke-width:1.0;"/></g><!--link gripper to end\neffector--><g id="link_gripper_end\neffector"><path d="M112.22,113.22 C171.62,106.72 274.6,95.46 311.16,91.46 " fill="none" id="gripper-to-end\neffector" style="stroke:#181818;stroke-width:1.0;"/><polygon fill="#181818" points="315.81,90.84,306.429,87.8406,310.8395,91.3828,307.2974,95.7933,315.81,90.84" style="stroke:#181818;stroke-width:1.0;"/></g><!--link building to energy--><g id="link_building_energy"><path d="M778.28,522.25 C812.74,520.2 856.84,517.58 875.05,516.5 " fill="none" id="building-energy" style="stroke:#181818;stroke-width:1.0;"/></g><!--link location to building--><g id="link_location_building"><path d="M585.27,528.8 C603.18,528.33 648.5,527.14 683.69,526.21 " fill="none" id="location-building" style="stroke:#181818;stroke-width:1.0;"/></g><!--link frame to location--><g id="link_frame_location"><path d="M469.36,467.51 C500.31,485.44 541.79,509.47 562.53,521.49 " fill="none" id="frame-to-location" style="stroke:#181818;stroke-width:1.0;"/><polygon fill="#181818" points="566.58,524.41,560.8067,516.4307,562.2565,521.8986,556.7885,523.3484,566.58,524.41" style="stroke:#181818;stroke-width:1.0;"/></g><!--link cabinet to energy--><g id="link_cabinet_energy"><path d="M884.5,346.31 C884.5,397.75 884.5,449.19 884.5,500.63 " fill="none" id="cabinet-to-energy" style="stroke:#181818;stroke-width:1.0;"/><polygon fill="#181818" points="884.5,505.58,888.5,496.58,884.5,500.58,880.5,496.58,884.5,505.58" style="stroke:#181818;stroke-width:1.0;"/></g><!--SRC=[VLAxRiCm3Dpr5OINjeE1p1swz1-w94KWsxGZH145IMuH5FttKhByK9FMWq69TySZANzMnaedBz38zZmu6attIfeS12UDvnIQ83Js0GA1KyCfGASSja6H4Gz-eMjbC5mj0hbm8Y5QkbWoJ8OtgJ_mABt7IwEly2M0l_JRzyp4znG_Fa66uD5gsIBKOmq9C64TDHGMB9STmt47TGqfCT_J6EudAZJTmM3VitLorPgVr3qQJswIds96l2nbdg4bOvYAtMz8DSK7OychE9LgRJ1L00QLhUMQhMpYq9QUgWIFGfyuESo81U3PkXpm3qY2vNEStatPZQLel2XNaXtdvr5kzfNhhuvlUe-MCcfjIvdX7qYEuRxV9Pj6NVQVvnZr5ql-92scxVBjnlhWbBMODvmFK6jMJOpDpfYNvrFwBfaHK3ufyIt4lXcLxf8VmMRGe1kkiGpCYNYjgPLH4kfkan3fiIVb6I2AXKngFm00]--></g></svg>