<?xml version="1.0" encoding="us-ascii" standalone="no"?><svg xmlns="http://www.w3.org/2000/svg" xmlns:xlink="http://www.w3.org/1999/xlink" contentStyleType="text/css" height="310px" preserveAspectRatio="none" style="width:171px;height:310px;background:#FFFFFF;" version="1.1" viewBox="0 0 171 310" width="171px" zoomAndPan="magnify"><defs/><g><ellipse cx="72" cy="20" fill="#222222" rx="10" ry="10" style="stroke:#222222;stroke-width:1.0;"/><rect fill="#F1F1F1" height="33.9688" rx="12.5" ry="12.5" style="stroke:#181818;stroke-width:0.5;" width="122" x="11" y="103.9688"/><text fill="#000000" font-family="sans-serif" font-size="12" lengthAdjust="spacing" textLength="102" x="21" y="125.1074">wait 20 seconds</text><rect fill="#F1F1F1" height="33.9688" rx="12.5" ry="12.5" style="stroke:#181818;stroke-width:0.5;" width="112" x="16" y="50"/><text fill="#000000" font-family="sans-serif" font-size="12" lengthAdjust="spacing" textLength="88" x="30" y="71.1387">start up robot</text><polygon fill="#F1F1F1" points="53,157.9375,91,157.9375,103,169.9375,91,181.9375,53,181.9375,41,169.9375,53,157.9375" style="stroke:#181818;stroke-width:0.5;"/><text fill="#000000" font-family="sans-serif" font-size="11" lengthAdjust="spacing" textLength="38" x="53" y="173.7456">ready?</text><text fill="#000000" font-family="sans-serif" font-size="11" lengthAdjust="spacing" textLength="14" x="103" y="167.3433">no</text><rect fill="#F1F1F1" height="33.9688" rx="12.5" ry="12.5" style="stroke:#181818;stroke-width:0.5;" width="98" x="23" y="223.3364"/><text fill="#000000" font-family="sans-serif" font-size="12" lengthAdjust="spacing" textLength="78" x="33" y="244.4751">start moving</text><ellipse cx="72" cy="288.3052" fill="none" rx="11" ry="11" style="stroke:#222222;stroke-width:1.0;"/><ellipse cx="72" cy="288.3052" fill="#222222" rx="6" ry="6" style="stroke:#111111;stroke-width:1.0;"/><line style="stroke:#181818;stroke-width:1.0;" x1="72" x2="72" y1="83.9688" y2="103.9688"/><polygon fill="#181818" points="68,93.9688,72,103.9688,76,93.9688,72,97.9688" style="stroke:#181818;stroke-width:1.0;"/><line style="stroke:#181818;stroke-width:1.0;" x1="103" x2="145" y1="169.9375" y2="169.9375"/><polygon fill="#181818" points="141,128.4609,145,118.4609,149,128.4609,145,124.4609" style="stroke:#181818;stroke-width:1.0;"/><line style="stroke:#181818;stroke-width:1.0;" x1="145" x2="145" y1="66.9844" y2="169.9375"/><line style="stroke:#181818;stroke-width:1.0;" x1="145" x2="128" y1="66.9844" y2="66.9844"/><polygon fill="#181818" points="138,62.9844,128,66.9844,138,70.9844,134,66.9844" style="stroke:#181818;stroke-width:1.0;"/><line style="stroke:#181818;stroke-width:1.0;" x1="72" x2="72" y1="137.9375" y2="157.9375"/><polygon fill="#181818" points="68,147.9375,72,157.9375,76,147.9375,72,151.9375" style="stroke:#181818;stroke-width:1.0;"/><line style="stroke:#181818;stroke-width:1.0;" x1="72" x2="72" y1="30" y2="50"/><polygon fill="#181818" points="68,40,72,50,76,40,72,44" style="stroke:#181818;stroke-width:1.0;"/><line style="stroke:#181818;stroke-width:1.0;" x1="72" x2="72" y1="181.9375" y2="223.3364"/><polygon fill="#181818" points="68,213.3364,72,223.3364,76,213.3364,72,217.3364" style="stroke:#181818;stroke-width:1.0;"/><text fill="#000000" font-family="sans-serif" font-size="11" lengthAdjust="spacing" textLength="20" x="76" y="203.2422">yes</text><line style="stroke:#181818;stroke-width:1.0;" x1="72" x2="72" y1="257.3052" y2="277.3052"/><polygon fill="#181818" points="68,267.3052,72,277.3052,76,267.3052,72,271.3052" style="stroke:#181818;stroke-width:1.0;"/><!--SRC=[BOn12e0m30JlUSKUzI28Hmlwbgf12zgK9Yh-NaNtDZ2pQZuRKUR4tbheYzWJiWnYZl2iFNqmD3MKHucJkj_6kOILKMJsqzMN28eYIabLTx7-wVUtoH7Yx8ZK9Dq0]--></g></svg>