<?xml version="1.0" encoding="us-ascii" standalone="no"?><svg xmlns="http://www.w3.org/2000/svg" xmlns:xlink="http://www.w3.org/1999/xlink" contentStyleType="text/css" height="551px" preserveAspectRatio="none" style="width:1009px;height:551px;" version="1.1" viewBox="0 0 1009 551" width="1009px" zoomAndPan="magnify"><defs/><g><!--cluster Construction_valve--><g id="cluster_Construction_valve"><rect fill="none" height="506" rx="2.5" ry="2.5" style="stroke:#181818;stroke-width:1.0;" width="996" x="7" y="7"/><rect fill="none" height="10" style="stroke:#181818;stroke-width:1.0;" width="15" x="983" y="12"/><rect fill="none" height="2" style="stroke:#181818;stroke-width:1.0;" width="4" x="981" y="14"/><rect fill="none" height="2" style="stroke:#181818;stroke-width:1.0;" width="4" x="981" y="18"/><text fill="#000000" font-family="sans-serif" font-size="14" font-weight="bold" lengthAdjust="spacing" textLength="150" x="430" y="32.9951">Construction_valve</text></g><!--entity Ring--><g id="elem_Ring"><rect fill="#F1F1F1" height="46.2969" rx="2.5" ry="2.5" style="stroke:#181818;stroke-width:0.5;" width="71" x="916" y="398.85"/><rect fill="#F1F1F1" height="10" style="stroke:#181818;stroke-width:0.5;" width="15" x="967" y="403.85"/><rect fill="#F1F1F1" height="2" style="stroke:#181818;stroke-width:0.5;" width="4" x="965" y="405.85"/><rect fill="#F1F1F1" height="2" style="stroke:#181818;stroke-width:0.5;" width="4" x="965" y="409.85"/><text fill="#000000" font-family="sans-serif" font-size="14" lengthAdjust="spacing" textLength="31" x="931" y="431.8451">Ring</text></g><!--entity concentric outside 10mm--><g id="elem_concentric outside 10mm"><ellipse cx="760" cy="468" fill="#F1F1F1" rx="8" ry="8" style="stroke:#181818;stroke-width:0.5;"/><text fill="#000000" font-family="sans-serif" font-size="14" lengthAdjust="spacing" textLength="177" x="671.5" y="497.9951">concentric outside 10mm</text></g><!--entity thickness--><g id="elem_thickness"><ellipse cx="760" cy="375" fill="#F1F1F1" rx="8" ry="8" style="stroke:#181818;stroke-width:0.5;"/><text fill="#000000" font-family="sans-serif" font-size="14" lengthAdjust="spacing" textLength="67" x="726.5" y="404.9951">thickness</text></g><!--entity Nut--><g id="elem_Nut"><rect fill="#F1F1F1" height="46.2969" rx="2.5" ry="2.5" style="stroke:#181818;stroke-width:0.5;" width="64" x="535.5" y="401.85"/><rect fill="#F1F1F1" height="10" style="stroke:#181818;stroke-width:0.5;" width="15" x="579.5" y="406.85"/><rect fill="#F1F1F1" height="2" style="stroke:#181818;stroke-width:0.5;" width="4" x="577.5" y="408.85"/><rect fill="#F1F1F1" height="2" style="stroke:#181818;stroke-width:0.5;" width="4" x="577.5" y="412.85"/><text fill="#000000" font-family="sans-serif" font-size="14" lengthAdjust="spacing" textLength="24" x="550.5" y="434.8451">Nut</text></g><!--entity screw thread m10--><g id="elem_screw thread m10"><ellipse cx="375" cy="431" fill="#F1F1F1" rx="8" ry="8" style="stroke:#181818;stroke-width:0.5;"/><text fill="#000000" font-family="sans-serif" font-size="14" lengthAdjust="spacing" textLength="125" x="312.5" y="460.9951">screw thread m10</text></g><!--entity cap--><g id="elem_cap"><rect fill="#F1F1F1" height="46.2969" rx="2.5" ry="2.5" style="stroke:#181818;stroke-width:0.5;" width="65" x="535" y="314.85"/><rect fill="#F1F1F1" height="10" style="stroke:#181818;stroke-width:0.5;" width="15" x="580" y="319.85"/><rect fill="#F1F1F1" height="2" style="stroke:#181818;stroke-width:0.5;" width="4" x="578" y="321.85"/><rect fill="#F1F1F1" height="2" style="stroke:#181818;stroke-width:0.5;" width="4" x="578" y="325.85"/><text fill="#000000" font-family="sans-serif" font-size="14" lengthAdjust="spacing" textLength="25" x="550" y="347.8451">cap</text></g><!--entity fine thread m12--><g id="elem_fine thread m12"><ellipse cx="375" cy="338" fill="#F1F1F1" rx="8" ry="8" style="stroke:#181818;stroke-width:0.5;"/><text fill="#000000" font-family="sans-serif" font-size="14" lengthAdjust="spacing" textLength="109" x="320.5" y="367.9951">fine thread m12</text></g><!--entity tube--><g id="elem_tube"><rect fill="#F1F1F1" height="46.2969" rx="2.5" ry="2.5" style="stroke:#181818;stroke-width:0.5;" width="72" x="339" y="41.85"/><rect fill="#F1F1F1" height="10" style="stroke:#181818;stroke-width:0.5;" width="15" x="391" y="46.85"/><rect fill="#F1F1F1" height="2" style="stroke:#181818;stroke-width:0.5;" width="4" x="389" y="48.85"/><rect fill="#F1F1F1" height="2" style="stroke:#181818;stroke-width:0.5;" width="4" x="389" y="52.85"/><text fill="#000000" font-family="sans-serif" font-size="14" lengthAdjust="spacing" textLength="32" x="354" y="74.8451">tube</text></g><!--entity concentric outside 20 mm--><g id="elem_concentric outside 20 mm"><ellipse cx="121" cy="71" fill="#F1F1F1" rx="8" ry="8" style="stroke:#181818;stroke-width:0.5;"/><text fill="#000000" font-family="sans-serif" font-size="14" lengthAdjust="spacing" textLength="181" x="30.5" y="100.9951">concentric outside 20 mm</text></g><!--entity concentric inside 20 mm--><g id="elem_concentric inside 20 mm"><ellipse cx="121" cy="164" fill="#F1F1F1" rx="8" ry="8" style="stroke:#181818;stroke-width:0.5;"/><text fill="#000000" font-family="sans-serif" font-size="14" lengthAdjust="spacing" textLength="170" x="36" y="193.9951">concentric inside 20 mm</text></g><!--entity Nut2--><g id="elem_Nut2"><rect fill="#F1F1F1" height="46.2969" rx="2.5" ry="2.5" style="stroke:#181818;stroke-width:0.5;" width="73" x="531" y="221.85"/><rect fill="#F1F1F1" height="10" style="stroke:#181818;stroke-width:0.5;" width="15" x="584" y="226.85"/><rect fill="#F1F1F1" height="2" style="stroke:#181818;stroke-width:0.5;" width="4" x="582" y="228.85"/><rect fill="#F1F1F1" height="2" style="stroke:#181818;stroke-width:0.5;" width="4" x="582" y="232.85"/><text fill="#000000" font-family="sans-serif" font-size="14" lengthAdjust="spacing" textLength="33" x="546" y="254.8451">Nut2</text></g><!--entity screw thread m20--><g id="elem_screw thread m20"><ellipse cx="375" cy="245" fill="#F1F1F1" rx="8" ry="8" style="stroke:#181818;stroke-width:0.5;"/><text fill="#000000" font-family="sans-serif" font-size="14" lengthAdjust="spacing" textLength="125" x="312.5" y="274.9951">screw thread m20</text></g><!--entity concentric inside 20mm--><g id="elem_concentric inside 20mm"><ellipse cx="760" cy="245" fill="#F1F1F1" rx="8" ry="8" style="stroke:#181818;stroke-width:0.5;"/><text fill="#000000" font-family="sans-serif" font-size="14" lengthAdjust="spacing" textLength="166" x="677" y="274.9951">concentric inside 20mm</text></g><!--entity House--><g id="elem_House"><rect fill="#F1F1F1" height="46.2969" rx="2.5" ry="2.5" style="stroke:#181818;stroke-width:0.5;" width="85" x="78.5" y="314.85"/><rect fill="#F1F1F1" height="10" style="stroke:#181818;stroke-width:0.5;" width="15" x="143.5" y="319.85"/><rect fill="#F1F1F1" height="2" style="stroke:#181818;stroke-width:0.5;" width="4" x="141.5" y="321.85"/><rect fill="#F1F1F1" height="2" style="stroke:#181818;stroke-width:0.5;" width="4" x="141.5" y="325.85"/><text fill="#000000" font-family="sans-serif" font-size="14" lengthAdjust="spacing" textLength="45" x="93.5" y="347.8451">House</text></g><!--entity concentric outside 20mm--><g id="elem_concentric outside 20mm"><ellipse cx="375" cy="152" fill="#F1F1F1" rx="8" ry="8" style="stroke:#181818;stroke-width:0.5;"/><text fill="#000000" font-family="sans-serif" font-size="14" lengthAdjust="spacing" textLength="177" x="286.5" y="181.9951">concentric outside 20mm</text></g><!--link concentric outside 10mm to Ring--><g id="link_concentric outside 10mm_Ring"><path d="M768.66,466.14 C793.11,460.21 870.28,441.47 915.85,430.41 " fill="none" id="concentric outside 10mm-Ring" style="stroke:#181818;stroke-width:1.0;"/></g><!--link thickness to Ring--><g id="link_thickness_Ring"><path d="M768.66,376.9 C793.11,382.96 870.28,402.1 915.85,413.41 " fill="none" id="thickness-Ring" style="stroke:#181818;stroke-width:1.0;"/></g><!--link screw thread m10 to Nut--><g id="link_screw thread m10_Nut"><path d="M383.7,430.76 C408.9,429.96 489.85,427.41 535.11,425.99 " fill="none" id="screw thread m10-Nut" style="stroke:#181818;stroke-width:1.0;"/></g><!--link Nut to thickness--><g id="link_Nut_thickness"><path d="M599.96,416.74 C642.18,405.66 715.37,386.45 745.47,378.55 " fill="none" id="Nut-to-thickness" style="stroke:#181818;stroke-width:1.0;"/><polygon fill="#181818" points="750.21,377.04,740.4893,375.4565,745.3739,378.3097,742.5207,383.1943,750.21,377.04" style="stroke:#181818;stroke-width:1.0;"/></g><!--link fine thread m12 to cap--><g id="link_fine thread m12_cap"><path d="M383.7,338 C408.83,338 489.4,338 534.74,338 " fill="none" id="fine thread m12-cap" style="stroke:#181818;stroke-width:1.0;"/></g><!--link concentric outside 20 mm to tube--><g id="link_concentric outside 20 mm_tube"><path d="M129.82,70.81 C161.14,70.07 278.72,67.27 338.56,65.84 " fill="none" id="concentric outside 20 mm-tube" style="stroke:#181818;stroke-width:1.0;"/></g><!--link concentric inside 20 mm to tube--><g id="link_concentric inside 20 mm_tube"><path d="M129.82,160.93 C161.14,148.62 278.72,102.43 338.56,78.92 " fill="none" id="concentric inside 20 mm-tube" style="stroke:#181818;stroke-width:1.0;"/></g><!--link screw thread m20 to Nut2--><g id="link_screw thread m20_Nut2"><path d="M383.7,245 C408.14,245 484.98,245 530.89,245 " fill="none" id="screw thread m20-Nut2" style="stroke:#181818;stroke-width:1.0;"/></g><!--link Nut2 to concentric inside 20mm--><g id="link_Nut2_concentric inside 20mm"><path d="M604.33,245 C647.02,245 716.21,245 745.36,245 " fill="none" id="Nut2-to-concentric inside 20mm" style="stroke:#181818;stroke-width:1.0;"/><polygon fill="#181818" points="750.26,245,741.26,241,745.26,245,741.26,249,750.26,245" style="stroke:#181818;stroke-width:1.0;"/></g><!--link House to concentric outside 10mm--><g id="link_House_concentric outside 10mm"><path d="M139.05,361.5 C164.91,394.89 217.57,454.59 279,478 C452.22,544.01 686.73,487.78 745.31,471.88 " fill="none" id="House-to-concentric outside 10mm" style="stroke:#181818;stroke-width:1.0;"/><polygon fill="#181818" points="750,470.31,740.2602,468.8483,745.1802,471.6401,742.3884,476.5601,750,470.31" style="stroke:#181818;stroke-width:1.0;"/></g><!--link House to screw thread m10--><g id="link_House_screw thread m10"><path d="M163.9,353.46 C222.11,374.94 324.4,412.7 360.73,426.1 " fill="none" id="House-to-screw thread m10" style="stroke:#181818;stroke-width:1.0;"/><polygon fill="#181818" points="365.36,428.18,358.3006,421.3123,360.669,426.4495,355.5318,428.8179,365.36,428.18" style="stroke:#181818;stroke-width:1.0;"/></g><!--link House to concentric outside 20mm--><g id="link_House_concentric outside 20mm"><path d="M144.25,314.47 C173.25,284.71 226.49,233.13 279,198 C306.21,179.8 341.71,164.6 360.68,157.07 " fill="none" id="House-to-concentric outside 20mm" style="stroke:#181818;stroke-width:1.0;"/><polygon fill="#181818" points="365.22,154.91,355.3819,154.4498,360.5611,156.725,358.2859,161.9041,365.22,154.91" style="stroke:#181818;stroke-width:1.0;"/></g><!--link House to screw thread m20--><g id="link_House_screw thread m20"><path d="M163.9,322.54 C222.11,301.06 324.4,263.3 360.73,249.9 " fill="none" id="House-to-screw thread m20" style="stroke:#181818;stroke-width:1.0;"/><polygon fill="#181818" points="365.36,247.82,355.5318,247.1821,360.669,249.5505,358.3006,254.6877,365.36,247.82" style="stroke:#181818;stroke-width:1.0;"/></g><!--link House to fine thread m12--><g id="link_House_fine thread m12"><path d="M163.9,338 C222.11,338 324.4,338 360.73,338 " fill="none" id="House-to-fine thread m12" style="stroke:#181818;stroke-width:1.0;"/><polygon fill="#181818" points="365.36,338,356.36,334,360.36,338,356.36,342,365.36,338" style="stroke:#181818;stroke-width:1.0;"/></g><!--SRC=[ZPBFReCm38VlUGghbss7IZGFi4ilE-smQpLDQKWX0cpaE9scQU- -D23O2ll30Hpb-tsoBKBZiJTiEZWQsrHC4SizjSGWR32aAuUYMdSI40BsLIrGUdPMFA6w2LEyzUZahNT0B3KfPQdh2LCOzeH1EER4ozcqPmVl2jAJNuSdZzLpBc_lO6C9RGgnjq1HWYyTx8gksy1s2nTo0gNsja4Nmdmr-1wZpBfWsRs2rEnC2Tsko70YCf2-wNZ_rJKwhEbdnobDDYjqLYHWH2KUtQ_jwmB6_Y_e6kbn3PocqJ-DewTnT2PoDKoqPazoDLeVA8QnwrmkGjzsVyqjbleFaVvRf9UYwzKFlyt79m00]--></g></svg>