<?xml version="1.0" encoding="us-ascii" standalone="no"?><svg xmlns="http://www.w3.org/2000/svg" xmlns:xlink="http://www.w3.org/1999/xlink" contentStyleType="text/css" height="482px" preserveAspectRatio="none" style="width:1041px;height:482px;" version="1.1" viewBox="0 0 1041 482" width="1041px" zoomAndPan="magnify"><defs/><g><!--cluster Structure_of_the_valve--><g id="cluster_Structure_of_the_valve"><rect fill="none" height="401" rx="2.5" ry="2.5" style="stroke:#181818;stroke-width:1.0;" width="1028" x="7" y="7"/><rect fill="none" height="10" style="stroke:#181818;stroke-width:1.0;" width="15" x="1015" y="12"/><rect fill="none" height="2" style="stroke:#181818;stroke-width:1.0;" width="4" x="1013" y="14"/><rect fill="none" height="2" style="stroke:#181818;stroke-width:1.0;" width="4" x="1013" y="18"/><text fill="#000000" font-family="sans-serif" font-size="14" font-weight="bold" lengthAdjust="spacing" textLength="179" x="431.5" y="32.9951">Structure_of_the_valve</text></g><!--entity Ring--><g id="elem_Ring"><rect fill="#F1F1F1" height="46.2969" rx="2.5" ry="2.5" style="stroke:#181818;stroke-width:0.5;" width="71" x="947.5" y="293.85"/><rect fill="#F1F1F1" height="10" style="stroke:#181818;stroke-width:0.5;" width="15" x="998.5" y="298.85"/><rect fill="#F1F1F1" height="2" style="stroke:#181818;stroke-width:0.5;" width="4" x="996.5" y="300.85"/><rect fill="#F1F1F1" height="2" style="stroke:#181818;stroke-width:0.5;" width="4" x="996.5" y="304.85"/><text fill="#000000" font-family="sans-serif" font-size="14" lengthAdjust="spacing" textLength="31" x="962.5" y="326.8451">Ring</text></g><!--entity concentric outside 17.5mm--><g id="elem_concentric outside 17.5mm"><ellipse cx="784" cy="363" fill="#F1F1F1" rx="8" ry="8" style="stroke:#181818;stroke-width:0.5;"/><text fill="#000000" font-family="sans-serif" font-size="14" lengthAdjust="spacing" textLength="190" x="689" y="392.9951">concentric outside 17.5mm</text></g><!--entity thickness 6.8mm--><g id="elem_thickness 6.8mm"><ellipse cx="784" cy="270" fill="#F1F1F1" rx="8" ry="8" style="stroke:#181818;stroke-width:0.5;"/><text fill="#000000" font-family="sans-serif" font-size="14" lengthAdjust="spacing" textLength="119" x="724.5" y="299.9951">thickness 6.8mm</text></g><!--entity Nut_m20--><g id="elem_Nut_m20"><rect fill="#F1F1F1" height="46.2969" rx="2.5" ry="2.5" style="stroke:#181818;stroke-width:0.5;" width="102" x="467" y="308.85"/><rect fill="#F1F1F1" height="10" style="stroke:#181818;stroke-width:0.5;" width="15" x="549" y="313.85"/><rect fill="#F1F1F1" height="2" style="stroke:#181818;stroke-width:0.5;" width="4" x="547" y="315.85"/><rect fill="#F1F1F1" height="2" style="stroke:#181818;stroke-width:0.5;" width="4" x="547" y="319.85"/><text fill="#000000" font-family="sans-serif" font-size="14" lengthAdjust="spacing" textLength="62" x="482" y="341.8451">Nut_m20</text></g><!--entity screw thread m20--><g id="elem_screw thread m20"><ellipse cx="270" cy="326" fill="#F1F1F1" rx="8" ry="8" style="stroke:#181818;stroke-width:0.5;"/><text fill="#000000" font-family="sans-serif" font-size="14" lengthAdjust="spacing" textLength="125" x="207.5" y="355.9951">screw thread m20</text></g><!--entity Plunger--><g id="elem_Plunger"><rect fill="#F1F1F1" height="46.2969" rx="2.5" ry="2.5" style="stroke:#181818;stroke-width:0.5;" width="93" x="471.5" y="227.85"/><rect fill="#F1F1F1" height="10" style="stroke:#181818;stroke-width:0.5;" width="15" x="544.5" y="232.85"/><rect fill="#F1F1F1" height="2" style="stroke:#181818;stroke-width:0.5;" width="4" x="542.5" y="234.85"/><rect fill="#F1F1F1" height="2" style="stroke:#181818;stroke-width:0.5;" width="4" x="542.5" y="238.85"/><text fill="#000000" font-family="sans-serif" font-size="14" lengthAdjust="spacing" textLength="53" x="486.5" y="260.8451">Plunger</text></g><!--entity fine thread m20--><g id="elem_fine thread m20"><ellipse cx="270" cy="233" fill="#F1F1F1" rx="8" ry="8" style="stroke:#181818;stroke-width:0.5;"/><text fill="#000000" font-family="sans-serif" font-size="14" lengthAdjust="spacing" textLength="109" x="215.5" y="262.9951">fine thread m20</text></g><!--entity tube--><g id="elem_tube"><rect fill="#F1F1F1" height="46.2969" rx="2.5" ry="2.5" style="stroke:#181818;stroke-width:0.5;" width="72" x="947" y="94.85"/><rect fill="#F1F1F1" height="10" style="stroke:#181818;stroke-width:0.5;" width="15" x="999" y="99.85"/><rect fill="#F1F1F1" height="2" style="stroke:#181818;stroke-width:0.5;" width="4" x="997" y="101.85"/><rect fill="#F1F1F1" height="2" style="stroke:#181818;stroke-width:0.5;" width="4" x="997" y="105.85"/><text fill="#000000" font-family="sans-serif" font-size="14" lengthAdjust="spacing" textLength="32" x="962" y="127.8451">tube</text></g><!--entity concentric outside 21.3mm--><g id="elem_concentric outside 21.3mm"><ellipse cx="518" cy="164" fill="#F1F1F1" rx="8" ry="8" style="stroke:#181818;stroke-width:0.5;"/><text fill="#000000" font-family="sans-serif" font-size="14" lengthAdjust="spacing" textLength="190" x="423" y="193.9951">concentric outside 21.3mm</text></g><!--entity concentric inside 20mm--><g id="elem_concentric inside 20mm"><ellipse cx="784" cy="78" fill="#F1F1F1" rx="8" ry="8" style="stroke:#181818;stroke-width:0.5;"/><text fill="#000000" font-family="sans-serif" font-size="14" lengthAdjust="spacing" textLength="166" x="701" y="107.9951">concentric inside 20mm</text></g><!--entity Nut_m26--><g id="elem_Nut_m26"><rect fill="#F1F1F1" height="46.2969" rx="2.5" ry="2.5" style="stroke:#181818;stroke-width:0.5;" width="102" x="23" y="85.85"/><rect fill="#F1F1F1" height="10" style="stroke:#181818;stroke-width:0.5;" width="15" x="105" y="90.85"/><rect fill="#F1F1F1" height="2" style="stroke:#181818;stroke-width:0.5;" width="4" x="103" y="92.85"/><rect fill="#F1F1F1" height="2" style="stroke:#181818;stroke-width:0.5;" width="4" x="103" y="96.85"/><text fill="#000000" font-family="sans-serif" font-size="14" lengthAdjust="spacing" textLength="62" x="38" y="118.8451">Nut_m26</text></g><!--entity screw thread m26x1.5--><g id="elem_screw thread m26x1.5"><ellipse cx="270" cy="86" fill="#F1F1F1" rx="8" ry="8" style="stroke:#181818;stroke-width:0.5;"/><text fill="#000000" font-family="sans-serif" font-size="14" lengthAdjust="spacing" textLength="154" x="193" y="115.9951">screw thread m26x1.5</text></g><!--entity Nut_26--><g id="elem_Nut_26"><ellipse cx="518" cy="71" fill="#F1F1F1" rx="8" ry="8" style="stroke:#181818;stroke-width:0.5;"/><text fill="#000000" font-family="sans-serif" font-size="14" lengthAdjust="spacing" textLength="49" x="493.5" y="100.9951">Nut_26</text></g><!--entity House--><g id="elem_House"><rect fill="#F1F1F1" height="46.2969" rx="2.5" ry="2.5" style="stroke:#181818;stroke-width:0.5;" width="85" x="31.5" y="209.85"/><rect fill="#F1F1F1" height="10" style="stroke:#181818;stroke-width:0.5;" width="15" x="96.5" y="214.85"/><rect fill="#F1F1F1" height="2" style="stroke:#181818;stroke-width:0.5;" width="4" x="94.5" y="216.85"/><rect fill="#F1F1F1" height="2" style="stroke:#181818;stroke-width:0.5;" width="4" x="94.5" y="220.85"/><text fill="#000000" font-family="sans-serif" font-size="14" lengthAdjust="spacing" textLength="45" x="46.5" y="242.8451">House</text></g><!--link concentric outside 17.5mm to Ring--><g id="link_concentric outside 17.5mm_Ring"><path d="M792.97,361.14 C818.59,355.16 899.97,336.15 947.18,325.13 " fill="none" id="concentric outside 17.5mm-Ring" style="stroke:#181818;stroke-width:1.0;"/></g><!--link thickness 6.8mm to Ring--><g id="link_thickness 6.8mm_Ring"><path d="M792.97,271.9 C818.59,278.01 899.97,297.43 947.18,308.69 " fill="none" id="thickness 6.8mm-Ring" style="stroke:#181818;stroke-width:1.0;"/></g><!--link screw thread m20 to Nut_m20--><g id="link_screw thread m20_Nut_m20"><path d="M278.91,326.19 C307.28,326.88 405.52,329.28 466.59,330.77 " fill="none" id="screw thread m20-Nut_m20" style="stroke:#181818;stroke-width:1.0;"/></g><!--link Nut_m20 to thickness 6.8mm--><g id="link_Nut_m20_thickness 6.8mm"><path d="M569.28,320.19 C631.22,305.65 732.75,281.8 769.33,273.21 " fill="none" id="Nut_m20-to-thickness 6.8mm" style="stroke:#181818;stroke-width:1.0;"/><polygon fill="#181818" points="774,271.88,764.3231,270.0477,769.1329,273.0252,766.1554,277.835,774,271.88" style="stroke:#181818;stroke-width:1.0;"/></g><!--link fine thread m20 to Plunger--><g id="link_fine thread m20_Plunger"><path d="M278.91,233.58 C307.98,235.71 410.4,243.2 471.03,247.64 " fill="none" id="fine thread m20-Plunger" style="stroke:#181818;stroke-width:1.0;"/></g><!--link concentric outside 21.3mm to tube--><g id="link_concentric outside 21.3mm_tube"><path d="M526.65,163.24 C575.8,158.36 848.2,131.29 946.56,121.52 " fill="none" id="concentric outside 21.3mm-tube" style="stroke:#181818;stroke-width:1.0;"/></g><!--link concentric inside 20mm to tube--><g id="link_concentric inside 20mm_tube"><path d="M792.97,79.62 C818.52,84.81 899.52,101.25 946.79,110.85 " fill="none" id="concentric inside 20mm-tube" style="stroke:#181818;stroke-width:1.0;"/></g><!--link screw thread m26x1.5 to Nut_26--><g id="link_screw thread m26x1.5_Nut_26"><path d="M278.91,85.52 C316.08,83.25 473.18,73.67 509.49,71.46 " fill="none" id="screw thread m26x1.5-Nut_26" style="stroke:#181818;stroke-width:1.0;"/></g><!--link Nut_26 to concentric inside 20mm--><g id="link_Nut_26_concentric inside 20mm"><path d="M526.9,71.21 C564.1,72.2 721.92,76.38 769.42,77.64 " fill="none" id="Nut_26-to-concentric inside 20mm" style="stroke:#181818;stroke-width:1.0;"/><polygon fill="#181818" points="774.13,77.79,765.2358,73.56,769.1317,77.6615,765.0302,81.5573,774.13,77.79" style="stroke:#181818;stroke-width:1.0;"/></g><!--link House to concentric outside 17.5mm--><g id="link_House_concentric outside 17.5mm"><path d="M85.23,256.54 C101.09,289.67 135.1,348.75 185,373 C396.67,475.88 702.3,388.74 769.58,367.42 " fill="none" id="House-to-concentric outside 17.5mm" style="stroke:#181818;stroke-width:1.0;"/><polygon fill="#181818" points="774.01,365.67,764.2178,364.615,769.2497,367.1996,766.6651,372.2315,774.01,365.67" style="stroke:#181818;stroke-width:1.0;"/></g><!--link House to screw thread m20--><g id="link_House_screw thread m20"><path d="M116.62,252.95 C160.69,274.08 227.7,306.2 255.83,319.69 " fill="none" id="House-to-screw thread m20" style="stroke:#181818;stroke-width:1.0;"/><polygon fill="#181818" points="260.23,322.27,253.8341,314.7805,255.7186,320.1142,250.3849,321.9987,260.23,322.27" style="stroke:#181818;stroke-width:1.0;"/></g><!--link House to concentric outside 21.3mm--><g id="link_House_concentric outside 21.3mm"><path d="M116.95,211.12 C137,201.7 161.67,191.58 185,186 C305.72,157.1 457.71,161.22 503.41,163.28 " fill="none" id="House-to-concentric outside 21.3mm" style="stroke:#181818;stroke-width:1.0;"/><polygon fill="#181818" points="508.13,163.56,499.3221,159.1532,503.1352,163.3317,498.9567,167.1448,508.13,163.56" style="stroke:#181818;stroke-width:1.0;"/></g><!--link House to screw thread m26x1.5--><g id="link_House_screw thread m26x1.5"><path d="M106.17,209.38 C149.71,176.39 226.75,118.02 256.65,95.36 " fill="none" id="House-to-screw thread m26x1.5" style="stroke:#181818;stroke-width:1.0;"/><polygon fill="#181818" points="260.35,91.8,250.7589,94.0384,256.362,94.816,255.5845,100.4191,260.35,91.8" style="stroke:#181818;stroke-width:1.0;"/></g><!--link House to fine thread m20--><g id="link_House_fine thread m20"><path d="M116.62,233 C160.5,233 227.14,233 255.48,233 " fill="none" id="House-to-fine thread m20" style="stroke:#181818;stroke-width:1.0;"/><polygon fill="#181818" points="260.23,233,251.23,229,255.23,233,251.23,237,260.23,233" style="stroke:#181818;stroke-width:1.0;"/></g><!--SRC=[ZP71JeD048RlFCMa5_LGqjOKFNdnuiaOFHf3w3A53R13PcUhnlZkRc7J4h1L3cJ2Vl_7_hksqgRDE6jWawcgO78clwUQ68GpO_qI6ebgt0e80UkY5CWren9D9hgmXtYj3SfdYq0i9KMHegObuyFm8koKECQKjgcKcEwoUeVm5O5_kjVhipR5MpTUNi5CaL4-o5e1ER4wHrZUnEkccS5y3dlsW4gfLMNGMaZYso7GUn-TfCrgSLHRnVWEKZ9cEVYLBX2e3Wgp_tmtjGVhK-rCWNoqRdttiJH08I9kWsSBhfRnTTZ_dlqDrQOd5qDks3CvsJFvMCRhGzTLqd5XxgkU-4_mFv2pOV_TECcCxcbCJexz7wfm8d-e-cPZQ7mXqVSF]--></g></svg>